<svg width="15" height="13" viewBox="0 0 15 13" fill="none" xmlns="http://www.w3.org/2000/svg">
<path d="M14.9688 6.5C14.9688 7.0625 14.5312 7.5 14 7.5H4.40625L7.6875 10.8125C8.09375 11.1875 8.09375 11.8438 7.6875 12.2188C7.5 12.4062 7.25 12.5 7 12.5C6.71875 12.5 6.46875 12.4062 6.28125 12.2188L1.28125 7.21875C0.875 6.84375 0.875 6.1875 1.28125 5.8125L6.28125 0.8125C6.65625 0.40625 7.3125 0.40625 7.6875 0.8125C8.09375 1.1875 8.09375 1.84375 7.6875 2.21875L4.40625 5.5H14C14.5312 5.5 14.9688 5.96875 14.9688 6.5Z" fill="#CEB011"/>
</svg>
