<svg width="32" height="32" viewBox="0 0 32 32" fill="none" xmlns="http://www.w3.org/2000/svg">
<g clip-path="url(#clip0_228_311)">
<path d="M30.7125 21.2932V17.5316C30.7125 16.6315 30.2175 15.8454 29.4858 15.4297V11.1444C29.4858 10.8855 29.276 10.6757 29.0171 10.6757C28.7581 10.6757 28.5483 10.8855 28.5483 11.1444V15.1283C28.4843 15.1217 28.3895 15.1152 28.2962 15.1152H27.8977V14.1425C27.8977 13.7267 27.7441 13.3204 27.4597 13.0055V5.13967C27.4597 4.98142 27.5934 4.84773 27.7516 4.84773H28.2563C28.4146 4.84773 28.5483 4.98142 28.5483 5.13967V8.95686C28.5483 9.21579 28.7581 9.42561 29.0171 9.42561C29.276 9.42561 29.4858 9.21579 29.4858 8.95686V5.13967C29.4858 4.46173 28.9342 3.91023 28.2563 3.91023H27.7516C27.6101 3.91023 27.4746 3.93548 27.348 3.97967C26.9983 2.74604 25.8628 1.83936 24.5186 1.83936H7.48138C6.13725 1.83936 5.00169 2.74604 4.65206 3.97973C4.52537 3.93548 4.38994 3.91023 4.24837 3.91023H3.74369C3.06575 3.91023 2.51425 4.46173 2.51425 5.13967V15.4296C1.7825 15.8454 1.2875 16.6315 1.2875 17.5315V21.2931C0.576563 21.2995 0 21.8794 0 22.5917V25.1846C0 25.901 0.582813 26.4838 1.29919 26.4838H1.30825L1.4145 28.8261C1.44806 29.566 1.98794 30.1138 2.72725 30.158C3.46531 30.2022 4.06775 29.7241 4.1895 28.9922L4.26019 28.5674H14.9062C15.1652 28.5674 15.375 28.3576 15.375 28.0987C15.375 27.8397 15.1652 27.6299 14.9062 27.6299H4.41625L4.599 26.5317L4.60694 26.4839H27.3931L27.4271 26.6878L27.5838 27.6299H17.0938C16.8348 27.6299 16.625 27.8397 16.625 28.0986C16.625 28.3575 16.8348 28.5674 17.0938 28.5674H27.7397L27.8104 28.9922C27.9268 29.6916 28.4827 30.1608 29.1787 30.1608C29.9589 30.1608 30.5503 29.6024 30.5855 28.8261L30.6917 26.4838H30.7008C31.4172 26.4838 32 25.901 32 25.1846V22.5917C32 21.8794 31.4234 21.2995 30.7125 21.2932ZM26.9602 14.1425V15.1152H16.4688V14.1425C16.4688 13.7229 16.8101 13.3816 17.2297 13.3816H26.1993C26.6132 13.3816 26.9602 13.7238 26.9602 14.1425ZM5.47788 4.78048C5.47788 3.67567 6.37669 2.77686 7.48144 2.77686H24.5187C25.6235 2.77686 26.5223 3.67567 26.5223 4.78048V12.4753C26.4131 12.4542 26.3031 12.4441 26.1994 12.4441H17.2297C16.753 12.4441 16.3089 12.6474 16 12.9721C15.6793 12.6357 15.2359 12.4441 14.7704 12.4441H5.80075C5.69706 12.4441 5.58706 12.4542 5.47788 12.4753C5.47788 10.1479 5.47788 7.10198 5.47788 4.78048ZM5.03981 14.1425C5.03981 13.7255 5.38519 13.3816 5.80075 13.3816H14.7704C15.19 13.3816 15.5313 13.7229 15.5313 14.1425V15.1152H5.03981V14.1425ZM3.45175 5.13967C3.45175 4.98142 3.58544 4.84773 3.74369 4.84773H4.24837C4.40662 4.84773 4.54038 4.98142 4.54038 5.13967V13.0054C4.25506 13.3214 4.10231 13.7284 4.10231 14.1425V15.1152H3.70381C3.63694 15.1152 3.54931 15.118 3.45175 15.1282V5.13967ZM2.225 17.5315C2.225 16.7107 2.89531 16.0527 3.70381 16.0527H28.2962C29.1044 16.0527 29.7751 16.7106 29.7751 17.5315V21.2925H2.225V17.5315ZM3.40062 28.0217V28.022L3.26481 28.8382C3.20012 29.2273 2.85231 29.2269 2.78338 29.2222C2.71438 29.218 2.369 29.1775 2.35113 28.7836L2.24675 26.4838H3.65656L3.40062 28.0217ZM29.6489 28.7836C29.6311 29.1775 29.2857 29.218 29.2167 29.2222C29.1478 29.227 28.8 29.2272 28.7353 28.8383L28.5278 27.591L28.3436 26.4838H29.7533L29.6489 28.7836ZM31.0625 25.1847C31.0625 25.3841 30.9003 25.5464 30.7008 25.5464C23.6285 25.5464 8.34175 25.5464 1.29919 25.5464C1.09975 25.5464 0.9375 25.3841 0.9375 25.1847V22.5918C0.9375 22.3924 1.09975 22.2301 1.29919 22.2301H30.7008C30.9003 22.2301 31.0625 22.3924 31.0625 22.5918V25.1847Z" fill="#2B2A29"/>
<path d="M7.76758 9.90883H7.79695V9.93827C7.79695 10.1972 8.00677 10.407 8.2657 10.407C8.52464 10.407 8.73445 10.1972 8.73445 9.93827V9.90883H8.76389C9.02283 9.90883 9.23264 9.69902 9.23264 9.44008C9.23264 9.18114 9.02283 8.97133 8.76389 8.97133H8.73445V8.94189C8.73445 8.68296 8.52464 8.47314 8.2657 8.47314C8.00677 8.47314 7.79695 8.68296 7.79695 8.94189V8.97133H7.76758C7.50864 8.97133 7.29883 9.18114 7.29883 9.44008C7.29883 9.69902 7.5087 9.90883 7.76758 9.90883Z" fill="#2B2A29"/>
<path d="M11.6348 9.90859H11.6642V9.93803C11.6642 10.197 11.874 10.4068 12.133 10.4068C12.3919 10.4068 12.6017 10.197 12.6017 9.93803V9.90859H12.6311C12.89 9.90859 13.0998 9.69877 13.0998 9.43984C13.0998 9.1809 12.89 8.97109 12.6311 8.97109H12.6017V8.94165C12.6017 8.68271 12.3919 8.4729 12.133 8.4729C11.874 8.4729 11.6642 8.68271 11.6642 8.94165V8.97109H11.6348C11.3758 8.97109 11.166 9.1809 11.166 9.43984C11.166 9.69877 11.3759 9.90859 11.6348 9.90859Z" fill="#2B2A29"/>
<path d="M15.502 9.90859H15.5314V9.93803C15.5314 10.197 15.7412 10.4068 16.0001 10.4068C16.2591 10.4068 16.4689 10.197 16.4689 9.93803V9.90859H16.4983C16.7573 9.90859 16.9671 9.69877 16.9671 9.43984C16.9671 9.1809 16.7573 8.97109 16.4983 8.97109H16.4689V8.94165C16.4689 8.68271 16.2591 8.4729 16.0001 8.4729C15.7412 8.4729 15.5314 8.68271 15.5314 8.94165V8.97109H15.502C15.243 8.97109 15.0332 9.1809 15.0332 9.43984C15.0332 9.69877 15.2431 9.90859 15.502 9.90859Z" fill="#2B2A29"/>
<path d="M19.3691 9.90883H19.3985V9.93827C19.3985 10.1972 19.6083 10.407 19.8673 10.407C20.1262 10.407 20.336 10.1972 20.336 9.93827V9.90883H20.3655C20.6244 9.90883 20.8342 9.69902 20.8342 9.44008C20.8342 9.18114 20.6244 8.97133 20.3655 8.97133H20.336V8.94189C20.336 8.68296 20.1262 8.47314 19.8673 8.47314C19.6083 8.47314 19.3985 8.68296 19.3985 8.94189V8.97133H19.3691C19.1102 8.97133 18.9004 9.18114 18.9004 9.44008C18.9004 9.69902 19.1103 9.90883 19.3691 9.90883Z" fill="#2B2A29"/>
<path d="M23.2354 9.90883H23.2648V9.93827C23.2648 10.1972 23.4746 10.407 23.7335 10.407C23.9925 10.407 24.2023 10.1972 24.2023 9.93827V9.90883H24.2317C24.4906 9.90883 24.7004 9.69902 24.7004 9.44008C24.7004 9.18114 24.4906 8.97133 24.2317 8.97133H24.2023V8.94189C24.2023 8.68296 23.9925 8.47314 23.7335 8.47314C23.4746 8.47314 23.2648 8.68296 23.2648 8.94189V8.97133H23.2354C22.9764 8.97133 22.7666 9.18114 22.7666 9.44008C22.7666 9.69902 22.9765 9.90883 23.2354 9.90883Z" fill="#2B2A29"/>
<path d="M7.76758 6.25454H7.79695V6.28391C7.79695 6.54285 8.00677 6.75266 8.2657 6.75266C8.52464 6.75266 8.73445 6.54285 8.73445 6.28391V6.25454H8.76389C9.02283 6.25454 9.23264 6.04472 9.23264 5.78579C9.23264 5.52685 9.02283 5.31704 8.76389 5.31704H8.73445V5.2876C8.73445 5.02866 8.52464 4.81885 8.2657 4.81885C8.00677 4.81885 7.79695 5.02866 7.79695 5.2876V5.31704H7.76758C7.50864 5.31704 7.29883 5.52685 7.29883 5.78579C7.29883 6.04472 7.5087 6.25454 7.76758 6.25454Z" fill="#2B2A29"/>
<path d="M11.6348 6.25454H11.6642V6.28391C11.6642 6.54285 11.874 6.75266 12.133 6.75266C12.3919 6.75266 12.6017 6.54285 12.6017 6.28391V6.25454H12.6311C12.89 6.25454 13.0998 6.04472 13.0998 5.78579C13.0998 5.52685 12.89 5.31704 12.6311 5.31704H12.6017V5.2876C12.6017 5.02866 12.3919 4.81885 12.133 4.81885C11.874 4.81885 11.6642 5.02866 11.6642 5.2876V5.31704H11.6348C11.3758 5.31704 11.166 5.52685 11.166 5.78579C11.166 6.04472 11.3759 6.25454 11.6348 6.25454Z" fill="#2B2A29"/>
<path d="M15.502 6.25454H15.5314V6.28391C15.5314 6.54285 15.7412 6.75266 16.0001 6.75266C16.2591 6.75266 16.4689 6.54285 16.4689 6.28391V6.25454H16.4983C16.7573 6.25454 16.9671 6.04472 16.9671 5.78579C16.9671 5.52685 16.7573 5.31704 16.4983 5.31704H16.4689V5.2876C16.4689 5.02866 16.2591 4.81885 16.0001 4.81885C15.7412 4.81885 15.5314 5.02866 15.5314 5.2876V5.31704H15.502C15.243 5.31704 15.0332 5.52685 15.0332 5.78579C15.0332 6.04472 15.2431 6.25454 15.502 6.25454Z" fill="#2B2A29"/>
<path d="M19.3691 6.25454H19.3985V6.28391C19.3985 6.54285 19.6083 6.75266 19.8673 6.75266C20.1262 6.75266 20.336 6.54285 20.336 6.28391V6.25454H20.3655C20.6244 6.25454 20.8342 6.04472 20.8342 5.78579C20.8342 5.52685 20.6244 5.31704 20.3655 5.31704H20.336V5.2876C20.336 5.02866 20.1262 4.81885 19.8673 4.81885C19.6083 4.81885 19.3985 5.02866 19.3985 5.2876V5.31704H19.3691C19.1102 5.31704 18.9004 5.52685 18.9004 5.78579C18.9004 6.04472 19.1103 6.25454 19.3691 6.25454Z" fill="#2B2A29"/>
<path d="M23.2354 6.25454H23.2648V6.28391C23.2648 6.54285 23.4746 6.75266 23.7335 6.75266C23.9925 6.75266 24.2023 6.54285 24.2023 6.28391V6.25454H24.2317C24.4906 6.25454 24.7004 6.04472 24.7004 5.78579C24.7004 5.52685 24.4906 5.31704 24.2317 5.31704H24.2023V5.2876C24.2023 5.02866 23.9925 4.81885 23.7335 4.81885C23.4746 4.81885 23.2648 5.02866 23.2648 5.2876V5.31704H23.2354C22.9764 5.31704 22.7666 5.52685 22.7666 5.78579C22.7666 6.04472 22.9765 6.25454 23.2354 6.25454Z" fill="#2B2A29"/>
</g>
<defs>
<clipPath id="clip0_228_311">
<rect width="32" height="32" fill="white"/>
</clipPath>
</defs>
</svg>
