<svg width="19" height="24" viewBox="0 0 19 24" fill="none" xmlns="http://www.w3.org/2000/svg">
<path d="M13.3438 0.328125C13.5781 0.140625 13.8594 0 14.1406 0C14.9375 0 15.5 0.84375 15.2188 1.59375L12.0312 10.5H17.1875C17.8906 10.5 18.5 11.1094 18.5 11.7656C18.5 12.1406 18.3125 12.5156 18.0312 12.75L5.60938 23.7188C5.375 23.9062 5.09375 24 4.8125 24C4.01562 24 3.45312 23.2031 3.73438 22.4531L6.92188 13.5H1.67188C1.01562 13.5 0.5 12.9844 0.5 12.3281C0.5 11.9531 0.640625 11.625 0.875 11.3906L13.3438 0.328125ZM13.3906 2.29688L2.46875 12H8C8.23438 12 8.46875 12.1406 8.60938 12.3281C8.75 12.5156 8.75 12.7969 8.70312 13.0312L5.5625 21.75L16.5781 12H11C10.7188 12 10.4844 11.9062 10.3438 11.7188C10.2031 11.4844 10.2031 11.25 10.25 11.0156L13.3906 2.29688Z" fill="#2B2A29"/>
</svg>
