<svg width="32" height="32" viewBox="0 0 32 32" fill="none" xmlns="http://www.w3.org/2000/svg">
<g clip-path="url(#clip0_228_330)">
<path d="M31.9689 26.4192L30.1038 19.9454H30.5757C31.1798 19.9454 31.6711 19.454 31.6711 18.85V5.05078C31.6711 4.79184 31.4613 4.58203 31.2024 4.58203C29.5762 4.58203 28.2532 5.90497 28.2532 7.53116V15.354H23.2339C20.9606 15.354 19.1112 17.2034 19.1112 19.4767C19.1112 19.7356 19.321 19.9454 19.5799 19.9454H21.8186L19.9359 26.4803H19.5674V26.1247C19.5674 24.868 18.5998 23.8337 17.3706 23.7263V15.676H18.4679C19.0742 15.676 19.5675 15.1827 19.5675 14.5763V13.8341H20.875C21.1339 13.8341 21.3438 13.6243 21.3438 13.3653C21.3438 13.1064 21.1339 12.8966 20.875 12.8966H7.12076V11.4493H24.9821V12.8966H23.0625C22.8036 12.8966 22.5938 13.1064 22.5938 13.3653C22.5938 13.6243 22.8036 13.8341 23.0625 13.8341H25.1354C25.5678 13.8341 25.9196 13.4823 25.9196 13.05V11.296C25.9196 10.8637 25.5678 10.5118 25.1354 10.5118H23.7238L24.0733 8.72184C24.1957 8.71918 24.3122 8.66868 24.3979 8.58116C24.4835 8.49364 24.5315 8.37605 24.5315 8.25359C24.5315 7.99466 24.3217 7.78484 24.0628 7.78484H23.9279C23.9279 7.77641 23.9288 7.76816 23.9288 7.75972C23.9293 7.31961 23.8091 6.8878 23.5812 6.51128L24.1424 5.95003C24.186 5.9065 24.2205 5.85483 24.2441 5.79795C24.2676 5.74108 24.2797 5.68012 24.2797 5.61856C24.2797 5.557 24.2676 5.49605 24.2441 5.43917C24.2205 5.3823 24.186 5.33062 24.1424 5.28709C24.0989 5.24356 24.0472 5.20904 23.9904 5.18548C23.9335 5.16192 23.8725 5.14979 23.811 5.14979C23.7494 5.14979 23.6885 5.16192 23.6316 5.18548C23.5747 5.20904 23.523 5.24356 23.4795 5.28709L22.9499 5.81666C22.5334 5.5061 22.0277 5.33857 21.5081 5.33909C20.1734 5.33909 19.0875 6.42497 19.0875 7.75972C19.0875 7.76816 19.0884 7.77641 19.0884 7.78484H18.9535C18.8919 7.78484 18.831 7.79695 18.7741 7.82051C18.7172 7.84406 18.6656 7.87859 18.622 7.92212C18.5785 7.96565 18.544 8.01733 18.5204 8.0742C18.4969 8.13108 18.4847 8.19203 18.4848 8.25359C18.4848 8.50897 18.689 8.71616 18.943 8.72184L19.2925 10.5118H12.8103L13.1598 8.72184C13.2823 8.71918 13.3988 8.66868 13.4844 8.58116C13.5701 8.49364 13.618 8.37605 13.6181 8.25359C13.6181 7.99466 13.4083 7.78484 13.1493 7.78484H13.0144C13.0145 7.77641 13.0154 7.76816 13.0154 7.75972C13.0154 6.42497 11.9294 5.33909 10.5947 5.33909C10.0752 5.33856 9.56939 5.50606 9.15288 5.81659L8.62338 5.28709C8.53547 5.19918 8.41624 5.14979 8.29191 5.14979C8.16759 5.14979 8.04835 5.19918 7.96044 5.28709C7.87253 5.375 7.82314 5.49424 7.82314 5.61856C7.82314 5.74289 7.87253 5.86212 7.96044 5.95003L8.52169 6.51128C8.29381 6.8878 8.17357 7.31961 8.17407 7.75972C8.17407 7.76816 8.17494 7.77641 8.17501 7.78484H8.04007C7.97851 7.78484 7.91755 7.79695 7.86068 7.82051C7.8038 7.84406 7.75212 7.87859 7.70859 7.92212C7.66507 7.96565 7.63054 8.01733 7.60698 8.0742C7.58343 8.13108 7.57131 8.19203 7.57132 8.25359C7.57132 8.50897 7.77563 8.71622 8.02969 8.72184L8.37913 10.5118H6.96744C6.53507 10.5118 6.18326 10.8637 6.18326 11.296V13.05C6.18326 13.4823 6.53507 13.8341 6.96744 13.8341H12.5354V14.5763C12.5354 15.1827 13.0287 15.676 13.635 15.676H14.7323V23.7262C13.5031 23.8337 12.5354 24.868 12.5354 26.1246V26.4802H12.167L10.2843 19.9454H12.5226C12.7815 19.9454 12.9913 19.7356 12.9913 19.4767C12.9913 17.2033 11.1419 15.3539 8.86857 15.3539H3.84926V12.3124C3.84926 12.0535 3.63944 11.8437 3.38051 11.8437C3.12157 11.8437 2.91176 12.0535 2.91176 12.3124V15.5094C2.91176 15.9406 3.26257 16.2915 3.69382 16.2915H8.86851C10.4657 16.2915 11.792 17.473 12.0193 19.008H1.52676C1.48489 19.0079 1.44477 18.9912 1.41517 18.9616C1.38558 18.932 1.36893 18.8919 1.36888 18.85V5.57466C2.25282 5.78647 2.91182 6.58328 2.91182 7.53116V10.1249C2.91182 10.3838 3.12163 10.5937 3.38057 10.5937C3.63951 10.5937 3.84932 10.3838 3.84932 10.1249V7.53116C3.84932 5.90497 2.52632 4.58203 0.900131 4.58203C0.838572 4.58202 0.777614 4.59414 0.720739 4.6177C0.663864 4.64125 0.612186 4.67578 0.568657 4.71931C0.525128 4.76284 0.4906 4.81451 0.467046 4.87139C0.443492 4.92826 0.431373 4.98922 0.431381 5.05078V18.85C0.431381 19.454 0.922756 19.9454 1.52676 19.9454H1.89619L0.0311313 26.4191C-0.0375562 26.6574 0.00863129 26.9077 0.157694 27.1059C0.306756 27.3041 0.534569 27.4177 0.782631 27.4177H1.81401C2.16057 27.4177 2.46957 27.1852 2.56551 26.8522L4.55532 19.9454H7.62501L9.61482 26.8522C9.71076 27.1852 10.0198 27.4177 10.3663 27.4177H21.7364C22.0829 27.4177 22.392 27.1851 22.4879 26.8522L23.2099 24.3462C23.2269 24.287 23.2321 24.2251 23.2252 24.1639C23.2184 24.1027 23.1995 24.0435 23.1697 23.9896C23.1399 23.9358 23.0998 23.8883 23.0517 23.8499C23.0036 23.8115 22.9483 23.783 22.8892 23.766C22.6405 23.6941 22.3807 23.8379 22.309 24.0867L21.6194 26.4802H20.9115L22.7943 19.9453H23.5021L22.9146 21.9846C22.8976 22.0437 22.8924 22.1057 22.8993 22.1668C22.9062 22.228 22.925 22.2872 22.9548 22.3411C22.9846 22.395 23.0247 22.4425 23.0728 22.4808C23.1209 22.5192 23.1762 22.5477 23.2353 22.5648C23.2945 22.5818 23.3564 22.587 23.4176 22.5801C23.4787 22.5733 23.538 22.5544 23.5918 22.5246C23.6457 22.4948 23.6932 22.4547 23.7316 22.4066C23.7699 22.3585 23.7985 22.3032 23.8155 22.2441L24.4778 19.9453H27.4446L29.4344 26.8522C29.5303 27.1852 29.8393 27.4177 30.1859 27.4177H31.2173C31.4653 27.4177 31.6931 27.3041 31.8422 27.1059C31.9913 26.9077 32.0376 26.6573 31.9689 26.4192ZM21.5081 6.27659C22.326 6.27659 22.9913 6.94197 22.9913 7.75972C22.9913 7.76822 22.9904 7.77641 22.9903 7.78484H20.0261C20.0259 7.77641 20.025 7.76816 20.025 7.75972C20.0249 6.94191 20.6903 6.27659 21.5081 6.27659ZM23.1179 8.72241L22.7686 10.5119H20.2478L19.8984 8.72241H23.1179ZM10.5947 6.27659C11.4126 6.27659 12.0779 6.94197 12.0779 7.75972C12.0779 7.76822 12.0769 7.77641 12.0768 7.78484H9.11263C9.11251 7.77641 9.11157 7.76816 9.11157 7.75972C9.11151 6.94191 9.77688 6.27659 10.5947 6.27659ZM12.2044 8.72241L11.8551 10.5119H9.33426L8.98488 8.72241H12.2044ZM1.69707 26.4802H0.989131L2.87182 19.9454H3.57969L1.69707 26.4802ZM10.4833 26.4802L8.60069 19.9454H9.30857L11.1913 26.4802H10.4833ZM13.6349 14.7385C13.592 14.7384 13.5507 14.7213 13.5203 14.6909C13.4899 14.6606 13.4729 14.6193 13.4728 14.5763V13.8341H18.63V14.5763C18.63 14.6193 18.6129 14.6606 18.5825 14.6909C18.5521 14.7213 18.5109 14.7384 18.4679 14.7385H13.6349ZM16.4331 15.676V23.7163H15.6698V15.676H16.4331ZM18.63 26.4802H13.4728V26.1246C13.4728 25.3136 14.1326 24.6539 14.9435 24.6539H17.1593C17.9703 24.6539 18.6299 25.3137 18.6299 26.1246L18.63 26.4802ZM20.0832 19.0079C20.3105 17.473 21.6368 16.2915 23.2339 16.2915H28.4086C28.8399 16.2915 29.1908 15.9407 29.1908 15.5094V7.53116C29.1908 6.58328 29.8498 5.78647 30.7337 5.57466V18.85C30.7336 18.8918 30.717 18.932 30.6874 18.9616C30.6578 18.9911 30.6176 19.0078 30.5758 19.0078L20.0832 19.0079ZM30.3029 26.4802L28.4203 19.9453H29.1281L31.0108 26.4802H30.3029Z" fill="black"/>
</g>
<defs>
<clipPath id="clip0_228_330">
<rect width="32" height="32" fill="white"/>
</clipPath>
</defs>
</svg>
