<svg width="32" height="32" viewBox="0 0 32 32" fill="none" xmlns="http://www.w3.org/2000/svg">
<g clip-path="url(#clip0_228_302)">
<path d="M25.8144 14.8931C27.0176 14.8931 27.9964 13.9143 27.9964 12.7111C27.9964 11.9284 27.582 11.2411 26.9613 10.8559C26.6138 10.4783 25.5093 9.4557 23.0941 8.55776C23.4845 6.18926 23.9632 4.44345 24.2226 3.58945C24.9073 3.31426 25.3922 2.64357 25.3922 1.86157C25.3922 0.814195 24.5296 -0.0305548 23.4744 0.000945201C22.5598 0.0281327 21.7893 0.734945 21.6819 1.64557L21.6797 1.66601C21.6649 1.80488 21.5502 1.90288 21.4205 1.89001C20.8488 1.83188 20.26 1.65288 19.6701 1.35795C18.4457 0.745758 17.4082 0.516945 16.5862 0.678008C16.1972 0.754195 15.803 0.754195 15.4142 0.678008C14.5925 0.517008 13.5547 0.745758 12.3303 1.35795C11.7404 1.65288 11.1515 1.83188 10.5799 1.89001C10.4497 1.9032 10.3355 1.80495 10.3208 1.66607C10.3206 1.66432 10.3198 1.65751 10.3196 1.65576L10.3183 1.64513C10.211 0.734945 9.44047 0.0280702 8.52591 0.000882701C7.48566 -0.0309298 6.60809 0.80107 6.60809 1.86151C6.60809 2.64357 7.09297 3.31426 7.77772 3.58938C8.03709 4.44338 8.51584 6.18926 8.90622 8.5577C6.49103 9.45563 5.38653 10.4783 5.03903 10.8558C4.41834 11.2409 4.00391 11.9284 4.00391 12.7111C4.00391 13.9142 4.98272 14.8931 6.18591 14.8931C6.43778 14.8931 6.67953 14.8497 6.90484 14.7708C7.15584 15.4936 7.31828 16.3034 7.38872 17.1869C7.23116 17.5723 7.15103 18.0016 7.15103 18.1297V19.8874C5.15122 21.6313 6.00803 23.7393 7.20403 26.0356C7.81284 27.2045 7.62284 28.1959 7.35628 28.8217C7.27397 29.0149 7.12466 29.1705 6.93591 29.2596C6.13291 29.6385 5.75447 30.3262 5.57828 30.8363C5.38216 31.405 5.80428 32 6.40691 32H8.51941C9.00272 32 9.39591 31.6068 9.39591 31.1234C9.40734 30.9454 9.33216 30.2318 9.63997 29.4154C10.2549 27.7838 9.79659 26.2123 9.42828 24.9497C9.14753 23.987 8.79422 22.9583 9.35253 22.2674H14.9065C15.1654 22.2674 15.3752 22.0575 15.3752 21.7986C15.3752 21.5398 15.1654 21.3299 14.9065 21.3299H10.7403C10.9053 21.1249 11.0077 20.853 11.0105 20.5758H20.9898C20.9927 20.85 21.0933 21.1227 21.2601 21.3299H17.094C16.835 21.3299 16.6252 21.5398 16.6252 21.7986C16.6252 22.0575 16.835 22.2674 17.094 22.2674H22.6478C23.2074 22.9598 22.8584 23.9679 22.5721 24.9497C22.2038 26.2123 21.7455 27.7838 22.3605 29.4154C22.5224 29.845 22.6045 30.3177 22.6045 30.8203V31.1235C22.6045 31.6068 22.9977 32.0001 23.481 32.0001H25.5935C25.8763 32.0001 26.1431 31.8626 26.3072 31.6324C26.4715 31.4019 26.5143 31.1043 26.4219 30.8365C26.2458 30.3264 25.8673 29.6388 25.0643 29.2598C24.8755 29.1707 24.7263 29.0151 24.6439 28.8219C24.3773 28.1961 24.1873 27.2047 24.7961 26.0358C25.1101 25.4329 25.4367 24.7908 25.6757 24.1501C25.7661 23.9075 25.6428 23.6375 25.4003 23.5471C25.1576 23.4566 24.8877 23.5799 24.7973 23.8224C24.577 24.4132 24.2652 25.0258 23.9647 25.6027C23.1457 27.1751 23.4983 28.5248 23.7815 29.1894C23.954 29.5943 24.2675 29.9203 24.6642 30.1075C25.1331 30.3289 25.3792 30.7342 25.5065 31.0626H23.5421V30.8204C23.5421 30.2044 23.4397 29.6204 23.2378 29.0848C22.7332 27.7459 23.1089 26.4579 23.4722 25.2123C23.8811 23.8105 24.2486 22.5218 23.1954 21.4845C23.0148 21.2858 22.6052 21.0024 22.1086 20.8264C22.007 20.7904 21.9332 20.6932 21.9283 20.5758H24.2122C24.6765 20.9752 24.9535 21.4086 25.0577 21.8965C25.1117 22.1498 25.3607 22.3109 25.6139 22.2571C25.8671 22.2031 26.0285 21.9541 25.9745 21.7009C25.8302 21.0244 25.4515 20.4158 24.8493 19.8885C24.8493 19.5556 24.8495 18.1766 24.8491 18.1247C24.8466 17.8934 24.7153 17.4404 24.6117 17.1871C24.6821 16.3034 24.8446 15.4938 25.0955 14.7709C25.3208 14.8498 25.5625 14.8931 25.8144 14.8931ZM21.5537 14.9691C21.4784 14.9634 21.3696 14.9588 21.2828 14.9588H20.5953C20.7041 10.1038 21.5401 6.21345 22.0923 4.14038C22.4993 4.07788 22.804 4.00407 23.1568 3.89538C22.2313 7.1912 21.6415 11.1521 21.5537 14.9691ZM9.65028 16.1223C9.99747 15.9688 10.3637 15.8963 10.7177 15.8963H21.2828C22.4187 15.8963 23.4295 16.6353 23.7901 17.661H8.21034C8.43397 17.0249 8.94222 16.4356 9.65028 16.1223ZM8.18522 15.9999C8.07722 15.3811 7.92191 14.8001 7.72022 14.2623C7.88434 14.0999 8.04178 13.8849 8.14691 13.6677C8.43584 14.2456 8.68047 14.8409 8.89022 15.4574C8.63322 15.6088 8.39653 15.7913 8.18522 15.9999ZM10.9028 4.2387C11.7623 4.28276 12.6467 4.23438 13.4883 4.1397V14.9588H12.3425C12.2391 10.2527 11.4643 6.42895 10.9028 4.2387ZM14.4258 14.9588V4.01351C14.8986 3.93963 15.3615 3.85182 15.7656 3.76295C15.9963 3.71207 16.1687 3.74876 16.3165 3.78063C16.6242 3.84695 17.0588 3.93288 17.5747 4.01351V14.9588H14.4258ZM18.5122 14.9588V4.1397C19.3557 4.23457 20.2425 4.28282 21.0975 4.23907C20.536 6.42945 19.7613 10.253 19.6578 14.9588H18.5122ZM8.25947 2.7602C8.25778 2.75982 8.25603 2.75976 8.25434 2.75938C7.84853 2.66195 7.54572 2.29682 7.54572 1.86157C7.54572 1.34601 7.96841 0.923445 8.49816 0.938008C8.95178 0.951508 9.33403 1.30263 9.38784 1.75951L9.38853 1.76526C9.45753 2.41338 10.0339 2.8882 10.6748 2.82276C11.3597 2.75313 12.0578 2.54245 12.7496 2.19651C14.0383 1.55213 14.8117 1.51545 15.234 1.59807C15.7423 1.69763 16.2579 1.69763 16.7664 1.59807C17.1884 1.51526 17.9622 1.55213 19.2508 2.19651C19.9426 2.54245 20.6407 2.75313 21.3256 2.82276C21.9661 2.88782 22.5429 2.41351 22.612 1.76426L22.613 1.75495C22.6664 1.3027 23.0487 0.95157 23.5023 0.93807C24.0274 0.923258 24.4547 1.34188 24.4547 1.86163C24.4547 2.37651 24.0354 2.77951 23.541 2.78557C23.535 2.78532 23.5291 2.78513 23.5242 2.78513C23.4548 2.78326 23.387 2.79913 23.3243 2.82801C21.6943 3.5777 19.0216 3.32345 17.2593 3.01045C16.868 2.9407 16.329 2.82682 16.3276 2.82657C16.0737 2.78482 15.8173 2.79176 15.5642 2.84745C13.6362 3.27157 10.4808 3.65782 8.67609 2.82795C8.52209 2.75701 8.46997 2.80913 8.25947 2.7602ZM8.84366 3.89538C9.13547 3.98907 9.51447 4.08013 9.90822 4.14051C10.4604 6.21357 11.2963 10.1039 11.4052 14.9588H10.7177C10.6287 14.9588 10.5186 14.9636 10.4469 14.9691C10.3632 11.3418 9.81722 7.3622 8.84366 3.89538ZM9.05041 9.50513C9.28378 11.1274 9.43141 12.7597 9.49109 14.3769C9.13778 13.4893 8.71678 12.6759 8.23903 11.9444C8.17153 11.8411 7.87603 10.9397 6.81072 10.6207C7.33559 10.2796 8.06559 9.88488 9.05041 9.50513ZM6.18603 13.9556C5.49984 13.9556 4.94153 13.3973 4.94153 12.7111C4.94153 12.0186 5.50772 11.4666 6.18603 11.4666C6.85516 11.4666 7.43053 12.0118 7.43053 12.7111C7.43053 13.3873 6.88053 13.9556 6.18603 13.9556ZM9.75628 20.878C9.45447 20.9988 9.01834 21.2492 8.80516 21.4844C7.75316 22.5204 8.12072 23.8149 8.52828 25.2123C8.89159 26.4579 9.26728 27.746 8.76272 29.0848C8.40272 30.0395 8.46584 30.9578 8.45841 31.0626H6.49384C6.62116 30.7343 6.86728 30.3289 7.33622 30.1076C7.73303 29.9203 8.04647 29.5942 8.21897 29.1893C8.50203 28.5248 8.85466 27.1752 8.03566 25.6028C6.90153 23.4252 6.26734 21.8843 7.78834 20.5759H10.0722C10.0633 20.7869 9.89097 20.824 9.75628 20.878ZM23.9118 19.6383C21.6043 19.6383 10.1673 19.6383 8.08872 19.6383V18.5985H23.9118V19.6383ZM23.8153 15.9999C23.604 15.7914 23.3673 15.6089 23.1103 15.4574C23.333 14.8029 23.58 14.2154 23.8536 13.6677C23.9613 13.885 24.1057 14.0896 24.2803 14.2623C24.0786 14.8001 23.9233 15.381 23.8153 15.9999ZM23.7613 11.9445C23.2617 12.7098 22.8481 13.528 22.5094 14.3768C22.569 12.7597 22.7166 11.1274 22.95 9.50513C23.9348 9.88488 24.6648 10.2796 25.1897 10.6207C24.1317 10.9374 23.8252 11.8466 23.7613 11.9445ZM24.5699 12.7111C24.5699 12.0201 25.1372 11.4666 25.8144 11.4666C26.4967 11.4666 27.0589 12.0222 27.0589 12.7111C27.0589 13.3973 26.5006 13.9556 25.8144 13.9556C25.1203 13.9556 24.5699 13.3879 24.5699 12.7111Z" fill="#2B2A29"/>
</g>
<defs>
<clipPath id="clip0_228_302">
<rect width="32" height="32" fill="white"/>
</clipPath>
</defs>
</svg>
