<svg width="40" height="40" viewBox="0 0 40 40" fill="none" xmlns="http://www.w3.org/2000/svg">
<g clip-path="url(#clip0_228_133)">
<mask id="mask0_228_133" style="mask-type:luminance" maskUnits="userSpaceOnUse" x="0" y="0" width="54" height="54">
<path d="M53.3332 53.3334H0V0.000156403H53.3332V53.3334Z" fill="white"/>
</mask>
<g mask="url(#mask0_228_133)">
<path d="M10.9375 30.6254C9.64583 30.6254 8.59375 29.5733 8.59375 28.2816V25.1566C8.59375 23.865 9.64583 22.8129 10.9375 22.8129C12.2292 22.8129 13.2812 23.865 13.2812 25.1566C13.2812 25.5837 12.9271 25.9379 12.5 25.9379C12.0729 25.9379 11.7187 25.5837 11.7187 25.1566C11.7187 24.7296 11.3646 24.3754 10.9375 24.3754C10.5104 24.3754 10.1562 24.7296 10.1562 25.1566V28.2816C10.1562 28.7087 10.5104 29.0629 10.9375 29.0629C11.3646 29.0629 11.7187 28.7087 11.7187 28.2816C11.2917 28.2816 10.9375 27.9275 10.9375 27.5004C10.9375 27.0733 11.2917 26.7191 11.7187 26.7191H12.5C12.9271 26.7191 13.2812 27.0733 13.2812 27.5004V28.2816C13.2812 29.5733 12.2292 30.6254 10.9375 30.6254Z" fill="#2B2A29"/>
<path d="M15.1562 30.6254C14.7292 30.6254 14.375 30.2712 14.375 29.8441V23.5941C14.375 23.1671 14.7292 22.8129 15.1562 22.8129C15.5833 22.8129 15.9375 23.1671 15.9375 23.5941V29.8441C15.9375 30.2712 15.5833 30.6254 15.1562 30.6254Z" fill="#2B2A29"/>
<path d="M18.2812 30.6254C17.8542 30.6254 17.5 30.2712 17.5 29.8441V23.5941C17.5 23.1671 17.8542 22.8129 18.2812 22.8129C18.7083 22.8129 19.0625 23.1671 19.0625 23.5941V29.8441C19.0625 30.2712 18.7083 30.6254 18.2812 30.6254Z" fill="#2B2A29"/>
<path d="M18 27.5004H15.4375C15.0104 27.5004 14.6562 27.1462 14.6562 26.7191C14.6562 26.2921 15.0104 25.9379 15.4375 25.9379H18C18.4271 25.9379 18.7812 26.2921 18.7812 26.7191C18.7812 27.1462 18.4271 27.5004 18 27.5004Z" fill="#2B2A29"/>
<path d="M2.34374 40.0004C1.05208 40.0004 0 38.9483 0 37.6566V34.5316C0 33.24 1.05208 32.1879 2.34374 32.1879C3.63541 32.1879 4.68749 33.24 4.68749 34.5316V37.6566C4.68749 38.9483 3.63541 40.0004 2.34374 40.0004ZM2.34374 33.7504C1.91666 33.7504 1.5625 34.1045 1.5625 34.5316V37.6566C1.5625 38.0837 1.91666 38.4379 2.34374 38.4379C2.77083 38.4379 3.12499 38.0837 3.12499 37.6566V34.5316C3.12499 34.1045 2.77083 33.7504 2.34374 33.7504Z" fill="#2B2A29"/>
<path d="M3.90625 40.0004C3.70833 40.0004 3.51041 39.9274 3.35417 39.7712L2.96875 39.3858C2.66667 39.0837 2.66667 38.5837 2.96875 38.2816C3.27083 37.9795 3.77083 37.9795 4.07291 38.2816L4.45833 38.667C4.76041 38.9691 4.76041 39.4691 4.45833 39.7712C4.30208 39.9274 4.10416 40.0004 3.90625 40.0004Z" fill="#2B2A29"/>
<path d="M8.208 40.0004C6.91634 40.0004 5.86426 38.9483 5.86426 37.6566V32.9691C5.86426 32.542 6.21842 32.1879 6.64551 32.1879C7.07259 32.1879 7.42675 32.542 7.42675 32.9691V37.6566C7.42675 38.0837 7.78092 38.4379 8.208 38.4379C8.63508 38.4379 8.98925 38.0837 8.98925 37.6566V32.9691C8.98925 32.542 9.34342 32.1879 9.7705 32.1879C10.1976 32.1879 10.5517 32.542 10.5517 32.9691V37.6566C10.5517 38.9483 9.49967 40.0004 8.208 40.0004Z" fill="#2B2A29"/>
<path d="M15.625 40.0004C15.1979 40.0004 14.8437 39.6462 14.8437 39.2191V34.5316C14.8437 34.1045 14.4896 33.7504 14.0625 33.7504C13.6354 33.7504 13.2812 34.1045 13.2812 34.5316V39.2191C13.2812 39.6462 12.9271 40.0004 12.5 40.0004C12.0729 40.0004 11.7188 39.6462 11.7188 39.2191V34.5316C11.7188 33.24 12.7708 32.1879 14.0625 32.1879C15.3542 32.1879 16.4062 33.24 16.4062 34.5316V39.2191C16.4062 39.6462 16.0521 40.0004 15.625 40.0004Z" fill="#2B2A29"/>
<path d="M15.2913 37.6566H12.833C12.4059 37.6566 12.0518 37.3024 12.0518 36.8754C12.0518 36.4483 12.4059 36.0941 12.833 36.0941H15.2913C15.7184 36.0941 16.0726 36.4483 16.0726 36.8754C16.0726 37.3024 15.7288 37.6566 15.2913 37.6566Z" fill="#2B2A29"/>
<path d="M21.0941 40.0004H18.3545C17.9274 40.0004 17.5732 39.6462 17.5732 39.2191V32.9691C17.5732 32.542 17.9274 32.1879 18.3545 32.1879C18.7816 32.1879 19.1357 32.542 19.1357 32.9691V38.4379H21.0941C21.5211 38.4379 21.8753 38.792 21.8753 39.2191C21.8753 39.6462 21.5211 40.0004 21.0941 40.0004Z" fill="#2B2A29"/>
<path d="M23.833 40.0004C23.4059 40.0004 23.0518 39.6462 23.0518 39.2191V32.9691C23.0518 32.542 23.4059 32.1879 23.833 32.1879C24.2601 32.1879 24.6143 32.542 24.6143 32.9691V39.2191C24.6143 39.6462 24.2601 40.0004 23.833 40.0004Z" fill="#2B2A29"/>
<path d="M29.3021 33.7504H26.5625C26.1354 33.7504 25.7812 33.3962 25.7812 32.9691C25.7812 32.542 26.1354 32.1879 26.5625 32.1879H29.3021C29.7292 32.1879 30.0833 32.542 30.0833 32.9691C30.0833 33.3962 29.7292 33.7504 29.3021 33.7504Z" fill="#2B2A29"/>
<path d="M27.9268 40.0004C27.4997 40.0004 27.1455 39.6462 27.1455 39.2191V33.24C27.1455 32.8129 27.4997 32.4587 27.9268 32.4587C28.3538 32.4587 28.708 32.8129 28.708 33.24V39.2191C28.708 39.6462 28.3643 40.0004 27.9268 40.0004Z" fill="#2B2A29"/>
<path d="M33.5937 37.6566C32.3021 37.6566 31.25 36.6045 31.25 35.3129V32.9691C31.25 32.542 31.6042 32.1879 32.0312 32.1879C32.4583 32.1879 32.8125 32.542 32.8125 32.9691V35.3129C32.8125 35.7399 33.1667 36.0941 33.5937 36.0941C34.0208 36.0941 34.375 35.7399 34.375 35.3129V32.9691C34.375 32.542 34.7292 32.1879 35.1562 32.1879C35.5833 32.1879 35.9375 32.542 35.9375 32.9691V35.3129C35.9375 36.6045 34.8854 37.6566 33.5937 37.6566Z" fill="#2B2A29"/>
<path d="M33.5937 40.0004C33.1667 40.0004 32.8125 39.6462 32.8125 39.2191V36.8754C32.8125 36.4483 33.1667 36.0941 33.5937 36.0941C34.0208 36.0941 34.375 36.4483 34.375 36.8754V39.2191C34.375 39.6462 34.0208 40.0004 33.5937 40.0004Z" fill="#2B2A29"/>
<path d="M23.0521 30.6254C22.8854 30.6254 22.7292 30.5733 22.5937 30.4691C22.3854 30.3129 22.2604 30.0629 22.2812 29.7921L22.625 23.5941L18.6354 18.5733C18.4687 18.365 18.4271 18.0942 18.5104 17.8442C18.5937 17.5942 18.8021 17.4067 19.0521 17.3337L21.9375 16.5733C22.3542 16.4588 22.7812 16.7087 22.8958 17.1254C23.0104 17.5421 22.7604 17.9692 22.3437 18.0837L20.6146 18.5421L24.0417 22.8546C24.1562 23.0004 24.2187 23.1879 24.2083 23.3858L23.9167 28.6879L29.0833 26.7608C29.2604 26.6983 29.4583 26.6983 29.6354 26.7608L34.5833 28.6775L34.3437 23.1671C34.3333 22.9796 34.3958 22.7921 34.5208 22.6358L37.875 18.5212L32.5625 17.0421C32.375 16.99 32.2187 16.8754 32.1145 16.7087L29.2396 12.2504L28.1354 13.9171C27.8958 14.2817 27.4166 14.3754 27.0521 14.1358C26.6875 13.8963 26.5937 13.4171 26.8333 13.0525L28.5937 10.3859C28.7396 10.1671 28.9791 10.0317 29.25 10.0317C29.5104 10.0317 29.7604 10.1671 29.9062 10.3859L33.2708 15.6046L39.4479 17.3233C39.6979 17.3962 39.9062 17.5837 39.9791 17.8442C40.0624 18.0942 40.0104 18.3754 39.8437 18.5733L35.927 23.3858L36.2083 29.7921C36.2187 30.0525 36.0937 30.3025 35.8854 30.4587C35.6666 30.615 35.3958 30.6462 35.1458 30.5525L29.3333 28.3337L23.3333 30.5733C23.2396 30.6045 23.1458 30.6254 23.0521 30.6254Z" fill="#2B2A29"/>
<path d="M13.5518 14.3337C13.3851 14.3337 13.2288 14.2816 13.0934 14.1774C12.8851 14.0212 12.7601 13.7712 12.7809 13.5004L13.0101 9.42746L10.3747 6.14622C10.208 5.93789 10.1663 5.66705 10.2497 5.41705C10.333 5.16705 10.5413 4.97956 10.7913 4.90664L14.7288 3.86497L17.0517 0.354565C17.1976 0.135815 17.4476 0.00039959 17.708 0.00039959C17.9684 0.00039959 18.2184 0.135815 18.3642 0.354565L20.5726 3.78164L24.6351 4.90664C24.8851 4.97956 25.0934 5.16706 25.1663 5.42747C25.2496 5.67747 25.1976 5.95872 25.0309 6.15664L22.458 9.31288L22.6455 13.5212C22.6559 13.7816 22.5309 14.0316 22.3226 14.1879C22.1038 14.3441 21.833 14.3754 21.583 14.2816L17.7809 12.8129L13.833 14.292C13.7392 14.3233 13.6455 14.3337 13.5518 14.3337ZM12.3434 6.11497L14.4059 8.70871C14.5205 8.85455 14.583 9.04205 14.5726 9.23996L14.3955 12.4066L17.4997 11.2504C17.6767 11.1879 17.8747 11.1879 18.0517 11.2504L21.0101 12.3962L20.8642 9.08371C20.8538 8.89621 20.9163 8.70871 21.0413 8.55246L23.0517 6.09414L19.8538 5.20872C19.6663 5.15664 19.5101 5.04205 19.4059 4.87539L17.6872 2.20873L15.8538 4.96914C15.7497 5.12539 15.583 5.23997 15.4059 5.29205L12.3434 6.11497Z" fill="#2B2A29"/>
<path d="M2.48958 17.0004C2.32291 17.0004 2.16666 16.9483 2.03124 16.8441C1.82291 16.6879 1.69791 16.4379 1.71875 16.1671L1.86458 13.5629L0.166666 11.4483C0 11.24 -0.0416666 10.9692 0.0416666 10.7192C0.125 10.4692 0.333332 10.2817 0.583332 10.2087L3.10416 9.54208L4.59374 7.29209C4.73957 7.07334 4.98957 6.93792 5.24999 6.93792C5.5104 6.93792 5.7604 7.07334 5.90624 7.29209L7.3229 9.49L9.92706 10.2087C10.1771 10.2817 10.3854 10.4692 10.4583 10.7296C10.5416 10.9796 10.4896 11.2608 10.3229 11.4587L8.67706 13.4796L8.79165 16.1775C8.80206 16.4379 8.67706 16.6879 8.46873 16.8441C8.24998 17.0004 7.97915 17.0316 7.72915 16.9379L5.29165 15.99L2.76041 16.9379C2.67708 16.9796 2.58333 17.0004 2.48958 17.0004ZM2.13541 11.4171L3.26041 12.8337C3.37499 12.9796 3.43749 13.1671 3.42707 13.365L3.33332 15.0629L5.02082 14.4275C5.1979 14.365 5.39582 14.365 5.5729 14.4275L7.16665 15.0421L7.08332 13.24C7.0729 13.0525 7.1354 12.865 7.2604 12.7087L8.34373 11.3858L6.60415 10.9067C6.41665 10.8546 6.2604 10.74 6.15623 10.5733L5.22915 9.13583L4.22916 10.6462C4.12499 10.8025 3.95832 10.9171 3.78124 10.9692L2.13541 11.4171Z" fill="#2B2A29"/>
<path d="M25.5312 17.2191C25.1042 17.2191 24.75 16.865 24.75 16.4379C24.75 16.0108 25.1042 15.6567 25.5312 15.6567C25.9583 15.6567 26.3125 16.0108 26.3125 16.4379C26.3125 16.865 25.9583 17.2191 25.5312 17.2191Z" fill="#2B2A29"/>
</g>
</g>
<defs>
<clipPath id="clip0_228_133">
<rect width="40" height="40" fill="white"/>
</clipPath>
</defs>
</svg>
