<svg width="40" height="40" viewBox="0 0 40 40" fill="none" xmlns="http://www.w3.org/2000/svg">
<g clip-path="url(#clip0_228_173)">
<path d="M38.4596 15.3722H38.0103L37.0523 6.02078C37.0282 5.78003 36.9154 5.55686 36.7358 5.39472C36.5562 5.23259 36.3227 5.14309 36.0808 5.14367H33.1502C32.9083 5.14307 32.6748 5.23255 32.4952 5.39467C32.3156 5.5568 32.2028 5.77996 32.1787 6.0207L31.6662 11.0231H29.7237L29.2112 6.02063C29.1871 5.77991 29.0743 5.55679 28.8947 5.39469C28.7152 5.23258 28.4817 5.14311 28.2398 5.14367H25.3092C25.0673 5.14307 24.8338 5.23255 24.6542 5.39467C24.4746 5.5568 24.3618 5.77996 24.3377 6.0207L23.8252 11.0231H23.1631V1.17188H26.2073V2.24641C26.2073 2.57008 26.4697 2.83234 26.7933 2.83234C27.1169 2.83234 27.3792 2.57008 27.3792 2.24641V1.17188H34.0723V2.24641C34.0723 2.57008 34.3346 2.83234 34.6582 2.83234C34.9818 2.83234 35.2441 2.57008 35.2441 2.24641V1.17188H35.9042C36.2278 1.17188 36.4902 0.909609 36.4902 0.585938C36.4902 0.262266 36.2278 0 35.9042 0H9.25016C8.92656 0 8.66422 0.262266 8.66422 0.585938C8.66422 0.909609 8.92656 1.17188 9.25016 1.17188H9.91023V2.24641C9.91023 2.57008 10.1726 2.83234 10.4962 2.83234C10.8198 2.83234 11.0821 2.57008 11.0821 2.24641V1.17188H17.7752V2.24641C17.7752 2.57008 18.0375 2.83234 18.3611 2.83234C18.6847 2.83234 18.947 2.57008 18.947 2.24641V1.17188H21.9912V11.0232H21.3292L20.8166 6.02086C20.7926 5.78011 20.6798 5.55694 20.5002 5.3948C20.3206 5.23267 20.0871 5.14317 19.8452 5.14375H16.9146C16.6727 5.14317 16.4392 5.23265 16.2596 5.39477C16.08 5.55689 15.9672 5.78005 15.9431 6.02078L15.4306 11.0232H13.4881L12.9756 6.02086C12.9516 5.78011 12.8388 5.55694 12.6592 5.3948C12.4796 5.23267 12.2461 5.14317 12.0041 5.14375H9.07359C8.83165 5.14315 8.59815 5.23263 8.41857 5.39475C8.23899 5.55688 8.12617 5.78004 8.10211 6.02078L7.58961 11.0232H5.43727C4.46797 11.0232 3.67945 11.8118 3.67945 12.781V19.3987C3.67945 20.1525 4.29281 20.7659 5.04664 20.7659H9.86766V24.214H9.24156C8.91797 24.214 8.65563 24.4762 8.65563 24.7999C8.65563 25.1236 8.91797 25.3859 9.24156 25.3859H11.6656C11.9892 25.3859 12.2516 25.1236 12.2516 24.7999C12.2516 24.4762 11.9892 24.214 11.6656 24.214H11.0395V22.9297H11.8338C12.3723 22.9297 12.8104 22.4916 12.8104 21.9531V20.7659H20.2402C20.2986 20.7659 20.3547 20.7892 20.396 20.8305C20.4374 20.8719 20.4606 20.9279 20.4607 20.9864V26.3467C20.4606 26.4052 20.4374 26.4612 20.396 26.5026C20.3547 26.5439 20.2986 26.5671 20.2402 26.5672H14.8831C14.5595 26.5672 14.2972 26.8295 14.2972 27.1531C14.2972 27.4768 14.5595 27.7391 14.8831 27.7391H16.0976V28.9934C16.0976 29.3166 15.8348 29.5794 15.5116 29.5794H7.33125C7.00812 29.5794 6.74531 29.3166 6.74531 28.9934V27.7391H12.0706C12.3942 27.7391 12.6566 27.4768 12.6566 27.1531C12.6566 26.8295 12.3942 26.5672 12.0706 26.5672H1.93164C1.17781 26.5672 0.564453 27.1805 0.564453 27.9344V36.094C0.564453 37.0632 1.35297 37.8518 2.32227 37.8518H3.15297V39.0234C3.15297 39.562 3.59102 40 4.12953 40H9.71109C10.2496 40 10.6877 39.562 10.6877 39.0234V37.8519H24.0812V39.0234C24.0812 39.562 24.5193 40 25.0578 40H30.6394C31.1779 40 31.6159 39.562 31.6159 39.0234V37.8519H34.3915C35.1453 37.8519 35.7587 37.2385 35.7587 36.4847V29.8959C35.7587 29.1421 35.1453 28.5287 34.3915 28.5287H33.5954V27.3884H34.3915C35.1453 27.3884 35.7587 26.775 35.7587 26.0212V23.8988C35.7587 23.1449 35.1453 22.5316 34.3915 22.5316H33.5954V19.0347H38.4598C38.9983 19.0347 39.4363 18.5966 39.4363 18.0581V16.3487C39.4362 15.8102 38.9981 15.3722 38.4596 15.3722ZM25.4855 6.31562H28.0634L28.5457 11.0232H25.0031L25.4855 6.31562ZM17.0909 6.31562H19.6688L20.1512 11.0232H16.6086L17.0909 6.31562ZM9.24992 6.31562H11.8278L12.3102 11.0232H8.76758L9.24992 6.31562ZM8.46453 15.7345C7.95766 15.7695 7.55562 16.192 7.55562 16.7076V19.5939H5.04656C4.99478 19.5938 4.94514 19.5732 4.90852 19.5366C4.87191 19.5 4.85131 19.4504 4.85125 19.3986V12.7809C4.85125 12.4578 5.11406 12.195 5.43719 12.195H8.46453V15.7345ZM9.86758 19.594H8.7275V16.903H9.86758V19.594ZM9.63641 15.731V12.195H12.8196V15.731H9.63641ZM11.6384 21.7578H11.0395V20.7659H11.6384V21.7578ZM14.4377 19.594H11.0395V16.903H14.4377V19.594ZM17.1747 19.594H15.6096V16.7077C15.6096 16.1691 15.1716 15.7311 14.633 15.7311H13.9916V12.1951H17.1748L17.1747 19.594ZM9.5157 38.8281H4.32484V37.8519H9.51578L9.5157 38.8281ZM30.444 38.8281H25.253V37.8519H30.444V38.8281ZM34.3914 29.7006C34.4991 29.7006 34.5867 29.7882 34.5867 29.8959V36.4847C34.5867 36.5924 34.4991 36.68 34.3914 36.68H33.5953V33.8021C33.5953 33.4784 33.333 33.2162 33.0094 33.2162C32.6858 33.2162 32.4234 33.4784 32.4234 33.8021V36.68H2.32227C1.99914 36.68 1.73633 36.4172 1.73633 36.0941V27.9345C1.73633 27.8267 1.82398 27.7391 1.93164 27.7391H5.57344V28.9935C5.57344 29.9627 6.36195 30.7513 7.33125 30.7513H15.5116C16.4809 30.7513 17.2695 29.9627 17.2695 28.9935V27.7391H20.2399C21.0077 27.7391 21.6323 27.1145 21.6323 26.3468V20.9865C21.6323 20.9113 21.6247 20.838 21.6131 20.7659H27.93C28.2536 20.7659 28.5159 20.5037 28.5159 20.18C28.5159 19.8563 28.2536 19.5941 27.93 19.5941H18.3466V12.1952H31.7996C32.1436 12.1952 32.4234 12.475 32.4234 12.819V19.5941H30.7034C30.3798 19.5941 30.1175 19.8563 30.1175 20.18C30.1175 20.5037 30.3798 20.7659 30.7034 20.7659H32.4234V31.0417C32.4234 31.3654 32.6858 31.6277 33.0094 31.6277C33.333 31.6277 33.5953 31.3654 33.5953 31.0417V29.7007H34.3914V29.7006ZM34.3914 23.7034C34.4991 23.7034 34.5867 23.791 34.5867 23.8988V26.0212C34.5867 26.1289 34.4991 26.2165 34.3914 26.2165H33.5953V23.7034H34.3914ZM32.812 11.3368L33.3265 6.31562H35.9044L36.8323 15.3722H33.5952V12.8189C33.5953 12.2041 33.2845 11.6606 32.812 11.3368ZM38.2643 17.8629H33.5952V16.5441H38.2643V17.8629Z" fill="#2B2A29"/>
<path d="M29.718 22.7421C29.718 22.5867 29.6562 22.4377 29.5464 22.3278C29.4365 22.2179 29.2874 22.1562 29.132 22.1562H24.8577C24.5341 22.1562 24.2717 22.4184 24.2717 22.7421C24.2717 23.0658 24.5341 23.328 24.8577 23.328H29.132C29.2874 23.328 29.4365 23.2663 29.5464 23.1564C29.6562 23.0465 29.718 22.8975 29.718 22.7421ZM30.6392 29.0113H28.7591C28.2205 29.0113 27.7825 29.4494 27.7825 29.9879V34.6101C27.7825 35.1486 28.2205 35.5866 28.7591 35.5866H30.6392C31.1777 35.5866 31.6158 35.1486 31.6158 34.6101V29.9879C31.6158 29.4494 31.1777 29.0113 30.6392 29.0113ZM30.4439 34.4148H28.9544V30.1832H30.4439V34.4148ZM21.793 14.4138C21.6376 14.4138 21.4885 14.4756 21.3786 14.5854C21.2688 14.6953 21.207 14.8444 21.207 14.9998V16.6127C21.207 16.9364 21.4694 17.1987 21.793 17.1987C22.1166 17.1987 22.3789 16.9364 22.3789 16.6127V14.9998C22.3789 14.8444 22.3172 14.6953 22.2073 14.5854C22.0974 14.4756 21.9484 14.4138 21.793 14.4138ZM23.6479 14.4138C23.4925 14.4138 23.3435 14.4756 23.2336 14.5854C23.1237 14.6953 23.062 14.8444 23.062 14.9998V16.6127C23.062 16.9364 23.3243 17.1987 23.6479 17.1987C23.9715 17.1987 24.2338 16.9364 24.2338 16.6127V14.9998C24.2338 14.8444 24.1721 14.6953 24.0622 14.5854C23.9523 14.4756 23.8033 14.4138 23.6479 14.4138ZM25.5028 14.4138C25.3474 14.4138 25.1984 14.4756 25.0885 14.5854C24.9786 14.6953 24.9169 14.8444 24.9169 14.9998V16.6127C24.9169 16.9364 25.1792 17.1987 25.5028 17.1987C25.8264 17.1987 26.0888 16.9364 26.0888 16.6127V14.9998C26.0888 14.8444 26.027 14.6953 25.9171 14.5854C25.8072 14.4756 25.6582 14.4138 25.5028 14.4138ZM27.3577 14.4138C27.2023 14.4138 27.0533 14.4756 26.9434 14.5854C26.8335 14.6953 26.7718 14.8444 26.7718 14.9998V16.6127C26.7718 16.9364 27.0341 17.1987 27.3577 17.1987C27.6813 17.1987 27.9437 16.9364 27.9437 16.6127V14.9998C27.9437 14.8444 27.8819 14.6953 27.7721 14.5854C27.6622 14.4756 27.5131 14.4138 27.3577 14.4138ZM29.2127 17.1987C29.3681 17.1987 29.5171 17.137 29.627 17.0271C29.7369 16.9172 29.7986 16.7682 29.7986 16.6128V14.9998C29.7986 14.6762 29.5363 14.4139 29.2127 14.4139C28.8891 14.4139 28.6267 14.6762 28.6267 14.9998V16.6128C28.6267 16.7682 28.6885 16.9172 28.7983 17.0271C28.9082 17.137 29.0573 17.1987 29.2127 17.1987Z" fill="#2B2A29"/>
</g>
<defs>
<clipPath id="clip0_228_173">
<rect width="40" height="40" fill="white"/>
</clipPath>
</defs>
</svg>
