<svg width="41" height="40" viewBox="0 0 41 40" fill="none" xmlns="http://www.w3.org/2000/svg">
<path d="M6.125 25.625C5.75416 25.625 5.39165 25.735 5.08331 25.941C4.77496 26.147 4.53464 26.4399 4.39273 26.7825C4.25081 27.1251 4.21368 27.5021 4.28603 27.8658C4.35838 28.2295 4.53695 28.5636 4.79918 28.8258C5.0614 29.088 5.39549 29.2666 5.75921 29.339C6.12292 29.4113 6.49992 29.3742 6.84253 29.2323C7.18514 29.0904 7.47798 28.85 7.68401 28.5417C7.89003 28.2334 8 27.8708 8 27.5C7.99944 27.0029 7.80172 26.5263 7.45021 26.1748C7.0987 25.8233 6.62211 25.6256 6.125 25.625ZM6.125 28.125C6.00139 28.125 5.88055 28.0883 5.77777 28.0197C5.67499 27.951 5.59488 27.8534 5.54758 27.7392C5.50027 27.625 5.48789 27.4993 5.51201 27.3781C5.53613 27.2568 5.59565 27.1455 5.68306 27.0581C5.77047 26.9707 5.88183 26.9111 6.00307 26.887C6.12431 26.8629 6.24997 26.8753 6.36418 26.9226C6.47838 26.9699 6.57599 27.05 6.64467 27.1528C6.71335 27.2556 6.75 27.3764 6.75 27.5C6.74981 27.6657 6.68391 27.8246 6.56674 27.9417C6.44957 28.0589 6.2907 28.1248 6.125 28.125ZM29.875 25.625C29.5042 25.625 29.1416 25.735 28.8333 25.941C28.525 26.147 28.2846 26.4399 28.1427 26.7825C28.0008 27.1251 27.9637 27.5021 28.036 27.8658C28.1084 28.2295 28.287 28.5636 28.5492 28.8258C28.8114 29.088 29.1455 29.2666 29.5092 29.339C29.8729 29.4113 30.2499 29.3742 30.5925 29.2323C30.9351 29.0904 31.228 28.85 31.434 28.5417C31.64 28.2334 31.75 27.8708 31.75 27.5C31.7494 27.0029 31.5517 26.5263 31.2002 26.1748C30.8487 25.8233 30.3721 25.6256 29.875 25.625ZM29.875 28.125C29.7514 28.125 29.6306 28.0883 29.5278 28.0197C29.425 27.951 29.3449 27.8534 29.2976 27.7392C29.2503 27.625 29.2379 27.4993 29.262 27.3781C29.2861 27.2568 29.3456 27.1455 29.4331 27.0581C29.5205 26.9707 29.6318 26.9111 29.7531 26.887C29.8743 26.8629 30 26.8753 30.1142 26.9226C30.2284 26.9699 30.326 27.05 30.3947 27.1528C30.4633 27.2556 30.5 27.3764 30.5 27.5C30.4998 27.6657 30.4339 27.8246 30.3167 27.9417C30.1996 28.0589 30.0407 28.1248 29.875 28.125Z" fill="#2B2A29"/>
<path d="M34.25 27.5C34.25 26.9192 34.1343 26.3442 33.9098 25.8086C33.6852 25.2729 33.3563 24.7873 32.9421 24.3802C32.5279 23.973 32.0368 23.6523 31.4974 23.437C30.958 23.2216 30.3812 23.1157 29.8004 23.1256C27.4292 23.1652 25.5 25.1552 25.5 27.5617V29.6613C23.7879 29.1953 21.2908 28.75 18 28.75C14.7091 28.75 12.2121 29.1953 10.5 29.6613V27.5C10.5 26.9112 10.3811 26.3284 10.1505 25.7866C9.91991 25.2448 9.58231 24.7551 9.15793 24.3469C8.73356 23.9387 8.23116 23.6204 7.68081 23.411C7.13047 23.2016 6.54352 23.1054 5.95514 23.1283C4.85559 23.1746 3.81354 23.6322 3.03535 24.4104C2.25717 25.1886 1.7996 26.2306 1.75326 27.3302C1.71155 28.4107 2.07125 29.4684 2.76306 30.2995C3.45487 31.1306 4.42981 31.6762 5.49998 31.8312V34.375C5.50072 35.0378 5.76436 35.6733 6.23304 36.1419C6.70171 36.6106 7.33717 36.8743 7.99998 36.875V38.75C7.99998 38.9158 8.06583 39.0747 8.18304 39.1919C8.30025 39.3092 8.45922 39.375 8.62498 39.375H10.5C10.616 39.375 10.7298 39.3427 10.8285 39.2817C10.9273 39.2206 11.0071 39.1333 11.059 39.0295L12.1362 36.875H23.8637L24.941 39.0295C24.9929 39.1333 25.0727 39.2206 25.1714 39.2817C25.2701 39.3427 25.3839 39.375 25.5 39.375H27.375C27.5407 39.375 27.6997 39.3092 27.8169 39.1919C27.9341 39.0747 28 38.9158 28 38.75V36.875C28.6628 36.8743 29.2982 36.6106 29.7669 36.1419C30.2356 35.6733 30.4992 35.0378 30.5 34.375V31.8305C31.5407 31.6788 32.4922 31.158 33.1806 30.3629C33.8691 29.5679 34.2487 28.5517 34.25 27.5ZM10.1137 38.125H9.24998V36.875H10.7387L10.1137 38.125ZM26.75 38.125H25.8862L25.2612 36.875H26.75V38.125ZM29.875 30.625C29.7092 30.625 29.5502 30.6908 29.433 30.8081C29.3158 30.9253 29.25 31.0842 29.25 31.25V34.375C29.2496 34.7064 29.1178 35.0241 28.8834 35.2584C28.6491 35.4928 28.3314 35.6246 28 35.625H7.99998C7.66858 35.6246 7.35087 35.4928 7.11653 35.2584C6.88219 35.0241 6.75037 34.7064 6.74998 34.375V31.25C6.74998 31.0842 6.68413 30.9253 6.56692 30.8081C6.44971 30.6908 6.29074 30.625 6.12498 30.625C5.7043 30.625 5.28794 30.5401 4.90087 30.3753C4.5138 30.2105 4.16399 29.9693 3.8724 29.666C3.58081 29.3628 3.35344 29.0038 3.20394 28.6106C3.05443 28.2174 2.98585 27.798 3.00232 27.3777C3.03544 26.5926 3.36214 25.8487 3.91773 25.2931C4.47333 24.7375 5.2173 24.4108 6.00232 24.3777C6.42269 24.3611 6.84205 24.4297 7.23529 24.5791C7.62853 24.7286 7.98754 24.9559 8.2908 25.2475C8.59406 25.5391 8.83533 25.8889 9.00015 26.2759C9.16497 26.663 9.24995 27.0793 9.24998 27.5V30.0469C8.26475 30.3906 7.74701 30.6752 7.69357 30.7052L8.30506 31.7955C8.33732 31.7775 11.6088 30 18 30C24.3912 30 27.6626 31.7775 27.6936 31.7948L28.3064 30.7052C28.2529 30.6752 27.7352 30.3903 26.75 30.0469V27.5617C26.75 25.8331 28.1278 24.4038 29.8213 24.3755C30.2339 24.3683 30.6439 24.443 31.0275 24.5951C31.4111 24.7472 31.7608 24.9739 32.0563 25.2619C32.3519 25.5499 32.5875 25.8935 32.7495 26.2731C32.9115 26.6526 32.9968 27.0605 33.0003 27.4732C33.0039 27.8858 32.9256 28.2951 32.7702 28.6774C32.6147 29.0596 32.385 29.4073 32.0944 29.7004C31.8039 29.9934 31.4581 30.226 31.0772 30.3847C30.6963 30.5434 30.2877 30.6251 29.875 30.625ZM6.74998 18.75C6.75037 18.4186 6.88219 18.1009 7.11653 17.8666C7.35087 17.6322 7.66858 17.5004 7.99998 17.5H28C28.3314 17.5004 28.6491 17.6322 28.8834 17.8666C29.1178 18.1009 29.2496 18.4186 29.25 18.75V21.875H30.5V18.75C30.4992 18.0872 30.2356 17.4517 29.7669 16.9831C29.2982 16.5144 28.6628 16.2507 28 16.25H7.99998C7.33717 16.2507 6.70171 16.5144 6.23304 16.9831C5.76436 17.4517 5.50072 18.0872 5.49998 18.75V21.875H6.74998V18.75Z" fill="#2B2A29"/>
<path d="M14.25 20H15.5V21.25H14.25V20ZM17.375 23.125H18.625V24.375H17.375V23.125ZM11.125 23.125H12.375V24.375H11.125V23.125ZM14.25 26.25H15.5V27.5H14.25V26.25ZM20.5 20H21.75V21.25H20.5V20ZM23.625 23.125H24.875V24.375H23.625V23.125ZM20.5 26.25H21.75V27.5H20.5V26.25ZM36.75 0.625H19.25C18.5872 0.625744 17.9517 0.889376 17.4831 1.35806C17.0144 1.82673 16.7507 2.46219 16.75 3.125V3.75H18V3.125C18.0004 2.7936 18.1322 2.47589 18.3666 2.24155C18.6009 2.00722 18.9186 1.87539 19.25 1.875H27.375V15H28.625V1.875H36.75C37.0814 1.87539 37.3991 2.00722 37.6334 2.24155C37.8678 2.47589 37.9996 2.7936 38 3.125V34.375C37.9996 34.7064 37.8678 35.0241 37.6334 35.2584C37.3991 35.4928 37.0814 35.6246 36.75 35.625H31.125V36.875H32.6138L33.691 39.0295C33.7429 39.1333 33.8227 39.2206 33.9214 39.2817C34.0202 39.3427 34.1339 39.375 34.25 39.375H36.125C36.2908 39.375 36.4497 39.3092 36.5669 39.1919C36.6842 39.0747 36.75 38.9158 36.75 38.75V36.875C37.4128 36.8743 38.0483 36.6106 38.5169 36.1419C38.9856 35.6733 39.2493 35.0378 39.25 34.375V3.125C39.2493 2.46219 38.9856 1.82673 38.5169 1.35806C38.0483 0.889376 37.4128 0.625744 36.75 0.625ZM35.5 38.125H34.6362L34.0112 36.875H35.5V38.125Z" fill="#2B2A29"/>
<path d="M6.12498 13.75H11.75V15H13V13.75H18.625C18.7114 13.75 18.7969 13.7321 18.8761 13.6973C18.9553 13.6626 19.0264 13.6118 19.0849 13.5482C19.1434 13.4845 19.1881 13.4095 19.2162 13.3277C19.2442 13.2459 19.255 13.1592 19.2478 13.073L18.6228 5.57305C18.6098 5.41683 18.5385 5.27121 18.4231 5.16506C18.3078 5.05892 18.1567 5.00001 18 5H13V3.75H11.75V5H6.74998C6.59321 5.00001 6.44218 5.05892 6.32682 5.16506C6.21145 5.27121 6.14019 5.41683 6.12716 5.57305L5.50216 13.073C5.49498 13.1592 5.50574 13.2459 5.53378 13.3277C5.56182 13.4095 5.60651 13.4845 5.66505 13.5482C5.72358 13.6118 5.79468 13.6626 5.87385 13.6973C5.95301 13.7321 6.03852 13.75 6.12498 13.75ZM7.32505 6.25H17.4249L17.9458 12.5H6.80419L7.32505 6.25Z" fill="#2B2A29"/>
</svg>
