<svg width="40" height="40" viewBox="0 0 40 40" fill="none" xmlns="http://www.w3.org/2000/svg">
<path d="M16.3765 38.2081C16.2843 38.2081 16.1923 38.1881 16.1067 38.1483C16.064 38.1283 11.7152 36.0315 7.56427 31.4587C5.23893 28.8971 3.43013 26.0604 2.188 23.0275C0.642667 19.254 -0.0247992 15.1657 0.204001 10.8761C0.220268 10.5729 0.447201 10.3228 0.747468 10.2774C4.73733 9.67448 8.44747 8.15555 11.7744 5.76302C14.1352 4.06515 15.5149 2.47288 15.8816 2.02542C15.9417 1.95215 16.0172 1.89312 16.1029 1.85258C16.1885 1.81205 16.2821 1.79102 16.3768 1.79102C16.5685 1.79102 16.7504 1.87715 16.872 2.02542L16.8976 2.05688C17.6235 2.94995 20.3667 6.03448 25.196 8.22888C25.5179 8.37502 25.66 8.75448 25.5139 9.07635C25.3677 9.39822 24.9883 9.54062 24.6664 9.39422C22.3669 8.34942 20.2547 7.00115 18.3877 5.38675C17.8419 4.91448 17.0904 4.22115 16.3709 3.41235C15.6741 4.17635 14.3821 5.46408 12.5216 6.80195C10.9827 7.90862 9.3304 8.85315 7.61093 9.60888C5.64327 10.4738 3.57729 11.095 1.45893 11.4587C1.19467 18.7121 3.56587 25.1494 8.512 30.5982C10.1019 32.3497 11.9808 33.9931 13.9456 35.3507C15.0869 36.1393 15.9608 36.6294 16.3776 36.8499C17.2027 36.4166 19.7979 34.9505 22.5923 32.3214C26.8979 28.2702 29.6427 23.4763 30.7499 18.0726C30.8208 17.7262 31.1595 17.5033 31.5053 17.5742C31.8517 17.6451 32.0749 17.9833 32.0037 18.3297C31.3661 21.4412 30.1853 24.4057 28.4941 27.1409C27.1355 29.3385 25.4448 31.395 23.4693 33.2537C19.8936 36.618 16.6787 38.1331 16.6467 38.1481C16.5608 38.1881 16.4685 38.2081 16.3765 38.2081Z" fill="#2B2A29"/>
<path d="M16.3764 34.4654C16.2841 34.4654 16.1921 34.4454 16.1065 34.4057C16.0727 34.3899 12.6252 32.7278 9.34066 29.1091C7.50013 27.0814 6.06813 24.8355 5.08466 22.4342C3.86066 19.4457 3.33213 16.2083 3.5132 12.8126C3.52946 12.5094 3.7564 12.2593 4.05666 12.2139C7.17506 11.7427 10.0748 10.5555 12.6753 8.6854C14.5199 7.35874 15.5959 6.1174 15.8815 5.76834C16.0031 5.62007 16.1847 5.53394 16.3767 5.53394C16.5687 5.53394 16.7503 5.62007 16.8719 5.76834L16.898 5.8006C17.5927 6.65847 20.2215 9.5862 24.8884 11.2401C25.2215 11.3582 25.3959 11.7238 25.278 12.0571C25.1599 12.3902 24.7943 12.5646 24.4609 12.4467C22.2081 11.6483 20.1409 10.4867 18.3169 8.99367C17.7879 8.5606 17.0623 7.91927 16.3695 7.151C15.7967 7.76647 14.8084 8.72834 13.4231 9.72487C12.2041 10.6014 10.8956 11.3494 9.53373 11.9481C8.00907 12.6182 6.40984 13.1037 4.77 13.3945C4.59133 19.0209 6.44653 24.0166 10.2889 28.2497C12.8817 31.1059 15.5401 32.6582 16.3777 33.107C17.1153 32.7145 19.2543 31.4814 21.486 29.3107C25.0081 25.8854 27.1228 21.8227 27.7713 17.2361C27.8209 16.8862 28.1447 16.6425 28.4945 16.6921C28.8444 16.7414 29.0881 17.0654 29.0385 17.4153C27.3591 29.2947 16.7537 34.3566 16.6468 34.4065C16.5619 34.4451 16.4697 34.4652 16.3764 34.4654Z" fill="#2B2A29"/>
<path d="M31.9085 18.8605C29.7901 18.8605 27.7983 18.0357 26.3005 16.5384C24.8023 15.0408 23.9775 13.0496 23.9775 10.9317C23.9775 8.81386 24.8026 6.82266 26.3005 5.32506C27.7983 3.82746 29.7901 3.00293 31.9085 3.00293C34.0269 3.00293 36.0186 3.82773 37.5165 5.32506C39.0146 6.82266 39.8394 8.81386 39.8394 10.9317C39.8394 13.0496 39.0143 15.0408 37.5165 16.5384C36.0183 18.0357 34.0269 18.8605 31.9085 18.8605ZM31.9085 4.28266C28.241 4.28266 25.2575 7.26533 25.2575 10.9315C25.2575 14.5976 28.2413 17.5803 31.9085 17.5803C35.5757 17.5803 38.5594 14.5979 38.5594 10.9317C38.5594 7.2656 35.5757 4.28266 31.9085 4.28266Z" fill="#2B2A29"/>
<path d="M29.8973 14.0289C29.7243 14.0289 29.552 13.959 29.4261 13.8219L27.7344 11.9819C27.4952 11.7217 27.5123 11.3169 27.7723 11.0777C28.0323 10.8385 28.4373 10.8555 28.6765 11.1155L29.9493 12.4998L35.1952 7.98968C35.4632 7.75928 35.8672 7.78968 36.0976 8.05768C36.328 8.32568 36.2976 8.72968 36.0296 8.96035L30.3144 13.8742C30.1936 13.9777 30.0451 14.0289 29.8973 14.0289ZM16.7219 23.4766C14.7843 23.4766 13.208 21.9003 13.208 19.9627C13.208 18.0251 14.7843 16.4489 16.7219 16.4489C18.6595 16.4489 20.2357 18.0251 20.2357 19.9627C20.2357 21.9003 18.6592 23.4766 16.7219 23.4766ZM16.7219 17.7291C15.4901 17.7291 14.488 18.7313 14.488 19.963C14.488 21.1947 15.4901 22.1969 16.7219 22.1969C17.9536 22.1969 18.9557 21.1947 18.9557 19.963C18.9557 18.7313 17.9533 17.7291 16.7219 17.7291Z" fill="#2B2A29"/>
<path d="M17.5271 27.7542H15.5801C15.2543 27.7542 14.9801 27.5091 14.9441 27.1851L14.786 25.7683C14.4156 25.6449 14.058 25.4862 13.718 25.2942L12.6353 26.1593C12.3807 26.3627 12.0137 26.3425 11.7833 26.1118L10.4065 24.735C10.1761 24.5046 10.1556 24.1377 10.3591 23.883L11.27 22.7433C11.0961 22.4033 10.9547 22.0476 10.8479 21.6809L9.45188 21.5251C9.12788 21.4889 8.88281 21.215 8.88281 20.8891V18.9422C8.88281 18.6161 9.12788 18.3422 9.45188 18.3062L10.8769 18.1473C10.993 17.7728 11.1451 17.4105 11.3311 17.0654L10.4777 15.9977C10.2743 15.743 10.2945 15.3761 10.5252 15.1457L11.902 13.7689C12.1324 13.5382 12.4993 13.5179 12.754 13.7214L13.8212 14.5742C14.1864 14.377 14.5709 14.2178 14.9687 14.0993L15.1121 12.8142C15.1484 12.4902 15.4223 12.2451 15.7481 12.2451H17.6951C18.0209 12.2451 18.2951 12.4902 18.3311 12.8142L18.4745 14.0993C18.8938 14.2243 19.2983 14.3943 19.6809 14.6065L20.6399 13.8401C20.8945 13.6366 21.2615 13.6569 21.4919 13.8875L22.8687 15.2643C23.0991 15.4947 23.1196 15.8619 22.9161 16.1163L22.1303 17.0998C22.3397 17.4939 22.5049 17.9099 22.6228 18.3403L23.8233 18.4742C24.1473 18.5105 24.3924 18.7843 24.3924 19.1102V21.0571C24.3924 21.3833 24.1473 21.6571 23.8233 21.6931L22.5481 21.8355C22.4148 22.251 22.2377 22.6494 22.0185 23.0273L22.7975 24.0019C23.0009 24.2566 22.9807 24.6235 22.75 24.8539L21.3732 26.2307C21.1428 26.4611 20.7756 26.4817 20.5212 26.2782L19.4641 25.4334C19.0953 25.6188 18.7085 25.766 18.3097 25.8729L18.1633 27.1854C18.1271 27.5091 17.8532 27.7542 17.5271 27.7542ZM16.1527 26.4742H16.9545L17.0879 25.2785C17.1031 25.1419 17.1619 25.0139 17.2554 24.9134C17.349 24.8128 17.4725 24.745 17.6076 24.7201C18.1719 24.6158 18.7084 24.4131 19.2017 24.1179C19.3137 24.051 19.4434 24.0198 19.5736 24.0286C19.7038 24.0374 19.8281 24.0858 19.93 24.1673L20.8729 24.9209L21.4399 24.3539L20.7337 23.4702C20.6479 23.3628 20.5989 23.2305 20.5941 23.093C20.5893 22.9556 20.6289 22.8202 20.7071 22.707C21.0457 22.2163 21.2876 21.675 21.4263 21.0977C21.457 20.9698 21.5264 20.8545 21.625 20.7674C21.7237 20.6804 21.8467 20.6259 21.9775 20.6113L23.1121 20.4846V19.6827L22.0311 19.5622C21.8953 19.547 21.7679 19.4888 21.6675 19.396C21.5672 19.3032 21.4992 19.1807 21.4735 19.0465C21.3601 18.4545 21.1388 17.8947 20.8159 17.3835C20.7449 17.271 20.7107 17.1392 20.718 17.0063C20.7254 16.8735 20.7739 16.7462 20.8569 16.6422L21.5585 15.7643L20.9916 15.1974L20.1316 15.8849C20.026 15.9692 19.8964 16.018 19.7613 16.0242C19.6263 16.0304 19.4928 15.9936 19.3799 15.9193C18.8812 15.5907 18.3335 15.3601 17.7519 15.2342C17.6209 15.2059 17.5021 15.1371 17.4123 15.0376C17.3225 14.9382 17.2662 14.813 17.2513 14.6798L17.1225 13.5254H16.3207L16.1919 14.6798C16.177 14.813 16.1207 14.9382 16.0309 15.0376C15.9411 15.1371 15.8223 15.2059 15.6913 15.2342C15.1289 15.3561 14.5975 15.5761 14.1116 15.8878C13.9989 15.9601 13.8664 15.9953 13.7327 15.9884C13.599 15.9814 13.4709 15.9327 13.3663 15.8491L12.402 15.0785L11.8351 15.6454L12.606 16.6099C12.7772 16.8243 12.7929 17.1241 12.6449 17.355C12.3444 17.8238 12.1289 18.3361 12.0049 18.8774C11.9753 19.0068 11.9062 19.1238 11.8072 19.2122C11.7081 19.3006 11.5841 19.356 11.4521 19.3707L10.1628 19.5147V20.3166L11.4311 20.4582C11.7057 20.4889 11.9297 20.6923 11.9865 20.9627C12.0988 21.4977 12.3004 22.0065 12.5852 22.4745C12.6534 22.5866 12.6855 22.717 12.6772 22.848C12.6688 22.9789 12.6204 23.1042 12.5385 23.2067L11.7167 24.2353L12.2836 24.8022L13.2705 24.0134C13.3769 23.9284 13.5076 23.8795 13.6437 23.8739C13.7798 23.8683 13.9141 23.9062 14.0271 23.9822C14.4861 24.2912 14.9951 24.5185 15.5316 24.6539C15.6579 24.6859 15.7715 24.7556 15.8572 24.8538C15.9428 24.952 15.9964 25.074 16.0108 25.2035L16.1527 26.4742Z" fill="#2B2A29"/>
</svg>
