<svg width="40" height="40" viewBox="0 0 40 40" fill="none" xmlns="http://www.w3.org/2000/svg">
<path d="M13.7373 31.626C13.5819 31.626 13.4329 31.6877 13.323 31.7976C13.2131 31.9075 13.1514 32.0566 13.1514 32.212V34.717C13.1514 34.8724 13.2131 35.0214 13.323 35.1313C13.4329 35.2412 13.5819 35.3029 13.7373 35.3029C13.8927 35.3029 14.0417 35.2412 14.1516 35.1313C14.2615 35.0214 14.3232 34.8724 14.3232 34.717V32.212C14.3232 32.0566 14.2615 31.9075 14.1516 31.7976C14.0417 31.6877 13.8927 31.626 13.7373 31.626ZM26.2625 31.626C26.1071 31.626 25.958 31.6877 25.8481 31.7976C25.7383 31.9075 25.6765 32.0566 25.6765 32.212V34.717C25.6765 34.8724 25.7383 35.0214 25.8481 35.1313C25.958 35.2412 26.1071 35.3029 26.2625 35.3029C26.4179 35.3029 26.5669 35.2412 26.6768 35.1313C26.7867 35.0214 26.8484 34.8724 26.8484 34.717V32.212C26.8484 32.0566 26.7867 31.9075 26.6768 31.7976C26.5669 31.6877 26.4179 31.626 26.2625 31.626ZM8.98918 19.1627C7.62855 18.4824 5.07754 18.4746 4.96957 18.4746C4.81417 18.4746 4.66513 18.5363 4.55523 18.6462C4.44533 18.756 4.38358 18.9051 4.38355 19.0605C4.38353 19.2159 4.44525 19.3649 4.55512 19.4748C4.66499 19.5847 4.81401 19.6465 4.96941 19.6465C5.62863 19.6469 7.54152 19.7491 8.46512 20.2109C8.60356 20.2759 8.76196 20.2843 8.90647 20.2341C9.05099 20.184 9.17018 20.0793 9.23859 19.9425C9.307 19.8057 9.31921 19.6476 9.27261 19.5019C9.22601 19.3562 9.12429 19.2345 8.98918 19.1627ZM3.09082 30.3735C2.93542 30.3735 2.78638 30.4352 2.6765 30.5451C2.56662 30.655 2.50488 30.8041 2.50488 30.9595V34.717C2.50488 34.8724 2.56662 35.0215 2.6765 35.1314C2.78638 35.2412 2.93542 35.303 3.09082 35.303C3.24622 35.303 3.39526 35.2412 3.50514 35.1314C3.61503 35.0215 3.67676 34.8724 3.67676 34.717V30.9595C3.67676 30.8041 3.61503 30.655 3.50514 30.5451C3.39526 30.4352 3.24622 30.3735 3.09082 30.3735Z" fill="#2B2A29"/>
<path d="M38.6374 28.1856L36.2646 26.9993C36.2579 26.996 36.2522 26.9908 36.2483 26.9845C36.2443 26.9781 36.2423 26.9707 36.2423 26.9632L36.2424 25.7707C37.2165 25.1 37.9059 24.0396 38.0784 22.7953C38.5166 22.0382 38.7474 21.183 38.7474 20.3135C38.7474 18.692 37.9666 17.2497 36.7616 16.342C36.8325 16.1067 36.8686 15.8623 36.8687 15.6165C36.8687 14.0848 35.482 12.8387 33.7777 12.8387C32.0735 12.8387 30.6868 14.0848 30.6868 15.6165C30.6868 15.8644 30.7229 16.1072 30.7935 16.3422C30.0691 16.8879 29.507 17.6205 29.1674 18.4615C29.0221 17.0342 28.8709 15.3469 28.7258 13.3815C28.5344 10.7882 27.6017 8.5982 26.0288 7.04835C24.4678 5.51023 22.383 4.69727 20 4.69727C17.6169 4.69727 15.5322 5.51023 13.9713 7.04828C12.3983 8.5982 11.4657 10.7882 11.2743 13.3814C11.226 14.0357 11.1746 14.6898 11.1201 15.3437H5.596C3.54632 15.3437 1.87875 17.0112 1.87875 19.0609V19.0958C1.87875 19.5732 1.99156 20.0512 2.20507 20.4782L2.50499 21.0781V22.0347C2.50499 23.5508 3.2521 24.9112 4.38374 25.7299V26.5761C4.38357 26.6292 4.36621 26.6807 4.33426 26.7231C4.30232 26.7654 4.25751 26.7963 4.20655 26.8111L1.78757 27.5022C0.735077 27.8028 0 28.7774 0 29.872V34.7174C0 34.8728 0.0617324 35.0218 0.171617 35.1317C0.281501 35.2416 0.430536 35.3033 0.585936 35.3033C0.741336 35.3033 0.890372 35.2416 1.00026 35.1317C1.11014 35.0218 1.17187 34.8728 1.17187 34.7174V29.872C1.17187 29.2978 1.5575 28.7866 2.10953 28.6289L4.52858 27.9377C4.61459 27.9128 4.698 27.8797 4.77765 27.8388L6.26257 29.3237V34.7174C6.26257 34.8728 6.3243 35.0218 6.43418 35.1317C6.54407 35.2416 6.6931 35.3033 6.8485 35.3033C7.0039 35.3033 7.15294 35.2416 7.26282 35.1317C7.37271 35.0218 7.43444 34.8728 7.43444 34.7174V29.3237L8.92975 27.8284C9.12959 27.9264 9.32873 27.9835 9.47467 28.0252L10.0687 28.1949C9.26373 28.7672 8.76764 29.7007 8.76764 30.713V34.7172C8.76764 34.8726 8.82937 35.0216 8.93926 35.1315C9.04914 35.2414 9.19817 35.3031 9.35357 35.3031C9.50898 35.3031 9.65801 35.2414 9.76789 35.1315C9.87778 35.0216 9.93951 34.8726 9.93951 34.7172V30.713C9.93965 30.341 10.0478 29.9771 10.2509 29.6655C10.4539 29.3539 10.7431 29.1079 11.0833 28.9575L14.4333 27.4779C14.9493 28.5126 15.7436 29.3828 16.727 29.9908C17.7104 30.5987 18.8439 30.9203 20 30.9194C22.3807 30.9194 24.5186 29.5832 25.5678 27.4784L28.9167 28.9575C29.2569 29.1079 29.5461 29.3539 29.7492 29.6655C29.9523 29.9771 30.0604 30.341 30.0606 30.713V34.7172C30.0606 34.8726 30.1223 35.0216 30.2322 35.1315C30.3421 35.2414 30.4911 35.3031 30.6465 35.3031C30.8019 35.3031 30.9509 35.2414 31.0608 35.1315C31.1707 35.0216 31.2324 34.8726 31.2324 34.7172V30.713C31.2324 29.9635 30.96 29.2574 30.4924 28.7085L31.3992 28.2551L32.0799 28.902C32.5375 29.3382 33.1456 29.5812 33.7778 29.5806C34.3886 29.5806 34.9997 29.3543 35.4756 28.902L36.1563 28.2552L38.1134 29.2337C38.5543 29.4541 38.8281 29.8972 38.8281 30.3901V34.7173C38.8281 34.8727 38.8899 35.0217 38.9997 35.1316C39.1096 35.2415 39.2587 35.3032 39.4141 35.3032C39.5695 35.3032 39.7185 35.2415 39.8284 35.1316C39.9383 35.0217 40 34.8727 40 34.7173V30.3901C39.9999 29.4506 39.4778 28.6058 38.6374 28.1856ZM33.7777 14.0105C34.8358 14.0105 35.6967 14.7309 35.6967 15.6165C35.6967 15.6536 35.6938 15.6904 35.6908 15.7271C35.0849 15.4734 34.4345 15.3431 33.7777 15.3437C33.1209 15.3431 32.4706 15.4734 31.8649 15.727C31.8618 15.6903 31.8586 15.6536 31.8586 15.6165C31.8586 14.7309 32.7195 14.0105 33.7777 14.0105ZM6.84858 28.2525L5.51343 26.9173C5.541 26.8073 5.55577 26.6928 5.55577 26.5761V26.3289C5.97339 26.4667 6.41044 26.5366 6.85022 26.5357C7.28792 26.536 7.72316 26.4702 8.14123 26.3406V26.5758C8.14123 26.7029 8.15428 26.8182 8.17748 26.9235L6.84858 28.2525ZM6.75053 25.3622C5.05569 25.3115 3.67687 23.8187 3.67687 22.0347V20.9397C3.67687 20.8488 3.65569 20.7591 3.61499 20.6777L3.2532 19.9541C3.12033 19.6875 3.05099 19.3937 3.05062 19.0958V19.0609C3.05062 17.6574 4.19249 16.5155 5.596 16.5155H10.6465V18.9479C10.6465 19.341 10.5536 19.7347 10.3777 20.0862L10.082 20.6776C10.0413 20.759 10.0201 20.8487 10.0201 20.9397V22.1922C10.0201 23.0573 9.67811 23.8657 9.05701 24.4684C8.43623 25.0707 7.61663 25.3885 6.75053 25.3622ZM11.6476 27.4272L9.79662 26.8984C9.31303 26.7603 9.31311 26.7064 9.31311 26.576L9.31326 25.7687C9.51224 25.6313 9.69954 25.4776 9.87326 25.3094C9.99025 25.1955 10.1008 25.0753 10.2045 24.9492C10.3003 25.1441 10.4471 25.3095 10.6294 25.4276C11.0991 25.7318 11.9854 26.237 13.2889 26.7023L11.6476 27.4272ZM20 29.7476C19.0709 29.7484 18.1597 29.4927 17.3667 29.0086C16.5738 28.5246 15.9299 27.8309 15.506 27.0043L16.3589 26.6275C16.6848 26.4835 16.9618 26.2478 17.1563 25.9493C17.3508 25.6508 17.4545 25.3021 17.4546 24.9458V23.5399C18.2418 23.8562 19.1009 24.0307 20 24.0307C20.899 24.0307 21.758 23.8562 22.5453 23.5399V24.9458C22.5455 25.3021 22.6491 25.6508 22.8436 25.9493C23.0381 26.2479 23.3151 26.4835 23.641 26.6275L24.4938 27.0042C23.6334 28.6838 21.9135 29.7476 20 29.7476ZM25.0807 25.9823L24.1145 25.5555C23.9963 25.5033 23.8959 25.4178 23.8253 25.3096C23.7548 25.2013 23.7173 25.0749 23.7172 24.9457V22.9313C25.6002 21.7097 26.8485 19.589 26.8485 17.1821V16.0834C26.8485 15.3694 26.5449 14.6958 26.0156 14.2354C24.8383 13.2115 22.1734 11.4248 17.5532 10.9627C17.4767 10.9551 17.3994 10.9626 17.3257 10.9848C17.252 11.007 17.1835 11.0436 17.1239 11.0923C17.0643 11.141 17.015 11.201 16.9786 11.2688C16.9422 11.3366 16.9196 11.4109 16.9119 11.4875C16.9043 11.5641 16.9118 11.6414 16.934 11.715C16.9562 11.7887 16.9928 11.8573 17.0415 11.9168C17.0902 11.9764 17.1502 12.0258 17.218 12.0621C17.2858 12.0985 17.3601 12.1212 17.4367 12.1288C21.7339 12.5585 24.1743 14.1872 25.2466 15.1197C25.5199 15.3574 25.6767 15.7087 25.6767 16.0834V17.1821C25.6767 20.3122 23.1301 22.8587 20 22.8587C16.87 22.8587 14.3234 20.3122 14.3234 17.1821V16.6919C14.3234 16.4668 14.4483 16.2605 14.6573 16.1401C15.3899 15.7183 16.356 14.9369 16.7984 13.6098C16.8475 13.4624 16.8361 13.3015 16.7666 13.1625C16.6971 13.0235 16.5752 12.9178 16.4278 12.8687C16.2803 12.8195 16.1194 12.831 15.9804 12.9005C15.8414 12.97 15.7357 13.0918 15.6866 13.2393C15.3607 14.2171 14.629 14.8042 14.0725 15.1246C13.5044 15.4517 13.1515 16.0523 13.1515 16.692V17.1822C13.1515 19.5891 14.3997 21.7097 16.2828 22.9314V24.9458C16.2827 25.075 16.2452 25.2014 16.1746 25.3097C16.1041 25.4179 16.0037 25.5033 15.8855 25.5556L14.9192 25.9824C13.032 25.4775 11.8228 24.8043 11.2663 24.444C11.2552 24.4368 11.249 24.4286 11.2521 24.4101C11.4565 23.202 11.9816 19.7172 12.443 13.4677C12.6132 11.1619 13.4261 9.23062 14.7938 7.88296C16.1309 6.56554 17.9311 5.86914 20 5.86914C22.0688 5.86914 23.869 6.56554 25.2061 7.88296C26.5739 9.23062 27.3867 11.1618 27.557 13.4676C28.0183 19.7169 28.5435 23.2018 28.7479 24.41C28.751 24.4286 28.7448 24.4368 28.7336 24.444C28.1763 24.8047 26.9671 25.4775 25.0807 25.9823ZM31.313 26.9632C31.313 26.9707 31.311 26.978 31.307 26.9844C31.3031 26.9908 31.2974 26.9959 31.2907 26.9993L29.4549 27.9171C29.4331 27.9069 29.4122 27.8954 29.3902 27.8857L26.7112 26.7025C28.014 26.2373 28.9002 25.7323 29.3705 25.4278C29.5682 25.2998 29.724 25.1167 29.8187 24.9011C29.9135 24.6855 29.9429 24.4468 29.9034 24.2146L29.8895 24.132C30.2174 24.7901 30.7072 25.354 31.313 25.7707V26.9632ZM34.6681 28.0526C34.1688 28.5273 33.3865 28.5272 32.887 28.0526L32.3424 27.5351C32.4362 27.3591 32.4851 27.1626 32.4848 26.9632V26.3396C32.9034 26.4697 33.3392 26.5357 33.7776 26.5357C34.227 26.5357 34.6612 26.4666 35.0703 26.3396L35.0702 26.963C35.0702 27.1676 35.1207 27.3629 35.2127 27.5352L34.6681 28.0526ZM33.7777 25.3637C32.1553 25.3637 30.8003 24.1489 30.6259 22.5379C30.6165 22.4515 30.5881 22.3683 30.5427 22.2943C30.1744 21.6946 29.9798 21.0096 29.9798 20.3133C29.9798 18.2193 31.6835 16.5155 33.7777 16.5155C35.8718 16.5155 37.5756 18.2193 37.5756 20.3134C37.5752 20.7163 37.5102 21.1164 37.3829 21.4986C35.7191 19.8084 32.7924 19.146 32.6513 19.1149C32.5657 19.0961 32.4769 19.0967 32.3916 19.1167C32.3063 19.1367 32.2265 19.1756 32.1582 19.2305C32.0899 19.2854 32.0348 19.3549 31.9969 19.4339C31.959 19.5129 31.9393 19.5994 31.9392 19.6871C31.9392 19.6909 31.9125 20.0974 31.4846 20.5253C31.3748 20.6352 31.313 20.7842 31.313 20.9396C31.313 21.095 31.3748 21.244 31.4846 21.3539C31.5945 21.4637 31.7435 21.5255 31.8989 21.5255C32.0543 21.5255 32.2033 21.4637 32.3132 21.3539C32.6427 21.0243 32.8363 20.6899 32.9499 20.4075C33.9359 20.7004 35.9822 21.44 36.9006 22.7384C36.6399 24.2485 35.3318 25.3637 33.7777 25.3637Z" fill="#2B2A29"/>
<path d="M36.9092 31.1484C36.7538 31.1484 36.6047 31.2102 36.4949 31.3201C36.385 31.4299 36.3232 31.579 36.3232 31.7344V34.7177C36.3232 34.8731 36.385 35.0222 36.4949 35.1321C36.6047 35.2419 36.7538 35.3037 36.9092 35.3037C37.0646 35.3037 37.2136 35.2419 37.3235 35.1321C37.4334 35.0222 37.4951 34.8731 37.4951 34.7177V31.7344C37.4951 31.579 37.4334 31.4299 37.3235 31.3201C37.2136 31.2102 37.0646 31.1484 36.9092 31.1484Z" fill="#2B2A29"/>
</svg>
