<svg width="40" height="40" viewBox="0 0 40 40" fill="none" xmlns="http://www.w3.org/2000/svg">
<g clip-path="url(#clip0_228_100)">
<path d="M34.5312 21.2501C33.177 21.2501 32.3333 19.8647 31.5208 18.5314C31.0104 17.698 30.3229 16.5626 29.8437 16.5626C29.3646 16.5626 28.6771 17.698 28.1666 18.5314C27.3541 19.8647 26.5104 21.2501 25.1562 21.2501C23.8021 21.2501 22.9583 19.8647 22.1458 18.5314C21.6354 17.698 20.9479 16.5626 20.4687 16.5626C20.0417 16.5626 19.6875 16.2085 19.6875 15.7814C19.6875 15.3543 20.0417 15.0001 20.4687 15.0001C21.8229 15.0001 22.6667 16.3856 23.4792 17.7189C23.9896 18.5522 24.6771 19.6876 25.1562 19.6876C25.6354 19.6876 26.3229 18.5522 26.8333 17.7189C27.6458 16.3856 28.4896 15.0001 29.8437 15.0001C31.1979 15.0001 32.0416 16.3856 32.8541 17.7189C33.3645 18.5522 34.052 19.6876 34.5312 19.6876C35.0104 19.6876 35.6979 18.5522 36.2083 17.7189C37.0208 16.3856 37.8645 15.0001 39.2187 15.0001C39.6458 15.0001 39.9999 15.3543 39.9999 15.7814C39.9999 16.2085 39.6458 16.5626 39.2187 16.5626C38.7395 16.5626 38.052 17.698 37.5416 18.5314C36.7291 19.8647 35.8854 21.2501 34.5312 21.2501Z" fill="#2B2A29"/>
<path d="M34.5312 28.2813C33.177 28.2813 32.3333 26.8959 31.5208 25.5626C31.0104 24.7293 30.3229 23.5939 29.8437 23.5939C29.3646 23.5939 28.6771 24.7293 28.1666 25.5626C27.3541 26.8959 26.5104 28.2813 25.1562 28.2813C23.8021 28.2813 22.9583 26.8959 22.1458 25.5626C21.6354 24.7293 20.9479 23.5939 20.4687 23.5939C20.0417 23.5939 19.6875 23.2397 19.6875 22.8126C19.6875 22.3855 20.0417 22.0314 20.4687 22.0314C21.8229 22.0314 22.6667 23.4168 23.4792 24.7501C23.9896 25.5834 24.6771 26.7188 25.1562 26.7188C25.6354 26.7188 26.3229 25.5834 26.8333 24.7501C27.6458 23.4168 28.4896 22.0314 29.8437 22.0314C31.1979 22.0314 32.0416 23.4168 32.8541 24.7501C33.3645 25.5834 34.052 26.7188 34.5312 26.7188C35.0104 26.7188 35.6979 25.5834 36.2083 24.7501C37.0208 23.4168 37.8645 22.0314 39.2187 22.0314C39.6458 22.0314 39.9999 22.3855 39.9999 22.8126C39.9999 23.2397 39.6458 23.5939 39.2187 23.5939C38.7395 23.5939 38.052 24.7293 37.5416 25.5626C36.7291 26.8959 35.8854 28.2813 34.5312 28.2813Z" fill="#2B2A29"/>
<path d="M34.5312 35.3126C33.177 35.3126 32.3333 33.9272 31.5208 32.5938C31.0104 31.7605 30.3229 30.6251 29.8437 30.6251C29.3646 30.6251 28.6771 31.7605 28.1666 32.5938C27.3541 33.9272 26.5104 35.3126 25.1562 35.3126C23.8021 35.3126 22.9583 33.9272 22.1458 32.5938C21.6354 31.7605 20.9479 30.6251 20.4687 30.6251C20.0417 30.6251 19.6875 30.2709 19.6875 29.8438C19.6875 29.4168 20.0417 29.0626 20.4687 29.0626C21.8229 29.0626 22.6667 30.448 23.4792 31.7813C23.9896 32.6147 24.6771 33.7501 25.1562 33.7501C25.6354 33.7501 26.3229 32.6147 26.8333 31.7813C27.6458 30.448 28.4896 29.0626 29.8437 29.0626C31.1979 29.0626 32.0416 30.448 32.8541 31.7813C33.3645 32.6147 34.052 33.7501 34.5312 33.7501C35.0104 33.7501 35.6979 32.6147 36.2083 31.7813C37.0208 30.448 37.8645 29.0626 39.2187 29.0626C39.6458 29.0626 39.9999 29.4168 39.9999 29.8438C39.9999 30.2709 39.6458 30.6251 39.2187 30.6251C38.7395 30.6251 38.052 31.7605 37.5416 32.5938C36.7291 33.9272 35.8854 35.3126 34.5312 35.3126Z" fill="#2B2A29"/>
<path d="M10.625 30.6251H0.781248C0.354166 30.6251 0 30.2709 0 29.8438V0.781418C0 0.354334 0.354166 0.000169754 0.781248 0.000169754H19.9999C20.427 0.000169754 20.7812 0.354334 20.7812 0.781418V6.4064C20.7812 6.83348 20.427 7.18765 19.9999 7.18765C19.5729 7.18765 19.2187 6.83348 19.2187 6.4064V1.56267H1.5625V29.0626H10.625C11.0521 29.0626 11.4062 29.4168 11.4062 29.8438C11.4062 30.2709 11.0521 30.6251 10.625 30.6251Z" fill="#2B2A29"/>
<path d="M20.4687 35.3126H10.625C10.1979 35.3126 9.84375 34.9584 9.84375 34.5313V6.4064C9.84375 5.97932 10.1979 5.62515 10.625 5.62515H29.8437C30.2708 5.62515 30.6249 5.97932 30.6249 6.4064V11.0939C30.6249 11.521 30.2708 11.8751 29.8437 11.8751C29.4166 11.8751 29.0625 11.521 29.0625 11.0939V7.18765H11.4062V33.7501H20.4687C20.8958 33.7501 21.25 34.1042 21.25 34.5313C21.25 34.9584 20.8958 35.3126 20.4687 35.3126Z" fill="#2B2A29"/>
<path d="M20.4687 14.2189H10.625C10.1979 14.2189 9.84375 13.8647 9.84375 13.4376C9.84375 13.0105 10.1979 12.6564 10.625 12.6564H20.4687C20.8958 12.6564 21.25 13.0105 21.25 13.4376C21.25 13.8647 20.8958 14.2189 20.4687 14.2189Z" fill="#2B2A29"/>
<path d="M20.4687 21.2501H10.625C10.1979 21.2501 9.84375 20.896 9.84375 20.4689C9.84375 20.0418 10.1979 19.6876 10.625 19.6876H20.4687C20.8958 19.6876 21.25 20.0418 21.25 20.4689C21.25 20.896 20.8958 21.2501 20.4687 21.2501Z" fill="#2B2A29"/>
<path d="M20.4687 28.2813H10.625C10.1979 28.2813 9.84375 27.9272 9.84375 27.5001C9.84375 27.073 10.1979 26.7188 10.625 26.7188H20.4687C20.8958 26.7188 21.25 27.073 21.25 27.5001C21.25 27.9272 20.8958 28.2813 20.4687 28.2813Z" fill="#2B2A29"/>
<path d="M30.625 39.2188C30.625 39.6459 30.2708 40.0001 29.8437 40.0001C29.4167 40.0001 29.0625 39.6459 29.0625 39.2188C29.0625 38.7917 29.4167 38.4376 29.8437 38.4376C30.2708 38.4376 30.625 38.7917 30.625 39.2188Z" fill="#2B2A29"/>
<path d="M39.2187 40.0001H33.3541C32.9271 40.0001 32.5729 39.6459 32.5729 39.2188C32.5729 38.7917 32.9271 38.4376 33.3541 38.4376H38.4375V11.8751H21.25V38.4376H26.3333C26.7604 38.4376 27.1146 38.7917 27.1146 39.2188C27.1146 39.6459 26.7604 40.0001 26.3333 40.0001H20.4687C20.0417 40.0001 19.6875 39.6459 19.6875 39.2188V11.0939C19.6875 10.6668 20.0417 10.3126 20.4687 10.3126H39.2187C39.6458 10.3126 39.9999 10.6668 39.9999 11.0939V39.2188C39.9999 39.6459 39.6458 40.0001 39.2187 40.0001Z" fill="#2B2A29"/>
</g>
<defs>
<clipPath id="clip0_228_100">
<rect width="40" height="40" fill="white"/>
</clipPath>
</defs>
</svg>
