<svg width="19" height="25" viewBox="0 0 19 25" fill="none" xmlns="http://www.w3.org/2000/svg">
<path d="M13.25 9C13.25 11.1094 11.5625 12.75 9.5 12.75C7.39062 12.75 5.75 11.1094 5.75 9C5.75 6.9375 7.39062 5.25 9.5 5.25C11.5625 5.25 13.25 6.9375 13.25 9ZM9.5 11.25C10.7188 11.25 11.75 10.2656 11.75 9C11.75 7.78125 10.7188 6.75 9.5 6.75C8.23438 6.75 7.25 7.78125 7.25 9C7.25 10.2656 8.23438 11.25 9.5 11.25ZM18.5 9C18.5 13.125 13.0156 20.3906 10.5781 23.4375C10.0156 24.1406 8.9375 24.1406 8.375 23.4375C5.9375 20.3906 0.5 13.125 0.5 9C0.5 4.03125 4.48438 0 9.5 0C14.4688 0 18.5 4.03125 18.5 9ZM9.5 1.5C5.32812 1.5 2 4.875 2 9C2 9.75 2.23438 10.7344 2.75 12C3.26562 13.2188 3.96875 14.5312 4.8125 15.8438C6.40625 18.4219 8.28125 20.9062 9.5 22.4062C10.6719 20.9062 12.5469 18.4219 14.1406 15.8438C14.9844 14.5312 15.6875 13.2188 16.2031 12C16.7188 10.7344 17 9.75 17 9C17 4.875 13.625 1.5 9.5 1.5Z" fill="#2B2A29"/>
</svg>
