<svg width="84" height="73" viewBox="0 0 84 73" fill="none" xmlns="http://www.w3.org/2000/svg">
<g clip-path="url(#clip0_314_8038)">
<path fill-rule="evenodd" clip-rule="evenodd" d="M81.8429 11.7374L66.7642 7.47544C65.9921 7.27032 65.0156 8.97965 65.0156 9.80013V25.3665C65.0156 26.187 65.6515 26.9619 66.4236 27.1442L80.0489 30.2894L81.8429 30.2666C82.6377 30.2666 83.1373 29.8791 83.2508 29.0586C83.9094 24.6827 83.9094 20.398 83.2508 16.911V13.4923C83.2508 12.6946 82.615 11.9425 81.8429 11.7374Z" fill="url(#paint0_linear_314_8038)"/>
<path fill-rule="evenodd" clip-rule="evenodd" d="M81.797 11.9652L66.6956 7.72601C66.6729 7.72601 66.6502 7.72601 66.6275 7.72601C66.4004 7.72601 66.1506 7.95393 65.9008 8.273C65.6283 8.61487 65.4239 9.0479 65.3104 9.43535C65.265 9.59489 65.2423 9.73163 65.2423 9.84559V25.4119C65.2423 25.7538 65.3785 26.0957 65.6056 26.392C65.8327 26.6654 66.1279 26.8934 66.4685 26.9617L80.0711 30.1069L81.8424 30.0841C82.1831 30.0841 82.4556 29.993 82.6599 29.8334C82.8416 29.6739 82.9779 29.4232 83.0233 29.0813C83.3639 26.8934 83.5229 24.751 83.5229 22.6998C83.5229 20.6714 83.3639 18.7341 83.0233 17.002V16.9792V13.515C83.0233 13.1731 82.887 12.8312 82.6827 12.5805C82.4556 12.2842 82.1376 12.0563 81.797 11.9652ZM66.8319 7.2474L81.9333 11.4866C82.3647 11.6005 82.7735 11.8968 83.0687 12.2614C83.3412 12.6033 83.5229 13.0363 83.5229 13.4922V16.888C83.8635 18.643 84.0225 20.5802 84.0225 22.6542C84.0225 24.7282 83.8635 26.8934 83.5229 29.1041C83.4548 29.5599 83.2731 29.9018 83.0006 30.1525C82.7281 30.4032 82.342 30.5171 81.8878 30.5171L80.0484 30.5399L66.3777 27.3492C65.9462 27.258 65.5375 26.9845 65.2423 26.6199C64.947 26.2552 64.7881 25.8222 64.7881 25.3436V9.80001C64.7881 9.64047 64.8108 9.45814 64.8789 9.27581C64.9925 8.84278 65.2423 8.34138 65.5375 7.95393C65.8554 7.54369 66.2415 7.22461 66.6275 7.22461C66.6956 7.22461 66.7638 7.22461 66.8319 7.2474Z" fill="#2B2A29"/>
<path fill-rule="evenodd" clip-rule="evenodd" d="M2.22535 11.7375L17.3267 7.49839C18.0988 7.29327 19.0753 9.0026 19.0753 9.82308V25.3894C19.0753 26.2099 18.4395 26.9848 17.6674 27.1671L4.04206 30.3123L2.24806 30.2895C1.45325 30.2895 0.953653 29.9021 0.840109 29.0816C0.181552 24.7057 0.181552 20.421 0.840109 16.9339V13.5152C0.8174 12.6948 1.45325 11.9427 2.22535 11.7375Z" fill="url(#paint1_linear_314_8038)"/>
<path fill-rule="evenodd" clip-rule="evenodd" d="M2.15732 11.5093L17.2587 7.2474C17.3268 7.22461 17.395 7.22461 17.4631 7.22461C17.8491 7.22461 18.2352 7.52089 18.5531 7.95393C18.8483 8.34138 19.0981 8.84278 19.2117 9.27581C19.2571 9.45814 19.3025 9.64047 19.3025 9.80001V25.3664C19.3025 25.8222 19.1208 26.278 18.8483 26.6427C18.5531 27.0073 18.1671 27.2808 17.7129 27.372L4.06487 30.5399L2.22545 30.5171C1.77127 30.5171 1.38522 30.4032 1.11272 30.1525C0.840212 29.9246 0.658541 29.5827 0.590415 29.1041C0.249782 26.8934 0.0908203 24.7282 0.0908203 22.6542C0.0908203 20.603 0.249782 18.643 0.590415 16.888V13.515C0.590415 13.0591 0.772085 12.6261 1.04459 12.2842C1.3171 11.8968 1.72586 11.6233 2.15732 11.5093ZM17.3722 7.70322L2.29358 11.9652C1.95295 12.0563 1.63502 12.2842 1.40793 12.5577C1.20355 12.8312 1.0673 13.1503 1.0673 13.4922V16.9336V16.9564C0.726668 18.6885 0.567706 20.603 0.567706 22.6542C0.567706 24.7054 0.726668 26.8478 1.0673 29.0357C1.11272 29.3776 1.24897 29.6283 1.43064 29.7878C1.63502 29.9474 1.90753 30.0385 2.24816 30.0385L4.01945 30.0613L17.5993 26.8934C17.94 26.825 18.2352 26.5971 18.4623 26.3236C18.6894 26.0501 18.8256 25.7082 18.8256 25.3436V9.80001C18.8256 9.68605 18.8029 9.5493 18.7575 9.38977C18.6439 9.00232 18.4396 8.56929 18.1671 8.22742C17.94 7.90834 17.6675 7.68043 17.4404 7.68043C17.4177 7.70322 17.395 7.70322 17.3722 7.70322Z" fill="#2B2A29"/>
<path fill-rule="evenodd" clip-rule="evenodd" d="M5.01881 16.4322L3.47461 16.5233C3.61086 16.4778 3.74712 16.4094 3.88337 16.3638C5.99529 15.5205 8.22076 14.6773 10.3327 13.834C31.5427 13.8112 52.7755 13.8112 73.9856 13.834C76.1656 14.7228 78.3002 15.5433 80.4803 16.4322L79.0042 16.4778L76.8469 15.5205L76.2337 15.2698L73.8947 14.3126H10.4235L5.01881 16.4322Z" fill="#2B2A29"/>
<path fill-rule="evenodd" clip-rule="evenodd" d="M5.01887 16.4781L3.11133 16.5693L3.88343 16.273C4.90533 15.8627 5.94993 15.4525 6.99454 15.065C8.12998 14.632 9.24271 14.199 10.3327 13.766H10.3554C21.0513 13.7432 31.6336 13.7432 42.0797 13.7432C52.5939 13.7432 63.2443 13.7432 74.0083 13.766H74.031H74.0537C75.0984 14.199 76.143 14.6092 77.2103 15.0195C78.323 15.4525 79.4357 15.8855 80.5485 16.3641L80.821 16.4781C80.2305 16.5009 79.6401 16.5237 79.027 16.5237L76.8469 15.5665L73.8948 14.3585H10.4463L5.01887 16.4781ZM3.86072 16.4325L4.99616 16.3641L10.4009 14.2446C31.5655 14.1306 52.7529 14.2446 73.9175 14.2446C75.6661 14.9511 77.3011 15.6576 79.027 16.4097L80.1851 16.3641C79.1632 15.9539 78.1413 15.5437 77.1194 15.1334C76.0748 14.7232 75.0529 14.3129 73.9856 13.8799C63.4714 13.8571 52.821 13.8571 42.0797 13.8571C31.3838 13.8571 20.8242 13.8571 10.3554 13.8799C9.26542 14.3129 8.15269 14.746 7.01725 15.179C5.97264 15.5892 4.92804 15.9995 3.90614 16.3869L3.86072 16.4325Z" fill="#2B2A29"/>
<path fill-rule="evenodd" clip-rule="evenodd" d="M10.7866 0.228027H40.5806C41.4436 0.228027 42.1475 0.934553 42.1475 1.80062V12.4669C42.1475 13.3329 41.4436 14.0395 40.5806 14.0395H10.7866C9.9237 14.0395 9.21973 13.3329 9.21973 12.4669V1.80062C9.21973 0.934553 9.9237 0.228027 10.7866 0.228027Z" fill="url(#paint2_linear_314_8038)"/>
<path fill-rule="evenodd" clip-rule="evenodd" d="M10.7867 0H40.5807C41.0803 0 41.5344 0.20512 41.8524 0.524196C42.1703 0.843272 42.3747 1.29909 42.3747 1.8005V12.4668C42.3747 12.9682 42.1703 13.424 41.8524 13.7431C41.5344 14.0621 41.0803 14.2673 40.5807 14.2673H10.7867C10.2871 14.2673 9.8329 14.0621 9.51498 13.7431C9.19706 13.424 8.99268 12.9682 8.99268 12.4668V1.8005C8.99268 1.29909 9.19706 0.843272 9.51498 0.524196C9.85561 0.20512 10.2871 0 10.7867 0ZM40.5807 0.478614H10.7867C10.4233 0.478614 10.0827 0.638152 9.85561 0.866063C9.60582 1.11677 9.46956 1.43584 9.46956 1.8005V12.4668C9.46956 12.8314 9.62852 13.1733 9.85561 13.4012C10.1054 13.6519 10.4233 13.7886 10.7867 13.7886H40.5807C40.944 13.7886 41.2846 13.6291 41.5117 13.4012C41.7615 13.1505 41.8978 12.8314 41.8978 12.4668V1.8005C41.8978 1.43584 41.7388 1.09397 41.5117 0.866063C41.2846 0.615361 40.944 0.478614 40.5807 0.478614Z" fill="#2B2A29"/>
<path fill-rule="evenodd" clip-rule="evenodd" d="M40.7622 14.0623H43.5781C42.806 14.0623 42.1702 13.4469 42.1702 12.6948C42.1474 13.4469 41.5343 14.0623 40.7622 14.0623Z" fill="#2B2A29"/>
<path fill-rule="evenodd" clip-rule="evenodd" d="M41.3529 13.9939H42.9652C42.8063 13.9255 42.6473 13.8116 42.5337 13.6976C42.3748 13.5381 42.2385 13.333 42.1704 13.1051C42.1023 13.333 41.966 13.5381 41.8071 13.6976C41.6708 13.8116 41.5118 13.9255 41.3529 13.9939ZM43.5556 13.9939V14.1307H40.7397V13.9939C41.1031 13.9939 41.4437 13.8572 41.6935 13.6065C41.9433 13.3786 42.0796 13.0367 42.0796 12.6948H42.2158C42.2158 13.0595 42.3748 13.3786 42.6019 13.6065C42.8517 13.8572 43.1923 13.9939 43.5556 13.9939Z" fill="#2B2A29"/>
<path fill-rule="evenodd" clip-rule="evenodd" d="M43.5781 0.228027H73.3721C74.2351 0.228027 74.939 0.934553 74.939 1.80062V12.4669C74.939 13.3329 74.2351 14.0395 73.3721 14.0395H43.5781C42.7152 14.0395 42.0112 13.3329 42.0112 12.4669V1.80062C42.0112 0.934553 42.7152 0.228027 43.5781 0.228027Z" fill="url(#paint3_linear_314_8038)"/>
<path fill-rule="evenodd" clip-rule="evenodd" d="M43.5782 0H73.3722C73.8718 0 74.326 0.20512 74.6439 0.524196C74.9618 0.843272 75.1662 1.29909 75.1662 1.8005V12.4668C75.1662 12.9682 74.9618 13.424 74.6439 13.7431C74.326 14.0621 73.8718 14.2673 73.3722 14.2673H43.5782C43.0786 14.2673 42.6244 14.0621 42.3065 13.7431C41.9886 13.424 41.7842 12.9682 41.7842 12.4668V1.8005C41.7842 1.29909 41.9886 0.843272 42.3065 0.524196C42.6244 0.20512 43.0786 0 43.5782 0ZM73.3722 0.478614H43.5782C43.2148 0.478614 42.8742 0.638152 42.6471 0.866063C42.3973 1.11677 42.2611 1.43584 42.2611 1.8005V12.4668C42.2611 12.8314 42.42 13.1733 42.6471 13.4012C42.8969 13.6519 43.2148 13.7886 43.5782 13.7886H73.3722C73.7355 13.7886 74.0762 13.6291 74.3032 13.4012C74.553 13.1505 74.6893 12.8314 74.6893 12.4668V1.8005C74.6893 1.43584 74.5303 1.09397 74.3032 0.866063C74.0534 0.615361 73.7355 0.478614 73.3722 0.478614Z" fill="#2B2A29"/>
<path fill-rule="evenodd" clip-rule="evenodd" d="M79.4128 16.3413V27.7369C79.4128 28.4434 79.1857 29.1043 78.845 29.583C78.4817 30.0616 78.0048 30.3579 77.4598 30.3579H6.74446C6.19945 30.3579 5.72257 30.0616 5.35922 29.583C4.99588 29.1043 4.7915 28.4662 4.7915 27.7369V16.3413H4.92776V27.7369C4.92776 28.3978 5.13214 29.0132 5.47277 29.4462C5.8134 29.8792 6.26758 30.1527 6.76717 30.1527H77.4825C77.9821 30.1527 78.4363 29.8792 78.7769 29.4462C79.1175 29.0132 79.3219 28.3978 79.3219 27.7369V16.3413H79.4128Z" fill="#2B2A29"/>
<path fill-rule="evenodd" clip-rule="evenodd" d="M79.3449 16.3413V27.7369C79.3449 29.1271 78.5046 30.2439 77.46 30.2439H6.7447C5.70009 30.2439 4.85986 29.1043 4.85986 27.7369V16.3413H79.3449Z" fill="url(#paint4_linear_314_8038)"/>
<path fill-rule="evenodd" clip-rule="evenodd" d="M79.6628 16.341V27.7366C79.6628 28.4887 79.4357 29.1952 79.0497 29.6967C78.6409 30.2208 78.0959 30.5627 77.4601 30.5627H6.74475C6.13161 30.5627 5.56389 30.2208 5.15513 29.6967C4.76908 29.1952 4.54199 28.4887 4.54199 27.7366V16.0448L5.17784 16.6829V27.7594C5.17784 28.3748 5.35951 28.9445 5.67743 29.3548C5.94994 29.7422 6.33599 29.9701 6.76746 29.9701H77.4828C77.8915 29.9701 78.2776 29.7422 78.5728 29.3548C78.868 28.9445 79.0724 28.3976 79.0724 27.7594V16.6601L79.7083 16.022V16.341H79.6628Z" fill="#2B2A29"/>
<path d="M46.0987 21.6743H38.2188V23.6799H46.0987V21.6743Z" fill="#2B2A29"/>
<path fill-rule="evenodd" clip-rule="evenodd" d="M38.219 21.606H46.1671V23.7483H38.1509V21.606H38.219ZM46.0308 21.7199H38.2644V23.5888H46.0308V21.7199Z" fill="#2B2A29"/>
<path d="M45.5766 22.2671H38.6504V24.2727H45.5766V22.2671Z" fill="#2B2A29"/>
<path fill-rule="evenodd" clip-rule="evenodd" d="M38.6506 22.2212H45.645V24.3636H38.5825V22.2212H38.6506ZM45.5087 22.3351H38.7188V24.204H45.5087V22.3351Z" fill="#2B2A29"/>
<path d="M83.137 60.5562H0.13623V62.3339H83.137V60.5562Z" fill="#F8D000" stroke="#F8D000" stroke-width="0.5669" stroke-miterlimit="22.9256"/>
<path fill-rule="evenodd" clip-rule="evenodd" d="M1.90754 56.5447C0.635847 55.4279 0 53.673 0 51.2343C0 48.8185 0.635847 47.0408 1.90754 45.924C3.17924 44.8072 5.04136 44.2603 7.49392 44.2603C9.94647 44.2603 11.8086 44.8072 13.0803 45.924C14.352 47.0408 14.9878 48.7957 14.9878 51.2343C14.9878 53.6502 14.352 55.4279 13.0803 56.5447C11.8086 57.6614 9.94647 58.2084 7.49392 58.2084C5.04136 58.2312 3.17924 57.6614 1.90754 56.5447ZM4.45093 47.9068C3.81509 48.6589 3.49716 49.7529 3.49716 51.2343C3.49716 52.7158 3.81509 53.8325 4.45093 54.5618C5.08678 55.314 6.08597 55.6786 7.49392 55.6786C8.90187 55.6786 9.90106 55.314 10.5369 54.5618C11.1727 53.8097 11.468 52.7158 11.468 51.2343C11.468 49.7529 11.15 48.6362 10.5369 47.9068C9.90106 47.1547 8.90187 46.7901 7.49392 46.7901C6.08597 46.7901 5.08678 47.1547 4.45093 47.9068ZM16.8727 45.4454C16.8727 45.1947 16.9635 44.9896 17.1225 44.83C17.3041 44.6477 17.5085 44.5793 17.7356 44.5793H25.2976C26.1379 44.5793 26.91 44.6933 27.614 44.9212C28.3179 45.1491 28.9084 45.5593 29.3852 46.1519C29.8848 46.7445 30.1119 47.4738 30.1119 48.3399C30.1119 49.2971 29.7032 50.1176 28.8629 50.8013C30.0665 51.4395 30.6569 52.4879 30.6569 53.9237C30.6569 55.2 30.18 56.2028 29.2263 56.9093C28.2725 57.6159 27.1144 57.9577 25.7291 57.9577H17.7583C17.5085 57.9577 17.3041 57.8666 17.1452 57.707C16.9635 57.5475 16.8954 57.3424 16.8954 57.0917V45.4454H16.8727ZM20.3698 55.4051H25.6837C26.1606 55.4051 26.5239 55.2684 26.7737 54.9721C27.0235 54.6758 27.1598 54.2884 27.1598 53.7869C27.1598 53.2855 27.0235 52.8981 26.7737 52.6018C26.5239 52.3055 26.1606 52.1688 25.6837 52.1688H20.3698V55.4051ZM20.3698 49.6845H25.3431C25.7291 49.6845 26.047 49.5706 26.2741 49.3427C26.5012 49.1148 26.6375 48.7957 26.6375 48.3855C26.6375 47.9752 26.5239 47.6561 26.2741 47.4282C26.047 47.2003 25.7291 47.0864 25.3431 47.0864H20.3698V49.6845ZM32.5645 57.0689V45.4454C32.5645 45.1947 32.6553 44.9896 32.8143 44.83C32.9732 44.6477 33.1776 44.5793 33.4274 44.5793H36.1752C36.4023 44.5793 36.6294 44.6705 36.8564 44.83C37.1062 45.0124 37.3106 45.2175 37.4469 45.4454L43.1014 54.106V45.4226C43.1014 45.1719 43.1922 44.9668 43.3512 44.8072C43.5101 44.6477 43.7145 44.5565 43.9416 44.5565H45.4858C45.7129 44.5565 45.9173 44.6477 46.0762 44.8072C46.2352 44.9668 46.326 45.1947 46.326 45.4454V57.0689C46.326 57.3196 46.2352 57.5247 46.0762 57.6842C45.9173 57.8666 45.7129 57.9349 45.4631 57.9349H42.4655C42.2384 57.9349 41.9886 57.8438 41.7388 57.6842C41.4891 57.5247 41.2847 57.3196 41.1484 57.0689L36.0843 49.0692V57.0689C36.0843 57.3196 35.9935 57.5247 35.8118 57.6842C35.6302 57.8666 35.4258 57.9349 35.176 57.9349H33.4955C33.2457 57.9349 33.0414 57.8438 32.8597 57.6842C32.6553 57.5019 32.5645 57.2968 32.5645 57.0689ZM50.2092 56.5447C48.9376 55.4279 48.3017 53.673 48.3017 51.2343C48.3017 48.8185 48.9376 47.0408 50.2092 45.924C51.4809 44.8072 53.3431 44.2603 55.7956 44.2603C58.2482 44.2603 60.1103 44.8072 61.382 45.924C62.6537 47.0408 63.2895 48.7957 63.2895 51.2343C63.2895 53.6502 62.6537 55.4279 61.382 56.5447C60.1103 57.6614 58.2482 58.2084 55.7956 58.2084C53.3431 58.2312 51.4809 57.6614 50.2092 56.5447ZM52.7526 47.9068C52.1168 48.6589 51.7989 49.7529 51.7989 51.2343C51.7989 52.7158 52.1168 53.8325 52.7526 54.5618C53.3885 55.314 54.3877 55.6786 55.7956 55.6786C57.2036 55.6786 58.2028 55.314 58.8386 54.5618C59.4745 53.8097 59.7697 52.7158 59.7697 51.2343C59.7697 49.7529 59.4517 48.6362 58.8386 47.9068C58.2028 47.1547 57.2036 46.7901 55.7956 46.7901C54.4104 46.7901 53.3885 47.1547 52.7526 47.9068ZM63.5393 45.3314C63.4939 45.2631 63.4939 45.1947 63.4939 45.1263C63.4939 45.0124 63.5393 44.8984 63.6302 44.8072C63.7664 44.6477 63.9481 44.5565 64.1525 44.5565H66.1963C66.6732 44.5565 67.0592 44.8528 67.309 45.4454L70.897 53.4907L74.485 45.4454C74.7348 44.8528 75.1208 44.5565 75.5977 44.5565H77.6415C77.8686 44.5565 78.0276 44.6477 78.1638 44.8072C78.2547 44.8984 78.3001 45.0124 78.3001 45.1263C78.3001 45.1947 78.2774 45.2631 78.2547 45.3314L72.8727 56.9777C72.5775 57.6159 72.146 57.9349 71.5328 57.9349H70.193C69.6026 57.9349 69.1484 57.6159 68.8532 56.9777L63.5393 45.3314ZM79.7989 57.0689V45.4226C79.7989 45.1719 79.8897 44.9668 80.0487 44.8072C80.2303 44.6249 80.4347 44.5565 80.6618 44.5565H82.3877C82.6375 44.5565 82.8646 44.6477 83.0235 44.8072C83.2052 44.9896 83.2733 45.1947 83.2733 45.4226V57.0461C83.2733 57.2968 83.1825 57.5019 83.0008 57.6614C82.8191 57.8438 82.6148 57.9121 82.365 57.9121H80.6391C80.3893 57.9121 80.1849 57.821 80.026 57.6614C79.8897 57.5247 79.7989 57.3196 79.7989 57.0689Z" fill="#2B2A29"/>
<path fill-rule="evenodd" clip-rule="evenodd" d="M0.431641 72.544V66.4132C0.431641 66.2764 0.477058 66.1625 0.567894 66.0713C0.658729 65.9802 0.772273 65.9346 0.885817 65.9346H3.63359C5.04153 65.9346 6.08614 66.2081 6.72199 66.7778C7.35784 67.3476 7.69847 68.2365 7.69847 69.4444C7.69847 70.6523 7.38055 71.5412 6.72199 72.111C6.08614 72.6807 5.04153 72.9542 3.63359 72.9542H0.908526C0.772273 72.9542 0.681438 72.9087 0.590602 72.8175C0.477058 72.7947 0.431641 72.6807 0.431641 72.544ZM2.29377 71.6096H3.58817C4.47381 71.6096 5.06424 71.45 5.38217 71.131C5.70009 70.8119 5.85905 70.2649 5.85905 69.49C5.85905 68.7151 5.70009 68.1681 5.38217 67.849C5.06424 67.53 4.47381 67.3704 3.58817 67.3704H2.29377V71.6096ZM20.8696 72.544V66.4132C20.8696 66.2764 20.915 66.1853 21.0058 66.0941C21.0967 66.0029 21.2102 65.9574 21.3238 65.9574H22.2321C22.3684 65.9574 22.4819 66.0029 22.5728 66.0941C22.6636 66.1853 22.709 66.2992 22.709 66.4132V72.544C22.709 72.6807 22.6636 72.7719 22.5728 72.8631C22.4819 72.9542 22.3684 72.9998 22.2321 72.9998H21.3238C21.1875 72.9998 21.0967 72.9542 21.0058 72.8631C20.915 72.7947 20.8696 72.6807 20.8696 72.544ZM35.6985 66.3676C35.6758 66.322 35.6758 66.2992 35.6758 66.2537C35.6758 66.1853 35.6985 66.1397 35.7439 66.0941C35.812 66.0029 35.9029 65.9574 36.0164 65.9574H37.0837C37.3335 65.9574 37.5379 66.1169 37.6741 66.4132L39.5817 70.6523L41.4665 66.4132C41.6028 66.1169 41.8071 65.9574 42.0569 65.9574H43.1243C43.2378 65.9574 43.3286 66.0029 43.3968 66.0941C43.4422 66.1397 43.4649 66.2081 43.4649 66.2537C43.4649 66.2992 43.4649 66.322 43.4422 66.3676L40.6263 72.4984C40.4673 72.8403 40.2402 72.9998 39.9223 72.9998H39.2183C38.9004 72.9998 38.6733 72.8403 38.5144 72.4984L35.6985 66.3676ZM54.9329 72.544L56.1591 67.8718C56.4998 66.5955 57.5671 65.9574 59.4065 65.9574H62.0407C62.1543 65.9574 62.2678 66.0029 62.3359 66.0941C62.4268 66.1853 62.4495 66.2992 62.4495 66.4132V72.5668C62.4495 72.7035 62.4041 72.7947 62.3132 72.8859C62.2224 72.977 62.1088 73.0226 61.9953 73.0226H61.0642C60.928 73.0226 60.8144 72.977 60.7236 72.8859C60.6328 72.7947 60.5874 72.6807 60.5874 72.544V71.3133H57.1129L56.7723 72.5668C56.7496 72.7035 56.6587 72.8175 56.5452 72.9087C56.4316 72.9998 56.3181 73.0454 56.1818 73.0454H55.2054C55.0691 73.0454 54.9783 72.9998 54.9101 72.9087C54.8647 72.8403 54.842 72.7719 54.842 72.7035C54.9329 72.6352 54.9329 72.5896 54.9329 72.544ZM57.5444 69.9002H60.6328V67.3248H59.2475C58.9296 67.3248 58.6571 67.416 58.43 67.5983C58.2029 67.7807 58.044 68.0086 57.9531 68.3276L57.5444 69.9002ZM76.0521 72.544V66.4132C76.0521 66.2764 76.0975 66.1853 76.1883 66.0941C76.2792 66.0029 76.3927 65.9574 76.5062 65.9574H77.9596C78.0732 65.9574 78.1867 66.0029 78.323 66.0941C78.4592 66.1853 78.55 66.2992 78.6409 66.4132L81.6385 70.9714V66.3904C81.6385 66.2536 81.6839 66.1625 81.7747 66.0713C81.8655 65.9802 81.9564 65.9346 82.0926 65.9346H82.9101C83.0237 65.9346 83.1372 65.9802 83.2281 66.0713C83.3189 66.1625 83.3643 66.2764 83.3643 66.4132V72.544C83.3643 72.6807 83.3189 72.7719 83.2281 72.8631C83.1372 72.9542 83.0237 72.9998 82.9101 72.9998H81.2978C81.1616 72.9998 81.048 72.9542 80.9118 72.8631C80.7755 72.7719 80.6847 72.658 80.5938 72.544L77.8915 68.3276V72.544C77.8915 72.6807 77.8461 72.7719 77.7552 72.8631C77.6644 72.9542 77.5509 72.9998 77.4146 72.9998H76.529C76.3927 72.9998 76.2792 72.9542 76.1883 72.8631C76.0975 72.7719 76.0521 72.658 76.0521 72.544Z" fill="#2B2A29"/>
</g>
<defs>
<linearGradient id="paint0_linear_314_8038" x1="78.6451" y1="21.2977" x2="68.0132" y2="16.9357" gradientUnits="userSpaceOnUse">
<stop stop-color="#F1D226"/>
<stop offset="1" stop-color="#D67C1B"/>
</linearGradient>
<linearGradient id="paint1_linear_314_8038" x1="5.42802" y1="21.2978" x2="16.0599" y2="16.9359" gradientUnits="userSpaceOnUse">
<stop stop-color="#F1D226"/>
<stop offset="1" stop-color="#D67C1B"/>
</linearGradient>
<linearGradient id="paint2_linear_314_8038" x1="25.629" y1="14.7702" x2="25.7406" y2="0.96633" gradientUnits="userSpaceOnUse">
<stop stop-color="#D67C1B"/>
<stop offset="0.14" stop-color="#F2CB12"/>
<stop offset="1" stop-color="#FBEB2F"/>
</linearGradient>
<linearGradient id="paint3_linear_314_8038" x1="58.405" y1="14.7702" x2="58.5166" y2="0.96633" gradientUnits="userSpaceOnUse">
<stop stop-color="#D67C1B"/>
<stop offset="0.14" stop-color="#F2CB12"/>
<stop offset="1" stop-color="#FBEB2F"/>
</linearGradient>
<linearGradient id="paint4_linear_314_8038" x1="42.2258" y1="29.2071" x2="42.0024" y2="16.1917" gradientUnits="userSpaceOnUse">
<stop stop-color="#F1D226"/>
<stop offset="1" stop-color="#F2CB12"/>
</linearGradient>
<clipPath id="clip0_314_8038">
<rect width="84" height="73" fill="white"/>
</clipPath>
</defs>
</svg>
