<svg width="84" height="73" viewBox="0 0 84 73" fill="none" xmlns="http://www.w3.org/2000/svg">
<g clip-path="url(#clip0_232_104)">
<path fill-rule="evenodd" clip-rule="evenodd" d="M81.8429 11.7374L66.7642 7.47544C65.9921 7.27032 65.0156 8.97965 65.0156 9.80013V25.3665C65.0156 26.187 65.6515 26.9619 66.4236 27.1442L80.0489 30.2894L81.8429 30.2666C82.6377 30.2666 83.1373 29.8791 83.2508 29.0586C83.9094 24.6827 83.9094 20.398 83.2508 16.911V13.4923C83.2508 12.6946 82.615 11.9425 81.8429 11.7374Z" fill="url(#paint0_linear_232_104)"/>
<path fill-rule="evenodd" clip-rule="evenodd" d="M81.797 11.9654L66.6956 7.72626C66.6729 7.72626 66.6502 7.72626 66.6275 7.72626C66.4004 7.72626 66.1506 7.95417 65.9008 8.27325C65.6283 8.61511 65.4239 9.04814 65.3104 9.43559C65.265 9.59513 65.2423 9.73188 65.2423 9.84583V25.4122C65.2423 25.754 65.3785 26.0959 65.6056 26.3922C65.8327 26.6657 66.1279 26.8936 66.4685 26.962L80.0711 30.1072L81.8424 30.0844C82.1831 30.0844 82.4556 29.9932 82.6599 29.8337C82.8416 29.6741 82.9779 29.4234 83.0233 29.0815C83.3639 26.8936 83.5229 24.7512 83.5229 22.7C83.5229 20.6716 83.3639 18.7344 83.0233 17.0022V16.9795V13.5152C83.0233 13.1733 82.887 12.8315 82.6827 12.5808C82.4556 12.2845 82.1376 12.0566 81.797 11.9654ZM66.8319 7.24764L81.9333 11.4868C82.3647 11.6008 82.7735 11.897 83.0687 12.2617C83.3412 12.6036 83.5229 13.0366 83.5229 13.4924V16.8883C83.8635 18.6432 84.0225 20.5805 84.0225 22.6545C84.0225 24.7284 83.8635 26.8936 83.5229 29.1043C83.4548 29.5602 83.2731 29.902 83.0006 30.1527C82.7281 30.4034 82.342 30.5174 81.8878 30.5174L80.0484 30.5402L66.3777 27.3494C65.9462 27.2583 65.5375 26.9848 65.2423 26.6201C64.947 26.2555 64.7881 25.8224 64.7881 25.3438V9.80025C64.7881 9.64071 64.8108 9.45838 64.8789 9.27606C64.9925 8.84302 65.2423 8.34162 65.5375 7.95417C65.8554 7.54393 66.2415 7.22485 66.6275 7.22485C66.6956 7.22485 66.7638 7.22485 66.8319 7.24764Z" fill="#2B2A29"/>
<path fill-rule="evenodd" clip-rule="evenodd" d="M2.22584 11.7375L17.3272 7.49839C18.0993 7.29327 19.0758 9.0026 19.0758 9.82308V25.3894C19.0758 26.2099 18.4399 26.9848 17.6678 27.1671L4.04254 30.3123L2.24855 30.2895C1.45374 30.2895 0.954141 29.9021 0.840597 29.0816C0.182041 24.7057 0.182041 20.421 0.840597 16.9339V13.5152C0.817888 12.6948 1.45374 11.9427 2.22584 11.7375Z" fill="url(#paint1_linear_232_104)"/>
<path fill-rule="evenodd" clip-rule="evenodd" d="M2.15732 11.5096L17.2587 7.24764C17.3268 7.22485 17.395 7.22485 17.4631 7.22485C17.8491 7.22485 18.2352 7.52114 18.5531 7.95417C18.8483 8.34162 19.0981 8.84302 19.2117 9.27606C19.2571 9.45838 19.3025 9.64071 19.3025 9.80025V25.3666C19.3025 25.8224 19.1208 26.2782 18.8483 26.6429C18.5531 27.0076 18.1671 27.281 17.7129 27.3722L4.06487 30.5402L2.22545 30.5174C1.77127 30.5174 1.38522 30.4034 1.11272 30.1527C0.840212 29.9248 0.658541 29.583 0.590415 29.1043C0.249782 26.8936 0.0908203 24.7284 0.0908203 22.6545C0.0908203 20.6032 0.249782 18.6432 0.590415 16.8883V13.5152C0.590415 13.0594 0.772085 12.6264 1.04459 12.2845C1.3171 11.897 1.72586 11.6235 2.15732 11.5096ZM17.3722 7.70347L2.29358 11.9654C1.95295 12.0566 1.63502 12.2845 1.40793 12.558C1.20355 12.8315 1.0673 13.1505 1.0673 13.4924V16.9339V16.9567C0.726668 18.6888 0.567706 20.6032 0.567706 22.6545C0.567706 24.7057 0.726668 26.848 1.0673 29.036C1.11272 29.3778 1.24897 29.6285 1.43064 29.7881C1.63502 29.9476 1.90753 30.0388 2.24816 30.0388L4.01945 30.0616L17.5993 26.8936C17.94 26.8252 18.2352 26.5973 18.4623 26.3238C18.6894 26.0503 18.8256 25.7085 18.8256 25.3438V9.80025C18.8256 9.6863 18.8029 9.54955 18.7575 9.39001C18.6439 9.00256 18.4396 8.56953 18.1671 8.22766C17.94 7.90859 17.6675 7.68068 17.4404 7.68068C17.4177 7.70347 17.395 7.70347 17.3722 7.70347Z" fill="#2B2A29"/>
<path fill-rule="evenodd" clip-rule="evenodd" d="M5.01881 16.4324L3.47461 16.5236C3.61086 16.478 3.74712 16.4096 3.88337 16.364C5.99529 15.5208 8.22076 14.6775 10.3327 13.8342C31.5427 13.8114 52.7755 13.8114 73.9856 13.8342C76.1656 14.7231 78.3002 15.5436 80.4803 16.4324L79.0042 16.478L76.8469 15.5208L76.2337 15.2701L73.8947 14.3128H10.4235L5.01881 16.4324Z" fill="#2B2A29"/>
<path fill-rule="evenodd" clip-rule="evenodd" d="M5.01887 16.4781L3.11133 16.5693L3.88343 16.273C4.90533 15.8627 5.94993 15.4525 6.99454 15.065C8.12998 14.632 9.24271 14.199 10.3327 13.766H10.3554C21.0513 13.7432 31.6336 13.7432 42.0797 13.7432C52.5939 13.7432 63.2443 13.7432 74.0083 13.766H74.031H74.0537C75.0984 14.199 76.143 14.6092 77.2103 15.0195C78.323 15.4525 79.4357 15.8855 80.5485 16.3641L80.821 16.4781C80.2305 16.5009 79.6401 16.5237 79.027 16.5237L76.8469 15.5665L73.8948 14.3585H10.4463L5.01887 16.4781ZM3.86072 16.4325L4.99616 16.3641L10.4009 14.2446C31.5655 14.1306 52.7529 14.2446 73.9175 14.2446C75.6661 14.9511 77.3011 15.6576 79.027 16.4097L80.1851 16.3641C79.1632 15.9539 78.1413 15.5437 77.1194 15.1334C76.0748 14.7232 75.0529 14.3129 73.9856 13.8799C63.4714 13.8571 52.821 13.8571 42.0797 13.8571C31.3838 13.8571 20.8242 13.8571 10.3554 13.8799C9.26542 14.3129 8.15269 14.746 7.01725 15.179C5.97264 15.5892 4.92804 15.9995 3.90614 16.3869L3.86072 16.4325Z" fill="#2B2A29"/>
<path fill-rule="evenodd" clip-rule="evenodd" d="M10.7866 0.228027H40.5806C41.4436 0.228027 42.1475 0.934553 42.1475 1.80062V12.4669C42.1475 13.3329 41.4436 14.0395 40.5806 14.0395H10.7866C9.9237 14.0395 9.21973 13.3329 9.21973 12.4669V1.80062C9.21973 0.934553 9.9237 0.228027 10.7866 0.228027Z" fill="url(#paint2_linear_232_104)"/>
<path fill-rule="evenodd" clip-rule="evenodd" d="M10.7872 0H40.5812C41.0808 0 41.5349 0.20512 41.8529 0.524196C42.1708 0.843272 42.3752 1.29909 42.3752 1.8005V12.4668C42.3752 12.9682 42.1708 13.424 41.8529 13.7431C41.5349 14.0621 41.0808 14.2673 40.5812 14.2673H10.7872C10.2876 14.2673 9.83339 14.0621 9.51547 13.7431C9.19754 13.424 8.99316 12.9682 8.99316 12.4668V1.8005C8.99316 1.29909 9.19754 0.843272 9.51547 0.524196C9.8561 0.20512 10.2876 0 10.7872 0ZM40.5812 0.478614H10.7872C10.4238 0.478614 10.0832 0.638152 9.8561 0.866063C9.6063 1.11677 9.47005 1.43584 9.47005 1.8005V12.4668C9.47005 12.8314 9.62901 13.1733 9.8561 13.4012C10.1059 13.6519 10.4238 13.7886 10.7872 13.7886H40.5812C40.9445 13.7886 41.2851 13.6291 41.5122 13.4012C41.762 13.1505 41.8983 12.8314 41.8983 12.4668V1.8005C41.8983 1.43584 41.7393 1.09397 41.5122 0.866063C41.2851 0.615361 40.9445 0.478614 40.5812 0.478614Z" fill="#2B2A29"/>
<path fill-rule="evenodd" clip-rule="evenodd" d="M40.7627 14.062H43.5786C42.8065 14.062 42.1706 13.4467 42.1706 12.6946C42.1479 13.4467 41.5348 14.062 40.7627 14.062Z" fill="#2B2A29"/>
<path fill-rule="evenodd" clip-rule="evenodd" d="M41.3524 13.9937H42.9647C42.8058 13.9253 42.6468 13.8113 42.5333 13.6974C42.3743 13.5379 42.238 13.3327 42.1699 13.1048C42.1018 13.3327 41.9655 13.5379 41.8066 13.6974C41.6703 13.8113 41.5114 13.9253 41.3524 13.9937ZM43.5552 13.9937V14.1304H40.7393V13.9937C41.1026 13.9937 41.4432 13.8569 41.693 13.6062C41.9428 13.3783 42.0791 13.0364 42.0791 12.6946H42.2153C42.2153 13.0592 42.3743 13.3783 42.6014 13.6062C42.8512 13.8569 43.1918 13.9937 43.5552 13.9937Z" fill="#2B2A29"/>
<path fill-rule="evenodd" clip-rule="evenodd" d="M43.5786 0.228027H73.3726C74.2356 0.228027 74.9395 0.934553 74.9395 1.80062V12.4669C74.9395 13.3329 74.2356 14.0395 73.3726 14.0395H43.5786C42.7157 14.0395 42.0117 13.3329 42.0117 12.4669V1.80062C42.0117 0.934553 42.7157 0.228027 43.5786 0.228027Z" fill="url(#paint3_linear_232_104)"/>
<path fill-rule="evenodd" clip-rule="evenodd" d="M43.5782 0H73.3722C73.8718 0 74.326 0.20512 74.6439 0.524196C74.9618 0.843272 75.1662 1.29909 75.1662 1.8005V12.4668C75.1662 12.9682 74.9618 13.424 74.6439 13.7431C74.326 14.0621 73.8718 14.2673 73.3722 14.2673H43.5782C43.0786 14.2673 42.6244 14.0621 42.3065 13.7431C41.9886 13.424 41.7842 12.9682 41.7842 12.4668V1.8005C41.7842 1.29909 41.9886 0.843272 42.3065 0.524196C42.6244 0.20512 43.0786 0 43.5782 0ZM73.3722 0.478614H43.5782C43.2148 0.478614 42.8742 0.638152 42.6471 0.866063C42.3973 1.11677 42.2611 1.43584 42.2611 1.8005V12.4668C42.2611 12.8314 42.42 13.1733 42.6471 13.4012C42.8969 13.6519 43.2148 13.7886 43.5782 13.7886H73.3722C73.7355 13.7886 74.0762 13.6291 74.3032 13.4012C74.553 13.1505 74.6893 12.8314 74.6893 12.4668V1.8005C74.6893 1.43584 74.5303 1.09397 74.3032 0.866063C74.0534 0.615361 73.7355 0.478614 73.3722 0.478614Z" fill="#2B2A29"/>
<path fill-rule="evenodd" clip-rule="evenodd" d="M79.4132 16.3413V27.7369C79.4132 28.4434 79.1862 29.1043 78.8455 29.583C78.4822 30.0616 78.0053 30.3579 77.4603 30.3579H6.74495C6.19994 30.3579 5.72305 30.0616 5.35971 29.583C4.99637 29.1043 4.79199 28.4662 4.79199 27.7369V16.3413H4.92825V27.7369C4.92825 28.3978 5.13262 29.0132 5.47326 29.4462C5.81389 29.8792 6.26807 30.1527 6.76766 30.1527H77.483C77.9826 30.1527 78.4368 29.8792 78.7774 29.4462C79.118 29.0132 79.3224 28.3978 79.3224 27.7369V16.3413H79.4132Z" fill="#2B2A29"/>
<path fill-rule="evenodd" clip-rule="evenodd" d="M79.3444 16.3413V27.7369C79.3444 29.1271 78.5042 30.2439 77.4595 30.2439H6.74421C5.6996 30.2439 4.85938 29.1043 4.85938 27.7369V16.3413H79.3444Z" fill="url(#paint4_linear_232_104)"/>
<path fill-rule="evenodd" clip-rule="evenodd" d="M79.6628 16.3413V27.7369C79.6628 28.489 79.4357 29.1955 79.0497 29.6969C78.6409 30.2211 78.0959 30.563 77.4601 30.563H6.74475C6.13161 30.563 5.56389 30.2211 5.15513 29.6969C4.76908 29.1955 4.54199 28.489 4.54199 27.7369V16.045L5.17784 16.6832V27.7597C5.17784 28.375 5.35951 28.9448 5.67743 29.355C5.94994 29.7425 6.33599 29.9704 6.76746 29.9704H77.4828C77.8915 29.9704 78.2776 29.7425 78.5728 29.355C78.868 28.9448 79.0724 28.3978 79.0724 27.7597V16.6604L79.7083 16.0222V16.3413H79.6628Z" fill="#2B2A29"/>
<path d="M46.0987 21.6743H38.2188V23.6799H46.0987V21.6743Z" fill="#2B2A29"/>
<path fill-rule="evenodd" clip-rule="evenodd" d="M38.2185 21.606H46.1666V23.7483H38.1504V21.606H38.2185ZM46.0304 21.7199H38.2639V23.5888H46.0304V21.7199Z" fill="#2B2A29"/>
<path d="M45.5766 22.2668H38.6504V24.2725H45.5766V22.2668Z" fill="#2B2A29"/>
<path fill-rule="evenodd" clip-rule="evenodd" d="M38.6502 22.2214H45.6445V24.3638H38.582V22.2214H38.6502ZM45.5082 22.3354H38.7183V24.2043H45.5082V22.3354Z" fill="#2B2A29"/>
<path d="M83.1375 60.5562H0.136719V62.3339H83.1375V60.5562Z" fill="#F8D000" stroke="#F8D000" stroke-width="0.5669" stroke-miterlimit="22.9256"/>
<path fill-rule="evenodd" clip-rule="evenodd" d="M1.90754 56.5449C0.635847 55.4282 0 53.6732 0 51.2346C0 48.8187 0.635847 47.041 1.90754 45.9243C3.17924 44.8075 5.04136 44.2605 7.49392 44.2605C9.94647 44.2605 11.8086 44.8075 13.0803 45.9243C14.352 47.041 14.9878 48.7959 14.9878 51.2346C14.9878 53.6504 14.352 55.4282 13.0803 56.5449C11.8086 57.6617 9.94647 58.2087 7.49392 58.2087C5.04136 58.2315 3.17924 57.6617 1.90754 56.5449ZM4.45093 47.9071C3.81509 48.6592 3.49716 49.7532 3.49716 51.2346C3.49716 52.716 3.81509 53.8328 4.45093 54.5621C5.08678 55.3142 6.08597 55.6789 7.49392 55.6789C8.90187 55.6789 9.90106 55.3142 10.5369 54.5621C11.1727 53.81 11.468 52.716 11.468 51.2346C11.468 49.7532 11.15 48.6364 10.5369 47.9071C9.90106 47.155 8.90187 46.7903 7.49392 46.7903C6.08597 46.7903 5.08678 47.155 4.45093 47.9071ZM16.8727 45.4456C16.8727 45.1949 16.9635 44.9898 17.1225 44.8303C17.3041 44.6479 17.5085 44.5796 17.7356 44.5796H25.2976C26.1379 44.5796 26.91 44.6935 27.614 44.9214C28.3179 45.1494 28.9084 45.5596 29.3852 46.1522C29.8848 46.7447 30.1119 47.4741 30.1119 48.3401C30.1119 49.2973 29.7032 50.1178 28.8629 50.8016C30.0665 51.4397 30.6569 52.4881 30.6569 53.9239C30.6569 55.2002 30.18 56.2031 29.2263 56.9096C28.2725 57.6161 27.1144 57.958 25.7291 57.958H17.7583C17.5085 57.958 17.3041 57.8668 17.1452 57.7073C16.9635 57.5477 16.8954 57.3426 16.8954 57.0919V45.4456H16.8727ZM20.3698 55.4054H25.6837C26.1606 55.4054 26.5239 55.2686 26.7737 54.9723C27.0235 54.676 27.1598 54.2886 27.1598 53.7872C27.1598 53.2858 27.0235 52.8983 26.7737 52.6021C26.5239 52.3058 26.1606 52.169 25.6837 52.169H20.3698V55.4054ZM20.3698 49.6848H25.3431C25.7291 49.6848 26.047 49.5708 26.2741 49.3429C26.5012 49.115 26.6375 48.7959 26.6375 48.3857C26.6375 47.9755 26.5239 47.6564 26.2741 47.4285C26.047 47.2006 25.7291 47.0866 25.3431 47.0866H20.3698V49.6848ZM32.5645 57.0691V45.4456C32.5645 45.1949 32.6553 44.9898 32.8143 44.8303C32.9732 44.6479 33.1776 44.5796 33.4274 44.5796H36.1752C36.4023 44.5796 36.6294 44.6707 36.8564 44.8303C37.1062 45.0126 37.3106 45.2177 37.4469 45.4456L43.1014 54.1063V45.4228C43.1014 45.1721 43.1922 44.967 43.3512 44.8075C43.5101 44.6479 43.7145 44.5568 43.9416 44.5568H45.4858C45.7129 44.5568 45.9173 44.6479 46.0762 44.8075C46.2352 44.967 46.326 45.1949 46.326 45.4456V57.0691C46.326 57.3198 46.2352 57.5249 46.0762 57.6845C45.9173 57.8668 45.7129 57.9352 45.4631 57.9352H42.4655C42.2384 57.9352 41.9886 57.844 41.7388 57.6845C41.4891 57.5249 41.2847 57.3198 41.1484 57.0691L36.0843 49.0694V57.0691C36.0843 57.3198 35.9935 57.5249 35.8118 57.6845C35.6302 57.8668 35.4258 57.9352 35.176 57.9352H33.4955C33.2457 57.9352 33.0414 57.844 32.8597 57.6845C32.6553 57.5021 32.5645 57.297 32.5645 57.0691ZM50.2092 56.5449C48.9376 55.4282 48.3017 53.6732 48.3017 51.2346C48.3017 48.8187 48.9376 47.041 50.2092 45.9243C51.4809 44.8075 53.3431 44.2605 55.7956 44.2605C58.2482 44.2605 60.1103 44.8075 61.382 45.9243C62.6537 47.041 63.2895 48.7959 63.2895 51.2346C63.2895 53.6504 62.6537 55.4282 61.382 56.5449C60.1103 57.6617 58.2482 58.2087 55.7956 58.2087C53.3431 58.2315 51.4809 57.6617 50.2092 56.5449ZM52.7526 47.9071C52.1168 48.6592 51.7989 49.7532 51.7989 51.2346C51.7989 52.716 52.1168 53.8328 52.7526 54.5621C53.3885 55.3142 54.3877 55.6789 55.7956 55.6789C57.2036 55.6789 58.2028 55.3142 58.8386 54.5621C59.4745 53.81 59.7697 52.716 59.7697 51.2346C59.7697 49.7532 59.4517 48.6364 58.8386 47.9071C58.2028 47.155 57.2036 46.7903 55.7956 46.7903C54.4104 46.7903 53.3885 47.155 52.7526 47.9071ZM63.5393 45.3317C63.4939 45.2633 63.4939 45.1949 63.4939 45.1266C63.4939 45.0126 63.5393 44.8987 63.6302 44.8075C63.7664 44.6479 63.9481 44.5568 64.1525 44.5568H66.1963C66.6732 44.5568 67.0592 44.8531 67.309 45.4456L70.897 53.4909L74.485 45.4456C74.7348 44.8531 75.1208 44.5568 75.5977 44.5568H77.6415C77.8686 44.5568 78.0276 44.6479 78.1638 44.8075C78.2547 44.8987 78.3001 45.0126 78.3001 45.1266C78.3001 45.1949 78.2774 45.2633 78.2547 45.3317L72.8727 56.978C72.5775 57.6161 72.146 57.9352 71.5328 57.9352H70.193C69.6026 57.9352 69.1484 57.6161 68.8532 56.978L63.5393 45.3317ZM79.7989 57.0691V45.4228C79.7989 45.1721 79.8897 44.967 80.0487 44.8075C80.2303 44.6252 80.4347 44.5568 80.6618 44.5568H82.3877C82.6375 44.5568 82.8646 44.6479 83.0235 44.8075C83.2052 44.9898 83.2733 45.1949 83.2733 45.4228V57.0463C83.2733 57.297 83.1825 57.5021 83.0008 57.6617C82.8191 57.844 82.6148 57.9124 82.365 57.9124H80.6391C80.3893 57.9124 80.1849 57.8212 80.026 57.6617C79.8897 57.5249 79.7989 57.3198 79.7989 57.0691Z" fill="#FDFDFD"/>
<path fill-rule="evenodd" clip-rule="evenodd" d="M0.431641 72.5442V66.4134C0.431641 66.2767 0.477058 66.1627 0.567894 66.0716C0.658729 65.9804 0.772273 65.9348 0.885817 65.9348H3.63359C5.04153 65.9348 6.08614 66.2083 6.72199 66.7781C7.35784 67.3479 7.69847 68.2367 7.69847 69.4447C7.69847 70.6526 7.38055 71.5414 6.72199 72.1112C6.08614 72.681 5.04153 72.9545 3.63359 72.9545H0.908526C0.772273 72.9545 0.681438 72.9089 0.590602 72.8177C0.477058 72.7949 0.431641 72.681 0.431641 72.5442ZM2.29377 71.6098H3.58817C4.47381 71.6098 5.06424 71.4503 5.38217 71.1312C5.70009 70.8121 5.85905 70.2651 5.85905 69.4902C5.85905 68.7153 5.70009 68.1684 5.38217 67.8493C5.06424 67.5302 4.47381 67.3707 3.58817 67.3707H2.29377V71.6098ZM20.8696 72.5442V66.4134C20.8696 66.2767 20.915 66.1855 21.0058 66.0944C21.0967 66.0032 21.2102 65.9576 21.3238 65.9576H22.2321C22.3684 65.9576 22.4819 66.0032 22.5728 66.0944C22.6636 66.1855 22.709 66.2995 22.709 66.4134V72.5442C22.709 72.681 22.6636 72.7722 22.5728 72.8633C22.4819 72.9545 22.3684 73.0001 22.2321 73.0001H21.3238C21.1875 73.0001 21.0967 72.9545 21.0058 72.8633C20.915 72.795 20.8696 72.681 20.8696 72.5442ZM35.6985 66.3679C35.6758 66.3223 35.6758 66.2995 35.6758 66.2539C35.6758 66.1855 35.6985 66.1399 35.7439 66.0944C35.812 66.0032 35.9029 65.9576 36.0164 65.9576H37.0837C37.3335 65.9576 37.5379 66.1171 37.6741 66.4134L39.5817 70.6526L41.4665 66.4134C41.6028 66.1171 41.8071 65.9576 42.0569 65.9576H43.1243C43.2378 65.9576 43.3286 66.0032 43.3968 66.0944C43.4422 66.1399 43.4649 66.2083 43.4649 66.2539C43.4649 66.2995 43.4649 66.3223 43.4422 66.3679L40.6263 72.4987C40.4673 72.8405 40.2402 73.0001 39.9223 73.0001H39.2183C38.9004 73.0001 38.6733 72.8405 38.5144 72.4987L35.6985 66.3679ZM54.9329 72.5442L56.1591 67.8721C56.4998 66.5958 57.5671 65.9576 59.4065 65.9576H62.0407C62.1543 65.9576 62.2678 66.0032 62.3359 66.0944C62.4268 66.1855 62.4495 66.2995 62.4495 66.4134V72.567C62.4495 72.7038 62.4041 72.7949 62.3132 72.8861C62.2224 72.9773 62.1088 73.0229 61.9953 73.0229H61.0642C60.928 73.0229 60.8144 72.9773 60.7236 72.8861C60.6328 72.7949 60.5874 72.681 60.5874 72.5442V71.3135H57.1129L56.7723 72.567C56.7496 72.7038 56.6587 72.8177 56.5452 72.9089C56.4316 73.0001 56.3181 73.0457 56.1818 73.0457H55.2054C55.0691 73.0457 54.9783 73.0001 54.9101 72.9089C54.8647 72.8405 54.842 72.7722 54.842 72.7038C54.9329 72.6354 54.9329 72.5898 54.9329 72.5442ZM57.5444 69.9005H60.6328V67.3251H59.2475C58.9296 67.3251 58.6571 67.4162 58.43 67.5986C58.2029 67.7809 58.044 68.0088 57.9531 68.3279L57.5444 69.9005ZM76.0521 72.5442V66.4134C76.0521 66.2767 76.0975 66.1855 76.1883 66.0944C76.2792 66.0032 76.3927 65.9576 76.5062 65.9576H77.9596C78.0732 65.9576 78.1867 66.0032 78.323 66.0944C78.4592 66.1855 78.55 66.2995 78.6409 66.4134L81.6385 70.9717V66.3906C81.6385 66.2539 81.6839 66.1627 81.7747 66.0716C81.8655 65.9804 81.9564 65.9348 82.0926 65.9348H82.9101C83.0237 65.9348 83.1372 65.9804 83.2281 66.0716C83.3189 66.1627 83.3643 66.2767 83.3643 66.4134V72.5442C83.3643 72.681 83.3189 72.7722 83.2281 72.8633C83.1372 72.9545 83.0237 73.0001 82.9101 73.0001H81.2978C81.1616 73.0001 81.048 72.9545 80.9118 72.8633C80.7755 72.7722 80.6847 72.6582 80.5938 72.5442L77.8915 68.3279V72.5442C77.8915 72.681 77.8461 72.7722 77.7552 72.8633C77.6644 72.9545 77.5509 73.0001 77.4146 73.0001H76.529C76.3927 73.0001 76.2792 72.9545 76.1883 72.8633C76.0975 72.7722 76.0521 72.6582 76.0521 72.5442Z" fill="#FDFDFD"/>
</g>
<defs>
<linearGradient id="paint0_linear_232_104" x1="78.6451" y1="21.2977" x2="68.0132" y2="16.9357" gradientUnits="userSpaceOnUse">
<stop stop-color="#F1D226"/>
<stop offset="1" stop-color="#D67C1B"/>
</linearGradient>
<linearGradient id="paint1_linear_232_104" x1="5.42851" y1="21.2978" x2="16.0604" y2="16.9359" gradientUnits="userSpaceOnUse">
<stop stop-color="#F1D226"/>
<stop offset="1" stop-color="#D67C1B"/>
</linearGradient>
<linearGradient id="paint2_linear_232_104" x1="25.629" y1="14.7702" x2="25.7406" y2="0.96633" gradientUnits="userSpaceOnUse">
<stop stop-color="#D67C1B"/>
<stop offset="0.14" stop-color="#F2CB12"/>
<stop offset="1" stop-color="#FBEB2F"/>
</linearGradient>
<linearGradient id="paint3_linear_232_104" x1="58.4055" y1="14.7702" x2="58.5171" y2="0.96633" gradientUnits="userSpaceOnUse">
<stop stop-color="#D67C1B"/>
<stop offset="0.14" stop-color="#F2CB12"/>
<stop offset="1" stop-color="#FBEB2F"/>
</linearGradient>
<linearGradient id="paint4_linear_232_104" x1="42.2253" y1="29.2071" x2="42.002" y2="16.1917" gradientUnits="userSpaceOnUse">
<stop stop-color="#F1D226"/>
<stop offset="1" stop-color="#F2CB12"/>
</linearGradient>
<clipPath id="clip0_232_104">
<rect width="84" height="73" fill="white"/>
</clipPath>
</defs>
</svg>
