<svg width="84" height="84" viewBox="0 0 84 84" fill="none" xmlns="http://www.w3.org/2000/svg">
<path d="M58.1427 67.7588H50.0714C49.8038 67.7588 49.5472 67.6525 49.358 67.4633C49.1688 67.2741 49.0625 67.0175 49.0625 66.7499C49.0625 66.4823 49.1688 66.2257 49.358 66.0365C49.5472 65.8473 49.8038 65.741 50.0714 65.741H58.1427C58.4103 65.741 58.6669 65.8473 58.8562 66.0365C59.0454 66.2257 59.1517 66.4823 59.1517 66.7499C59.1517 67.0175 59.0454 67.2741 58.8562 67.4633C58.6669 67.6525 58.4103 67.7588 58.1427 67.7588Z" fill="#F9E328"/>
<path d="M74.3094 68.2227C71.4506 63.3113 67.5087 59.1171 62.7838 55.9595C58.059 52.8019 52.6759 50.7643 47.0445 50.0017V46.0871C52.0483 42.4441 55.7108 37.2524 57.4645 31.3166C57.6874 31.3728 57.914 31.4133 58.1425 31.4376C59.4801 31.4366 60.7626 30.9047 61.7084 29.9589C62.6542 29.0131 63.186 27.7306 63.1871 26.3931C63.176 25.2359 62.7622 24.1188 62.0169 23.2336C61.2716 22.3484 60.2413 21.7503 59.103 21.5422C59.0711 20.7208 58.9671 19.9038 58.7923 19.1006L58.8568 19.036L58.8326 19.0118C58.929 18.9238 59.0069 18.8174 59.0616 18.6989C59.1164 18.5804 59.1469 18.4522 59.1514 18.3217V8.79757C59.1482 6.77564 58.3436 4.83744 56.9139 3.40772C55.4842 1.978 53.546 1.17337 51.524 1.17017H32.4757C30.4538 1.17337 28.5156 1.978 27.0859 3.40772C25.6561 4.83744 24.8515 6.77564 24.8483 8.79757V18.3217C24.8539 18.4518 24.8853 18.5794 24.9408 18.6972C24.9962 18.815 25.0745 18.9206 25.1712 19.0078L25.1429 19.036L25.2075 19.1006C25.0317 19.9037 24.9278 20.7207 24.8967 21.5422C23.7584 21.7503 22.7281 22.3484 21.9828 23.2336C21.2376 24.1188 20.8238 25.2359 20.8127 26.3931C20.8137 27.7306 21.3456 29.0131 22.2914 29.9589C23.2372 30.9047 24.5197 31.4366 25.8572 31.4376C26.0858 31.4133 26.3124 31.3728 26.5352 31.3166C28.2897 37.2509 31.9522 42.4411 36.9553 46.083V50.0017C31.3239 50.7643 25.9408 52.8019 21.2159 55.9595C16.4911 59.1171 12.5492 63.3113 9.69037 68.2227C9.24085 68.9922 9.0027 69.8669 9.00002 70.7581C8.99735 71.6493 9.23026 72.5254 9.67515 73.2976C10.12 74.0698 10.7611 74.7107 11.5334 75.1554C12.3058 75.6001 13.1819 75.8328 14.0731 75.8299H69.9267C70.8179 75.8328 71.694 75.6001 72.4663 75.1554C73.2387 74.7107 73.8797 74.0698 74.3246 73.2976C74.7695 72.5254 75.0024 71.6493 74.9997 70.7581C74.9971 69.8669 74.7589 68.9922 74.3094 68.2227ZM30.9018 53.4602C33.0176 52.7559 35.1961 52.2558 37.4073 51.967L39.1507 55.3449L35.5791 57.6856C35.1351 57.9961 34.6133 58.1768 34.0723 58.2074C33.5313 58.2381 32.9924 58.1175 32.5161 57.8591C32.0249 57.604 31.614 57.2178 31.3291 56.7434C31.0441 56.2689 30.8962 55.7248 30.9018 55.1714V53.4602ZM46.5925 51.967C48.8037 52.2558 50.9821 52.7559 53.098 53.4602V55.1673C53.1035 55.7207 52.9557 56.2649 52.6707 56.7394C52.3857 57.2138 51.9749 57.6 51.4837 57.8551C51.0047 58.1129 50.4634 58.2324 49.9203 58.2003C49.3773 58.1683 48.8539 57.9859 48.4085 57.6735L44.8531 55.3449L46.5925 51.967ZM61.1693 26.3931C61.1429 27.1902 60.8038 27.9449 60.2253 28.494C59.6468 29.043 58.8754 29.3423 58.078 29.327C58.6167 27.4439 58.9575 25.5098 59.0949 23.556C59.6949 23.751 60.2182 24.13 60.5906 24.6393C60.9629 25.1486 61.1654 25.7622 61.1693 26.3931ZM26.8662 8.79757C26.8683 7.31047 27.46 5.8849 28.5115 4.83336C29.5631 3.78182 30.9886 3.19013 32.4757 3.188H51.524C53.0111 3.19013 54.4367 3.78182 55.4883 4.83336C56.5398 5.8849 57.1315 7.31047 57.1336 8.79757V16.6873C52.404 14.4435 47.2347 13.2795 41.9999 13.2795C36.7651 13.2795 31.5957 14.4435 26.8662 16.6873V8.79757ZM56.4153 18.6204L55.1561 19.8795C54.7598 20.2781 54.2598 20.5577 53.7128 20.6868C53.1657 20.8159 52.5935 20.7893 52.0608 20.61L43.594 17.789C42.5594 17.4429 41.4403 17.4429 40.4058 17.789L31.939 20.614C31.4058 20.7919 30.8336 20.8174 30.2867 20.6876C29.7398 20.5578 29.24 20.278 28.8436 19.8795L27.5724 18.6123C32.075 16.4473 37.0039 15.314 41.9999 15.295C46.9949 15.2966 51.9242 16.4338 56.4153 18.6204ZM22.8305 26.3931C22.8352 25.7629 23.0381 25.1502 23.4104 24.6417C23.7827 24.1333 24.3055 23.7548 24.9048 23.56C25.0423 25.5138 25.3831 27.4479 25.9218 29.331C25.1231 29.3484 24.3499 29.0493 23.7708 28.4989C23.1917 27.9486 22.8537 27.1916 22.8305 26.3931ZM26.8662 22.3574C26.8684 21.8518 26.8967 21.3467 26.9509 20.844L27.415 21.3081C28.0767 21.9728 28.9111 22.4392 29.8239 22.6545C30.7368 22.8699 31.6916 22.8257 32.5807 22.5269L41.0434 19.7019C41.664 19.4934 42.3358 19.4934 42.9563 19.7019L51.4191 22.5269C51.9371 22.6996 52.4793 22.7882 53.0253 22.7892C53.687 22.7893 54.3421 22.6585 54.953 22.4043C55.5639 22.1501 56.1185 21.7775 56.5848 21.3081L57.0489 20.844C57.103 21.3467 57.1313 21.8518 57.1336 22.3574C57.1336 31.0986 50.0631 45.5625 41.9999 45.5625C33.9366 45.5625 26.8662 31.0986 26.8662 22.3574ZM41.9999 47.5803C43.034 47.5658 44.0579 47.3733 45.0266 47.0113V50.607L42.9604 54.6023C42.6725 54.5368 42.3795 54.4963 42.0846 54.4813C42.0523 54.4772 42.0322 54.4409 41.9999 54.4409C41.9676 54.4409 41.9474 54.4772 41.9151 54.4813C41.6202 54.496 41.3272 54.5365 41.0394 54.6023L38.9731 50.607V47.0153C39.9422 47.3759 40.966 47.5671 41.9999 47.5803ZM72.5781 72.2866C72.3118 72.7537 71.9257 73.1413 71.4596 73.4095C70.9935 73.6777 70.4644 73.8166 69.9267 73.8121H14.0731C13.5358 73.8157 13.0071 73.6768 12.5409 73.4095C12.0747 73.1422 11.6878 72.7561 11.4195 72.2905C11.1512 71.8249 11.0112 71.2965 11.0137 70.7591C11.0162 70.2218 11.1612 69.6947 11.4338 69.2316C15.4097 62.4163 21.5529 57.1284 28.884 54.2109V55.1673C28.885 56.5054 29.4151 57.7887 30.3586 58.7375C31.3021 59.6863 32.5825 60.2236 33.9205 60.2321C34.9141 60.2287 35.8834 59.9249 36.7011 59.3604L40.3412 56.9793C40.5442 56.8505 40.7625 56.7474 40.991 56.6726V66.7497C40.991 67.0173 41.0973 67.2739 41.2865 67.4631C41.4757 67.6523 41.7323 67.7586 41.9999 67.7586C42.2675 67.7586 42.5241 67.6523 42.7133 67.4631C42.9025 67.2739 43.0088 67.0173 43.0088 66.7497V56.6726C43.2399 56.7472 43.4609 56.8503 43.6666 56.9793L47.2826 59.3523C48.0293 59.8708 48.9051 60.1721 49.8128 60.2227C50.7204 60.2733 51.6243 60.0712 52.424 59.6388C53.2377 59.2098 53.9187 58.5664 54.3931 57.7783C54.8676 56.9901 55.1175 56.0872 55.1158 55.1673V54.2109C62.4471 57.1299 68.5903 62.4192 72.566 69.2356C72.8388 69.6973 72.9837 70.2233 72.9859 70.7595C72.988 71.2957 72.8472 71.8228 72.5781 72.2866Z" fill="#F9E328"/>
</svg>
