<svg width="25" height="25" viewBox="0 0 25 25" fill="none" xmlns="http://www.w3.org/2000/svg">
<path d="M23.1875 16.5156C24.125 16.9375 24.6406 17.9688 24.4062 18.9531L23.4219 23.3594C23.1875 24.3438 22.3438 25 21.3125 25C9.82812 25 0.5 15.6719 0.5 4.1875C0.5 3.15625 1.15625 2.3125 2.14062 2.125L6.54688 1.09375C7.53125 0.859375 8.5625 1.375 8.98438 2.3125L11 7.09375C11.375 7.9375 11.1406 8.96875 10.4375 9.57812L8.51562 11.125C9.875 13.5625 11.9375 15.625 14.375 16.9844L15.9688 15.1094C16.5312 14.3594 17.5625 14.125 18.4062 14.4531L23.1875 16.5156ZM21.9219 23.0312L22.9531 18.625C23.0469 18.2969 22.8594 18.0156 22.5781 17.875L17.8438 15.8594C17.5625 15.7656 17.2812 15.8125 17.0938 16.0469L15.1719 18.3906C14.9375 18.6719 14.5625 18.7656 14.2812 18.5781C11.0938 17.0312 8.46875 14.4062 6.92188 11.2656C6.73438 10.9375 6.82812 10.5625 7.10938 10.3281L9.45312 8.40625C9.6875 8.21875 9.73438 7.9375 9.64062 7.65625L7.625 2.92188C7.48438 2.6875 7.25 2.5 7.01562 2.5C6.96875 2.5 6.92188 2.54688 6.875 2.54688L2.46875 3.57812C2.1875 3.625 2 3.85938 2 4.1875C2 14.8281 10.6719 23.5469 21.3125 23.5469C21.6406 23.5469 21.875 23.3125 21.9219 23.0312Z" fill="#2B2A29"/>
</svg>
