<svg width="162" height="175" viewBox="0 0 162 175" fill="none" xmlns="http://www.w3.org/2000/svg">
<g clip-path="url(#clip0_228_395)">
<path d="M96.9006 122.856C81.7024 122.856 69.3135 110.524 69.3135 95.3967C69.3135 80.269 81.7024 67.9377 96.9006 67.9377C112.099 67.9377 124.488 80.269 124.488 95.3967C124.488 110.524 112.099 122.856 96.9006 122.856ZM96.9006 73.7596C84.9262 73.7596 75.1625 83.4779 75.1625 95.3967C75.1625 107.315 84.9262 117.034 96.9006 117.034C108.875 117.034 118.639 107.315 118.639 95.3967C118.593 83.4321 108.875 73.7596 96.9006 73.7596Z" fill="#EAEAEA"/>
<path d="M96.9006 108.966C89.3475 108.966 83.2222 102.869 83.2222 95.3509C83.2222 87.8329 89.3475 81.736 96.9006 81.736C104.454 81.736 110.579 87.8329 110.579 95.3509C110.579 102.869 104.454 108.966 96.9006 108.966ZM96.9006 87.6037C92.5714 87.6037 89.0712 91.0877 89.0712 95.3968C89.0712 99.7059 92.5714 103.19 96.9006 103.19C101.23 103.19 104.73 99.7059 104.73 95.3968C104.73 91.0877 101.184 87.6037 96.9006 87.6037Z" fill="#EAEAEA"/>
<path d="M116.934 54.2311H76.8663C75.8991 54.2311 74.978 53.7268 74.4254 52.9017C73.8727 52.0765 73.7806 51.068 74.1951 50.1512L82.3929 31.0812C82.8535 30.0268 83.9128 29.2934 85.1102 29.2934H108.783C109.98 29.2934 111.039 29.981 111.5 31.0812L119.698 50.1512C120.066 51.068 119.974 52.0765 119.467 52.9017C118.823 53.7268 117.902 54.2311 116.934 54.2311ZM81.3337 48.3634H112.467L106.802 35.1611H86.9985L81.3337 48.3634Z" fill="#EAEAEA"/>
<path d="M119.053 35.1611H74.7017C70.4185 35.1611 66.9644 31.6772 66.9644 27.4598V12.1029C66.9644 7.83965 70.4646 4.40155 74.7017 4.40155H119.053C123.336 4.40155 126.79 7.88549 126.79 12.1029V27.4598C126.836 31.6772 123.336 35.1611 119.053 35.1611ZM74.7017 10.2234C73.6424 10.2234 72.8134 11.0485 72.8134 12.1029V27.4598C72.8134 28.5141 73.6424 29.3393 74.7017 29.3393H119.053C120.112 29.3393 120.941 28.5141 120.941 27.4598V12.1029C120.941 11.0485 120.112 10.2234 119.053 10.2234H74.7017Z" fill="#EAEAEA"/>
<path d="M151.384 20.6294C149.772 20.6294 148.437 19.3 148.437 17.6955C148.437 15.2201 146.41 13.2031 143.923 13.2031C142.311 13.2031 140.976 11.8737 140.976 10.2692C140.976 8.66478 142.311 7.33539 143.923 7.33539C146.41 7.33539 148.437 5.31837 148.437 2.84293C148.437 1.23849 149.772 -0.0909271 151.384 -0.0909271C152.996 -0.0909271 154.332 1.23849 154.332 2.84293C154.332 5.31837 156.358 7.33539 158.845 7.33539C160.457 7.33539 161.793 8.66478 161.793 10.2692C161.793 11.8737 160.457 13.2031 158.845 13.2031C156.358 13.2031 154.332 15.2201 154.332 17.6955C154.332 19.3 152.996 20.6294 151.384 20.6294ZM151.2 10.3151C151.292 10.3609 151.338 10.4526 151.384 10.4984C151.43 10.4068 151.522 10.3609 151.568 10.3151C151.476 10.2692 151.43 10.1776 151.384 10.1317C151.338 10.1776 151.246 10.2692 151.2 10.3151Z" fill="#EAEAEA"/>
<path d="M159.075 83.8904C157.463 83.8904 156.128 82.561 156.128 80.9565V63.6743C156.128 58.4484 151.845 54.231 146.64 54.231H46.7464C45.1344 54.231 43.7988 52.9016 43.7988 51.2971C43.7988 49.6927 45.1344 48.3633 46.7464 48.3633H146.64C155.115 48.3633 162.023 55.2395 162.023 63.6743V80.9565C162.023 82.561 160.687 83.8904 159.075 83.8904Z" fill="#EAEAEA"/>
<path d="M146.64 141.559H71.4778C69.8659 141.559 68.5303 140.23 68.5303 138.625C68.5303 137.021 69.8659 135.691 71.4778 135.691H146.64C151.89 135.691 156.127 131.428 156.127 126.248V111.9C156.127 110.295 157.463 108.966 159.075 108.966C160.687 108.966 162.023 110.295 162.023 111.9V126.248C162.023 134.683 155.114 141.559 146.64 141.559Z" fill="#EAEAEA"/>
<path d="M19.3894 72.0176C17.7775 72.0176 16.4419 70.6882 16.4419 69.0837V54.8729C16.4419 54.0936 16.7643 53.3601 17.2709 52.81L37.3971 32.594C37.9497 32.0439 38.6866 31.723 39.4696 31.723H51.5821C57.7996 31.723 62.8196 36.7655 62.8196 42.9083C62.8196 49.0969 57.7535 54.0936 51.5821 54.0936H47.7595L40.0683 62.0241C38.9629 63.1702 37.0747 63.216 35.9233 62.07C34.7719 60.9698 34.7259 59.0903 35.8772 57.9443L44.4435 49.1427C44.9962 48.5926 45.7791 48.2717 46.5621 48.2717H51.6282C54.5757 48.2717 57.0166 45.888 57.0166 42.9083C57.0166 39.9744 54.6218 37.5448 51.6282 37.5448H40.7591L22.337 56.0648V69.0837C22.337 70.734 21.0474 72.0176 19.3894 72.0176Z" fill="#EAEAEA"/>
<path d="M63.9249 114.054C62.0367 114.054 60.1945 113.596 58.4904 112.633C57.0627 111.854 56.5561 110.066 57.339 108.645C58.122 107.224 59.9181 106.72 61.3458 107.499C62.6354 108.187 64.1092 108.37 65.4908 107.957C66.8725 107.545 68.0239 106.582 68.7147 105.299C70.0503 102.777 69.0371 99.5225 66.4119 98.0556L59.1352 94.0215C57.7535 93.2422 57.2469 91.5461 57.9377 90.1708C58.6286 88.7498 60.3326 88.1538 61.7603 88.8414C64.2934 89.9875 67.287 88.9789 68.6226 86.5494C69.3134 85.3116 69.4976 83.8447 69.0831 82.5153C68.6686 81.1401 67.7936 79.994 66.5501 79.3064L37.9497 63.4453L13.9549 76.0975C10.4547 77.9312 8.2901 81.461 8.2901 85.4033V97.7347C8.2901 99.3391 6.9545 100.669 5.34256 100.669C3.73062 100.669 2.39502 99.3391 2.39502 97.7347V85.4033C2.39502 79.3064 5.75706 73.7596 11.1916 70.9633L36.476 57.6234C37.3971 57.1192 38.5024 57.165 39.4235 57.6693L69.3595 74.2639C71.9846 75.7308 73.8729 78.1145 74.7019 80.9567C75.5309 83.8447 75.1624 86.8703 73.6887 89.4374C72.7676 91.1335 71.432 92.4629 69.8661 93.4256C74.7019 96.5886 76.498 102.961 73.8268 108.049C72.3991 110.754 70.0042 112.725 67.1028 113.596C66.0895 113.871 64.9842 114.054 63.9249 114.054Z" fill="#EAEAEA"/>
<path d="M53.8847 127.44C51.8583 127.44 49.8318 126.89 48.0357 125.789L33.9428 117.217H28.6924C27.0805 117.217 25.7449 115.888 25.7449 114.283C25.7449 112.679 27.0805 111.349 28.6924 111.349H34.7718C35.3244 111.349 35.831 111.487 36.2916 111.762L51.1214 120.747C52.3649 121.48 53.7926 121.71 55.1743 121.389C56.5559 121.068 57.7534 120.197 58.4902 119.005C60.0101 116.484 59.2271 113.183 56.6941 111.67L38.5943 100.668H28.324C26.7121 100.668 25.3765 99.3389 25.3765 97.7345C25.3765 96.13 26.7121 94.8006 28.324 94.8006H39.4233C39.976 94.8006 40.4826 94.9381 40.9432 95.2132L59.7337 106.628C65.0301 109.837 66.6881 116.713 63.4642 121.985C61.8983 124.552 59.4113 126.34 56.5099 127.027C55.6348 127.302 54.7598 127.44 53.8847 127.44Z" fill="#EAEAEA"/>
<path d="M59.8719 94.0674C59.4113 94.0674 58.9047 93.9299 58.4442 93.7006L37.9035 82.2861L27.495 87.6496C26.0673 88.383 24.2711 87.8329 23.5342 86.4119C22.7973 84.9908 23.35 83.203 24.7777 82.4695L36.5679 76.3726C37.4429 75.9142 38.5022 75.96 39.3312 76.4184L61.2535 88.5664C62.6812 89.3457 63.1879 91.1335 62.4049 92.5546C61.9444 93.5631 60.9311 94.0674 59.8719 94.0674Z" fill="#EAEAEA"/>
<path d="M16.1194 174.977C14.5074 174.977 13.1718 173.648 13.1718 172.043V159.529C4.69764 150.59 0 138.946 0 126.615V105.069C0 99.3848 3.13176 94.2506 8.15179 91.5918C9.57951 90.8583 11.3757 91.3626 12.1125 92.8295C12.8494 94.2506 12.3428 96.0384 10.8691 96.7719C7.78335 98.4221 5.84903 101.585 5.84903 105.115V126.66C5.84903 137.846 10.2243 148.389 18.1919 156.32C18.7445 156.87 19.0669 157.603 19.0669 158.383V172.135C19.0669 173.694 17.7774 174.977 16.1194 174.977Z" fill="#EAEAEA"/>
<path d="M58.8585 175.023C58.1677 175.023 57.4768 174.794 56.9242 174.29C55.7267 173.235 55.5886 171.402 56.6478 170.164C64.247 161.546 68.4841 150.452 68.5762 138.946C68.5762 137.342 69.9118 136.058 71.5237 136.058C73.1356 136.058 74.4713 137.387 74.4252 138.992C74.3331 151.873 69.5894 164.342 61.0692 174.015C60.4704 174.656 59.6414 175.023 58.8585 175.023Z" fill="#EAEAEA"/>
<path d="M71.478 141.559H47.1608C38.6866 141.559 31.7783 134.683 31.7783 126.248V117.034C31.7783 115.429 33.1139 114.1 34.7259 114.1C36.3378 114.1 37.6734 115.429 37.6734 117.034V126.248C37.6734 131.474 41.9565 135.691 47.1608 135.691H71.478C73.0899 135.691 74.4256 137.021 74.4256 138.625C74.4256 140.23 73.0899 141.559 71.478 141.559Z" fill="#EAEAEA"/>
<path d="M159.075 99.3848C158.292 99.3848 157.555 99.0639 157.002 98.5138C156.45 97.9637 156.127 97.2302 156.127 96.4509C156.127 95.6716 156.45 94.9382 157.002 94.3881C157.555 93.838 158.292 93.5171 159.075 93.5171C159.858 93.5171 160.595 93.838 161.147 94.3881C161.7 94.9382 162.023 95.6716 162.023 96.4509C162.023 97.2302 161.7 97.9637 161.147 98.5138C160.595 99.0639 159.858 99.3848 159.075 99.3848Z" fill="#EAEAEA"/>
</g>
<defs>
<clipPath id="clip0_228_395">
<rect width="162" height="175" fill="white"/>
</clipPath>
</defs>
</svg>
