<svg width="84" height="84" viewBox="0 0 84 84" fill="none" xmlns="http://www.w3.org/2000/svg">
<path d="M18.5832 84C17.4415 83.9995 16.311 83.7741 15.2564 83.3365C14.2018 82.899 13.2438 82.2579 12.4371 81.45C11.6304 80.642 10.9908 79.683 10.5548 78.6278C10.1189 77.5725 9.89514 76.4417 9.8964 75.3V68.34H1.2C0.88174 68.34 0.576516 68.2136 0.351472 67.9885C0.126428 67.7635 0 67.4583 0 67.14V46.9608C0.0225733 45.3451 0.680261 43.8032 1.83082 42.6686C2.98137 41.534 4.53231 40.8979 6.1482 40.8979C7.76409 40.8979 9.31503 41.534 10.4656 42.6686C11.6161 43.8032 12.2738 45.3451 12.2964 46.9608V75.3C12.3012 76.9743 12.9661 78.5792 14.1468 79.7664C14.7836 80.4012 15.5493 80.8919 16.3921 81.2054C17.2349 81.5188 18.1351 81.6476 19.032 81.5832C20.6679 81.4059 22.177 80.6188 23.2586 79.3788C24.3403 78.1388 24.9152 76.5368 24.8688 74.892V9.0312C24.8703 6.64888 25.8124 4.36351 27.4902 2.67222C29.168 0.980939 31.4458 0.0205613 33.828 0H70.8624C74.102 0.00381161 77.2077 1.29249 79.4983 3.58332C81.7889 5.87415 83.0773 8.98004 83.0808 12.2196V12.5508C83.0808 12.8691 82.9544 13.1743 82.7293 13.3993C82.5043 13.6244 82.1991 13.7508 81.8808 13.7508H41.6808C41.3625 13.7508 41.0573 13.6244 40.8323 13.3993C40.6072 13.1743 40.4808 12.8691 40.4808 12.5508V9.4392C40.5127 7.70788 39.8961 6.02719 38.7522 4.7272C37.6083 3.42721 36.0197 2.60185 34.2984 2.4132C33.3617 2.34949 32.4223 2.48916 31.5447 2.82265C30.6671 3.15613 29.872 3.67553 29.214 4.3452C28.5968 4.95819 28.1071 5.68736 27.7733 6.49062C27.4394 7.29388 27.2679 8.15532 27.2688 9.0252V74.892C27.3133 77.1431 26.508 79.3283 25.0132 81.0121C23.5185 82.6959 21.4441 83.7546 19.2036 83.9772C18.9972 83.9926 18.7902 84.0002 18.5832 84ZM2.4 65.9376H9.8964V46.9608C9.87882 45.9783 9.47619 45.042 8.77518 44.3535C8.07417 43.6649 7.13083 43.2791 6.1482 43.2791C5.16557 43.2791 4.22223 43.6649 3.52122 44.3535C2.82021 45.042 2.41758 45.9783 2.4 46.9608V65.9376ZM42.8808 11.3508H80.6424C80.4224 8.90782 79.2972 6.63529 77.4878 4.97926C75.6783 3.32323 73.3153 2.40328 70.8624 2.4H39.882C40.8356 3.30676 41.5937 4.39898 42.1096 5.60952C42.6255 6.82006 42.8884 8.12333 42.882 9.4392L42.8808 11.3508Z" fill="#F9E328"/>
<path d="M65.914 83.9999H18.5764C18.2582 83.9999 17.9529 83.8735 17.7279 83.6485C17.5028 83.4234 17.3764 83.1182 17.3764 82.7999C17.3764 82.4817 17.5028 82.1764 17.7279 81.9514C17.9529 81.7264 18.2582 81.5999 18.5764 81.5999H65.914C68.3678 81.5971 70.7202 80.621 72.4551 78.8858C74.1901 77.1506 75.1659 74.7981 75.1684 72.3443V12.5447C75.1684 12.2265 75.2948 11.9212 75.5199 11.6962C75.7449 11.4712 76.0502 11.3447 76.3684 11.3447C76.6867 11.3447 76.9919 11.4712 77.2169 11.6962C77.442 11.9212 77.5684 12.2265 77.5684 12.5447V72.3419C77.5659 75.4324 76.3373 78.3957 74.1523 80.5813C71.9674 82.7669 69.0045 83.9964 65.914 83.9999ZM26.0692 43.2131H6.14922C5.83096 43.2131 5.52573 43.0867 5.30069 42.8617C5.07565 42.6366 4.94922 42.3314 4.94922 42.0131C4.94922 41.6949 5.07565 41.3896 5.30069 41.1646C5.52573 40.9396 5.83096 40.8131 6.14922 40.8131H26.0692C26.3875 40.8131 26.6927 40.9396 26.9177 41.1646C27.1428 41.3896 27.2692 41.6949 27.2692 42.0131C27.2692 42.3314 27.1428 42.6366 26.9177 42.8617C26.6927 43.0867 26.3875 43.2131 26.0692 43.2131Z" fill="#F9E328"/>
<path d="M43.4675 60.564C43.1875 60.564 42.9164 60.4661 42.701 60.2873C42.4855 60.1085 42.3394 59.86 42.2879 59.5848C40.9539 52.3543 42.5246 44.8895 46.6593 38.8098C50.794 32.73 57.1592 28.5258 64.3739 27.1092C64.5295 27.0789 64.6896 27.0799 64.8448 27.1118C65.0001 27.1438 65.1474 27.2062 65.2784 27.2955C65.4094 27.3848 65.5214 27.4991 65.608 27.6319C65.6945 27.7647 65.7539 27.9133 65.7827 28.0692C66.4719 31.6975 66.4262 35.4273 65.6483 39.0377C64.8704 42.6481 63.3761 46.0657 61.2539 49.0884C61.0719 49.3495 60.7935 49.5276 60.4802 49.5835C60.1668 49.6395 59.844 49.5686 59.5829 49.3866C59.3218 49.2045 59.1437 48.9262 59.0877 48.6128C59.0318 48.2995 59.1027 47.9767 59.2847 47.7156C62.957 42.4864 64.5066 36.058 63.6203 29.73C57.5134 31.242 52.1795 34.9552 48.6416 40.1575C45.1037 45.3598 43.6108 51.6851 44.4491 57.9204C48.8705 56.8421 52.9199 54.5929 56.1719 51.4092C56.3993 51.1864 56.7059 51.0631 57.0242 51.0663C57.3425 51.0696 57.6465 51.1992 57.8693 51.4266C58.0921 51.654 58.2154 51.9605 58.2122 52.2789C58.2089 52.5972 58.0793 52.9012 57.8519 53.124C53.9639 56.9303 49.0427 59.5096 43.7003 60.5412C43.6237 60.5566 43.5457 60.5643 43.4675 60.564Z" fill="#F9E328"/>
<path d="M57.0117 53.4671C56.7725 53.467 56.5389 53.3954 56.3406 53.2615C56.1424 53.1277 55.9888 52.9377 55.8993 52.7159L53.9709 47.9423C53.8909 47.7438 53.8654 47.5275 53.897 47.3158C53.9287 47.1042 54.0164 46.9048 54.1511 46.7385C54.2857 46.5721 54.4624 46.4448 54.6628 46.3697C54.8632 46.2946 55.0801 46.2745 55.2909 46.3115L60.4761 47.2175C60.6337 47.2418 60.7849 47.2974 60.9209 47.3809C61.0568 47.4643 61.1747 47.5741 61.2677 47.7037C61.3607 47.8332 61.427 47.9801 61.4626 48.1356C61.4982 48.2911 61.5024 48.4521 61.475 48.6092C61.4477 48.7664 61.3893 48.9165 61.3032 49.0508C61.2171 49.1851 61.1052 49.3009 60.9738 49.3914C60.8425 49.4819 60.6945 49.5454 60.5383 49.578C60.3822 49.6106 60.2211 49.6118 60.0645 49.5815L57.0069 49.0475L58.1241 51.8171C58.2427 52.1118 58.2396 52.4416 58.1154 52.734C57.9912 53.0264 57.7561 53.2577 57.4617 53.3771C57.319 53.4362 57.1661 53.4667 57.0117 53.4671ZM40.9137 64.3127C40.6956 64.3126 40.4817 64.2532 40.2948 64.1407C40.108 64.0282 39.9554 63.8669 39.8533 63.6742C39.7513 63.4814 39.7037 63.2645 39.7157 63.0468C39.7277 62.829 39.7987 62.6186 39.9213 62.4383L47.1345 51.8315C47.2231 51.7011 47.3366 51.5895 47.4684 51.5031C47.6001 51.4166 47.7476 51.3569 47.9025 51.3274C48.0573 51.298 48.2164 51.2993 48.3707 51.3313C48.5251 51.3633 48.6716 51.4254 48.8019 51.5141C48.9322 51.6027 49.0438 51.7161 49.1303 51.8479C49.2168 51.9797 49.2765 52.1272 49.3059 52.282C49.3354 52.4369 49.3341 52.596 49.3021 52.7503C49.2701 52.9046 49.2079 53.0511 49.1193 53.1815L41.9073 63.7883C41.797 63.9501 41.6489 64.0825 41.4757 64.1739C41.3025 64.2653 41.1095 64.313 40.9137 64.3127Z" fill="#F9E328"/>
</svg>
