<svg width="84" height="84" viewBox="0 0 84 84" fill="none" xmlns="http://www.w3.org/2000/svg">
<path d="M3.40517 81.7297L80.5944 81.7297C80.8954 81.7297 81.1841 81.6101 81.397 81.3973C81.6099 81.1844 81.7295 80.8957 81.7295 80.5946L81.7295 3.4054C81.7294 3.18093 81.6628 2.96151 81.5381 2.77488C81.4134 2.58825 81.2361 2.4428 81.0287 2.3569C80.8213 2.27101 80.5931 2.24853 80.373 2.29231C80.1528 2.33609 79.9506 2.44416 79.7918 2.60286L2.60262 79.7921C2.44392 79.9508 2.33585 80.153 2.29207 80.3732C2.24829 80.5934 2.27078 80.8216 2.35667 81.029C2.44257 81.2363 2.58802 81.4136 2.77464 81.5383C2.96127 81.6631 3.1807 81.7297 3.40517 81.7297ZM79.4592 79.4595L6.14539 79.4595L79.4592 6.14562L79.4592 79.4595Z" fill="#F9E328"/>
<path d="M33.5509 69.2433L68.1079 69.2433C68.4089 69.2433 68.6976 69.1237 68.9105 68.9108C69.1234 68.698 69.243 68.4092 69.243 68.1082L69.243 33.5501C69.243 33.3256 69.1764 33.1062 69.0516 32.9196C68.9269 32.733 68.7496 32.5875 68.5422 32.5016C68.3348 32.4157 68.1066 32.3932 67.8865 32.437C67.6663 32.4808 67.4641 32.5889 67.3053 32.7476L32.7484 67.3056C32.5897 67.4644 32.4816 67.6666 32.4379 67.8868C32.3941 68.107 32.4166 68.3352 32.5025 68.5425C32.5883 68.7499 32.7338 68.9272 32.9204 69.0519C33.1071 69.1767 33.3265 69.2433 33.5509 69.2433ZM66.9727 66.973L36.2912 66.973L66.9727 36.2903L66.9727 66.973ZM22.0997 81.7298C22.4008 81.7298 22.6895 81.6102 22.9024 81.3973C23.1152 81.1845 23.2348 80.8957 23.2348 80.5947L23.2348 77.3028C23.2348 77.0017 23.1152 76.713 22.9024 76.5001C22.6895 76.2872 22.4008 76.1676 22.0997 76.1676C21.7987 76.1676 21.5099 76.2872 21.297 76.5001C21.0842 76.713 20.9646 77.0017 20.9646 77.3028L20.9646 80.5947C20.9646 80.8957 21.0842 81.1845 21.297 81.3973C21.5099 81.6102 21.7987 81.7298 22.0997 81.7298ZM30.0457 81.7298C30.3467 81.7298 30.6354 81.6102 30.8483 81.3973C31.0612 81.1845 31.1808 80.8957 31.1808 80.5947L31.1808 76.0541C31.1808 75.7531 31.0612 75.4643 30.8483 75.2515C30.6354 75.0386 30.3467 74.919 30.0457 74.919C29.7446 74.919 29.4559 75.0386 29.243 75.2515C29.0301 75.4643 28.9105 75.7531 28.9105 76.0541L28.9105 80.5947C28.9105 80.8957 29.0301 81.1845 29.243 81.3973C29.4559 81.6102 29.7446 81.7298 30.0457 81.7298ZM37.9916 81.7298C38.2927 81.7298 38.5814 81.6102 38.7943 81.3973C39.0071 81.1845 39.1267 80.8957 39.1267 80.5947L39.1267 77.3028C39.1267 77.0017 39.0071 76.713 38.7943 76.5001C38.5814 76.2872 38.2927 76.1676 37.9916 76.1676C37.6905 76.1676 37.4018 76.2872 37.1889 76.5001C36.9761 76.713 36.8565 77.0017 36.8565 77.3028L36.8565 80.5947C36.8565 80.8957 36.9761 81.1845 37.1889 81.3973C37.4018 81.6102 37.6905 81.7298 37.9916 81.7298ZM45.9375 81.7298C46.2386 81.7298 46.5273 81.6102 46.7402 81.3973C46.9531 81.1845 47.0727 80.8957 47.0727 80.5947L47.0727 76.0541C47.0727 75.7531 46.9531 75.4643 46.7402 75.2515C46.5273 75.0386 46.2386 74.919 45.9375 74.919C45.6365 74.919 45.3478 75.0386 45.1349 75.2515C44.922 75.4643 44.8024 75.7531 44.8024 76.0541L44.8024 80.5947C44.8024 80.8957 44.922 81.1845 45.1349 81.3973C45.3478 81.6102 45.6365 81.7298 45.9375 81.7298ZM53.8835 81.7298C54.1845 81.7298 54.4733 81.6102 54.6862 81.3973C54.899 81.1845 55.0186 80.8957 55.0186 80.5947L55.0186 77.3028C55.0186 77.0017 54.899 76.713 54.6862 76.5001C54.4733 76.2872 54.1845 76.1676 53.8835 76.1676C53.5824 76.1676 53.2937 76.2872 53.0808 76.5001C52.8679 76.713 52.7484 77.0017 52.7484 77.3028L52.7484 80.5947C52.7484 80.8957 52.8679 81.1845 53.0808 81.3973C53.2937 81.6102 53.5824 81.7298 53.8835 81.7298ZM61.8294 81.7298C62.1305 81.7298 62.4192 81.6102 62.6321 81.3973C62.845 81.1845 62.9646 80.8957 62.9646 80.5947L62.9646 76.0541C62.9646 75.7531 62.845 75.4644 62.6321 75.2515C62.4192 75.0386 62.1305 74.919 61.8294 74.919C61.5284 74.919 61.2397 75.0386 61.0268 75.2515C60.8139 75.4643 60.6943 75.7531 60.6943 76.0541L60.6943 80.5947C60.6943 80.8957 60.8139 81.1845 61.0268 81.3973C61.2397 81.6102 61.5284 81.7298 61.8294 81.7298ZM69.7754 81.7298C70.0764 81.7298 70.3652 81.6102 70.578 81.3973C70.7909 81.1845 70.9105 80.8957 70.9105 80.5947L70.9105 77.3028C70.9105 77.0017 70.7909 76.713 70.578 76.5001C70.3652 76.2872 70.0764 76.1676 69.7754 76.1676C69.4743 76.1676 69.1856 76.2872 68.9727 76.5001C68.7598 76.713 68.6402 77.0017 68.6402 77.3028L68.6402 80.5947C68.6402 80.8957 68.7598 81.1845 68.9727 81.3973C69.1856 81.6102 69.4743 81.7298 69.7754 81.7298ZM77.3025 69.2433L80.5944 69.2433C80.8954 69.2433 81.1841 69.1237 81.397 68.9109C81.6099 68.698 81.7295 68.4092 81.7295 68.1082C81.7295 67.8071 81.6099 67.5184 81.397 67.3055C81.1841 67.0926 80.8954 66.973 80.5944 66.973L77.3025 66.973C77.0014 66.973 76.7127 67.0926 76.4998 67.3055C76.2869 67.5184 76.1673 67.8071 76.1673 68.1082C76.1673 68.4092 76.2869 68.698 76.4998 68.9109C76.7127 69.1237 77.0014 69.2433 77.3025 69.2433ZM76.0538 61.2974L80.5944 61.2974C80.8954 61.2974 81.1841 61.1778 81.397 60.9649C81.6099 60.752 81.7295 60.4633 81.7295 60.1622C81.7295 59.8612 81.6099 59.5725 81.397 59.3596C81.1841 59.1467 80.8954 59.0271 80.5944 59.0271L76.0538 59.0271C75.7528 59.0271 75.464 59.1467 75.2512 59.3596C75.0383 59.5725 74.9187 59.8612 74.9187 60.1622C74.9187 60.4633 75.0383 60.752 75.2512 60.9649C75.464 61.1778 75.7528 61.2974 76.0538 61.2974ZM77.3025 53.3514L80.5944 53.3514C80.8954 53.3514 81.1841 53.2318 81.397 53.019C81.6099 52.8061 81.7295 52.5173 81.7295 52.2163C81.7295 51.9152 81.6099 51.6265 81.397 51.4136C81.1841 51.2007 80.8954 51.0812 80.5944 51.0812L77.3025 51.0812C77.0014 51.0812 76.7127 51.2007 76.4998 51.4136C76.2869 51.6265 76.1673 51.9152 76.1673 52.2163C76.1673 52.5173 76.2869 52.8061 76.4998 53.019C76.7127 53.2318 77.0014 53.3514 77.3025 53.3514ZM76.0538 45.4055L80.5944 45.4055C80.8954 45.4055 81.1841 45.2859 81.397 45.073C81.6099 44.8601 81.7295 44.5714 81.7295 44.2703C81.7295 43.9693 81.6099 43.6806 81.397 43.4677C81.1841 43.2548 80.8954 43.1352 80.5944 43.1352L76.0538 43.1352C75.7528 43.1352 75.464 43.2548 75.2512 43.4677C75.0383 43.6806 74.9187 43.9693 74.9187 44.2703C74.9187 44.5714 75.0383 44.8601 75.2512 45.073C75.464 45.2859 75.7528 45.4055 76.0538 45.4055ZM77.3025 37.4595L80.5944 37.4595C80.8954 37.4595 81.1841 37.3399 81.397 37.1271C81.6099 36.9142 81.7295 36.6255 81.7295 36.3244C81.7295 36.0233 81.6099 35.7346 81.397 35.5217C81.1841 35.3089 80.8954 35.1893 80.5944 35.1893L77.3025 35.1893C77.0014 35.1893 76.7127 35.3089 76.4998 35.5217C76.2869 35.7346 76.1673 36.0233 76.1673 36.3244C76.1673 36.6255 76.2869 36.9142 76.4998 37.1271C76.7127 37.3399 77.0014 37.4595 77.3025 37.4595ZM76.0538 29.5136L80.5944 29.5136C80.8954 29.5136 81.1841 29.394 81.397 29.1811C81.6099 28.9682 81.7295 28.6795 81.7295 28.3784C81.7295 28.0774 81.6099 27.7887 81.397 27.5758C81.1841 27.3629 80.8954 27.2433 80.5944 27.2433L76.0538 27.2433C75.7528 27.2433 75.464 27.3629 75.2512 27.5758C75.0383 27.7887 74.9187 28.0774 74.9187 28.3784C74.9187 28.6795 75.0383 28.9682 75.2512 29.1811C75.464 29.394 75.7528 29.5136 76.0538 29.5136ZM77.3025 21.5676L80.5944 21.5676C80.8954 21.5676 81.1841 21.448 81.397 21.2352C81.6099 21.0223 81.7295 20.7336 81.7295 20.4325C81.7295 20.1314 81.6099 19.8427 81.397 19.6298C81.1841 19.417 80.8954 19.2974 80.5944 19.2974L77.3025 19.2974C77.0014 19.2974 76.7127 19.417 76.4998 19.6298C76.2869 19.8427 76.1673 20.1314 76.1673 20.4325C76.1673 20.7336 76.2869 21.0223 76.4998 21.2352C76.7127 21.448 77.0014 21.5676 77.3025 21.5676Z" fill="#F9E328"/>
</svg>
