<svg width="32" height="32" viewBox="0 0 32 32" fill="none" xmlns="http://www.w3.org/2000/svg">
<g clip-path="url(#clip0_228_286)">
<path d="M2.79883 14.5445C2.79883 15.9735 3.712 17.2423 5.10297 17.7938V19.1426C4.67073 19.3279 4.36704 19.7574 4.36704 20.2567V22.9394C4.36704 23.2194 4.46342 23.4769 4.6236 23.6823C4.46342 23.8877 4.36704 24.1452 4.36704 24.4252V26.5714C4.36704 27.2395 4.9106 27.783 5.57871 27.783H6.04051L6.12613 30.8555C6.12619 30.8582 6.12632 30.8609 6.12644 30.8637C6.15638 31.5245 6.65987 32 7.32417 32C7.91191 32 8.38258 31.6068 8.48671 31.0191L9.21032 27.783H14.9064C15.1653 27.783 15.3751 27.5732 15.3751 27.3143C15.3751 27.0554 15.1653 26.8456 14.9064 26.8456C13.8688 26.8456 6.62637 26.8456 5.57877 26.8456C5.43015 26.8456 5.30459 26.72 5.30459 26.5714V24.4252C5.30459 24.2766 5.43015 24.1511 5.57877 24.1511H26.4213C26.5699 24.1511 26.6955 24.2766 26.6955 24.4252V26.5714C26.6955 26.72 26.5699 26.8456 26.4213 26.8456C25.3748 26.8456 18.1311 26.8456 17.0938 26.8456C16.8348 26.8456 16.625 27.0554 16.625 27.3143C16.625 27.5732 16.8348 27.783 17.0938 27.783H22.7898L23.5134 31.0191C23.6176 31.6068 24.0881 32.0001 24.6759 32C25.3401 32 25.8437 31.5246 25.8736 30.8637C25.8738 30.861 25.8739 30.8582 25.874 30.8555L25.9596 27.783H26.4214C27.0894 27.783 27.633 27.2395 27.633 26.5714V24.4252C27.633 24.1452 27.5367 23.8877 27.3765 23.6823C27.5367 23.4769 27.633 23.2194 27.633 22.9394V22.6918C27.633 22.4329 27.4232 22.223 27.1643 22.223C26.9054 22.223 26.6956 22.4329 26.6956 22.6918V22.9394C26.6956 23.088 26.57 23.2136 26.4214 23.2136H5.57871C5.43008 23.2136 5.30452 23.088 5.30452 22.9394V20.2567C5.30452 20.109 5.42858 19.9844 5.57596 19.9828C5.58083 19.9828 5.58571 19.9827 5.59046 19.9825H26.4102C26.4153 19.9827 26.4196 19.9828 26.424 19.9828C26.5714 19.9843 26.6955 20.109 26.6955 20.2566V20.5043C26.6955 20.7631 26.9053 20.973 27.1642 20.973C27.4232 20.973 27.633 20.7631 27.633 20.5043V20.2566C27.633 19.7573 27.3293 19.3278 26.8971 19.1425V17.7937C28.288 17.2422 29.2012 15.9734 29.2012 14.5444C29.2012 12.9515 28.0627 11.6019 26.5034 11.1621L27.1221 7.32404C27.3809 5.7182 26.3203 4.21848 24.7075 3.9098C23.7418 3.72493 22.9304 3.26969 22.2959 2.55664C21.6737 1.85741 20.8473 1.27361 19.8396 0.821303C17.3995 -0.273799 14.6005 -0.273736 12.1604 0.821303C11.1527 1.27354 10.3262 1.85741 9.70406 2.55664C9.06957 3.26969 8.25815 3.72493 7.29242 3.9098C5.67964 4.21848 4.6191 5.7182 4.87791 7.32404L5.49652 11.1621C3.93737 11.602 2.79883 12.9516 2.79883 14.5445ZM8.24959 27.783L7.56923 30.8258C7.56735 30.8343 7.56566 30.8427 7.56429 30.8512C7.53185 31.0463 7.38467 31.0669 7.30004 31.0618C7.2158 31.0568 7.07349 31.0192 7.06305 30.8245L6.9783 27.783H8.24959ZM24.9369 30.8245C24.9265 31.0192 24.7842 31.0568 24.6999 31.0618C24.6148 31.0668 24.4681 31.0463 24.4357 30.8512C24.4343 30.8427 24.4326 30.8343 24.4307 30.8258L23.7504 27.783H25.0217L24.9369 30.8245ZM7.83516 19.045H6.04051V17.6088C6.04051 17.1953 5.83264 16.8298 5.51408 16.6203C5.51408 16.6203 5.51408 16.6203 5.51402 16.6203C5.08978 16.3417 4.83647 15.8728 4.83647 15.3661C4.83647 14.5393 5.50908 13.8667 6.33581 13.8667C7.27436 13.8667 7.83516 14.6466 7.83516 15.4006V19.045ZM21.607 19.045H10.393V18.3522C10.393 17.9323 10.7344 17.5887 11.1565 17.5887H20.8436C21.2649 17.5887 21.607 17.9316 21.607 18.3522V19.045ZM21.607 14.5445V16.8324C21.3691 16.7125 21.1049 16.6513 20.8436 16.6513H11.1565C10.8883 16.6513 10.6232 16.7165 10.393 16.8324V14.5445C10.393 13.2792 9.65099 12.0707 8.41327 11.4416L7.66341 6.78917C7.65785 6.75461 7.68279 6.72236 7.72016 6.7158C9.33075 6.43356 10.7492 5.64707 11.8221 4.44135C12.1766 4.04298 12.6809 3.6953 13.3211 3.408C15.0241 2.64376 16.9773 2.64395 18.6799 3.40843C19.3196 3.69574 19.8237 4.0433 20.178 4.44135C21.2509 5.64714 22.6692 6.43362 24.2798 6.7158C24.3172 6.72236 24.3421 6.75461 24.3366 6.78917L23.5867 11.4417C22.394 12.0477 21.607 13.2317 21.607 14.5445ZM26.4859 16.6203C26.1728 16.826 25.9595 17.1891 25.9595 17.6088V19.045H24.1649V15.4004C24.1649 14.4403 24.9272 13.8666 25.6642 13.8666C26.4909 13.8666 27.1635 14.5392 27.1635 15.3659C27.1636 15.8727 26.9102 16.3416 26.4859 16.6203ZM28.2637 14.5445C28.2637 14.8458 28.2068 15.1377 28.1007 15.4104C28.1286 14.057 27.0294 12.9292 25.6643 12.9292C24.2979 12.9292 23.2275 14.0147 23.2275 15.4005V19.0451H22.5445V18.3522V14.5445C22.5445 13.5755 23.1573 12.6387 24.1825 12.1974C26.0613 11.388 28.2637 12.6369 28.2637 14.5445ZM7.46873 4.83053C8.64189 4.60597 9.62956 4.05061 10.4044 3.17981C10.9381 2.58008 11.6581 2.07434 12.5443 1.67653C14.7403 0.690993 17.2595 0.690868 19.4557 1.67653C20.342 2.07428 21.0619 2.58008 21.5956 3.17981C22.3704 4.05061 23.3581 4.60597 24.5313 4.83053C25.6427 5.04327 26.3741 6.073 26.1966 7.17485L25.5778 11.0143C25.2587 11.0005 24.9282 11.0243 24.5926 11.0926L25.2622 6.9383C25.3488 6.40093 24.9807 5.88688 24.4417 5.79238C23.0215 5.54358 21.8227 4.87934 20.8784 3.81811C20.4356 3.32062 19.8251 2.89501 19.064 2.5532C17.1174 1.6791 14.8843 1.67897 12.9374 2.55264C12.1757 2.89451 11.5648 3.32025 11.1218 3.81811C10.1775 4.87928 8.97863 5.54351 7.55835 5.79238C7.01936 5.88682 6.65131 6.40087 6.73793 6.9383L7.40723 11.0909C7.10236 11.0292 6.75512 11 6.42231 11.0144L5.80351 7.17492C5.62589 6.073 6.35738 5.04327 7.46873 4.83053ZM6.59593 11.948C8.13728 11.948 9.4555 13.0827 9.4555 14.5444V18.3522V19.045H8.77264V15.4004C8.77264 14.0146 7.70222 12.9291 6.33581 12.9291C4.99216 12.9291 3.89899 14.0223 3.89899 15.3659C3.89899 15.3807 3.89912 15.3955 3.89943 15.4102C3.79331 15.1376 3.73637 14.8457 3.73637 14.5444C3.73631 13.0882 5.04841 11.948 6.59593 11.948Z" fill="#2B2A29"/>
<path d="M11.7832 9.65185H11.7549V9.62354C11.7549 9.36466 11.5451 9.15479 11.2861 9.15479C11.0272 9.15479 10.8174 9.36466 10.8174 9.62354V9.65185H10.7891C10.5301 9.65185 10.3203 9.86172 10.3203 10.1206C10.3203 10.3795 10.5301 10.5893 10.7891 10.5893H10.8174V10.6177C10.8174 10.8765 11.0272 11.0864 11.2861 11.0864C11.5451 11.0864 11.7549 10.8765 11.7549 10.6177V10.5893H11.7832C12.0421 10.5893 12.2519 10.3795 12.2519 10.1206C12.2519 9.86172 12.0421 9.65185 11.7832 9.65185Z" fill="#2B2A29"/>
<path d="M16.4971 9.65185H16.4687V9.62354C16.4687 9.36466 16.2589 9.15479 16 9.15479C15.7411 9.15479 15.5312 9.36466 15.5312 9.62354V9.65185H15.5029C15.244 9.65185 15.0342 9.86172 15.0342 10.1206C15.0342 10.3795 15.244 10.5893 15.5029 10.5893H15.5312V10.6177C15.5312 10.8765 15.7411 11.0864 16 11.0864C16.2589 11.0864 16.4687 10.8765 16.4687 10.6177V10.5893H16.4971C16.756 10.5893 16.9658 10.3795 16.9658 10.1206C16.9658 9.86172 16.756 9.65185 16.4971 9.65185Z" fill="#2B2A29"/>
<path d="M21.2109 9.65185H21.1826V9.62354C21.1826 9.36466 20.9728 9.15479 20.7139 9.15479C20.4549 9.15479 20.2451 9.36466 20.2451 9.62354V9.65185H20.2168C19.9579 9.65185 19.748 9.86172 19.748 10.1206C19.748 10.3795 19.9579 10.5893 20.2168 10.5893H20.2451V10.6177C20.2451 10.8765 20.4549 11.0864 20.7139 11.0864C20.9728 11.0864 21.1826 10.8765 21.1826 10.6177V10.5893H21.2109C21.4699 10.5893 21.6797 10.3795 21.6797 10.1206C21.6797 9.86172 21.4699 9.65185 21.2109 9.65185Z" fill="#2B2A29"/>
<path d="M14.1406 13.3599H14.1123V13.3315C14.1123 13.0727 13.9025 12.8628 13.6435 12.8628C13.3846 12.8628 13.1748 13.0727 13.1748 13.3315V13.3599H13.1465C12.8875 13.3599 12.6777 13.5697 12.6777 13.8286C12.6777 14.0875 12.8875 14.2974 13.1465 14.2974H13.1748V14.3257C13.1748 14.5845 13.3846 14.7944 13.6435 14.7944C13.9025 14.7944 14.1123 14.5845 14.1123 14.3257V14.2974H14.1406C14.3995 14.2974 14.6094 14.0875 14.6094 13.8286C14.6094 13.5697 14.3995 13.3599 14.1406 13.3599Z" fill="#2B2A29"/>
<path d="M18.8535 13.3599H18.8252V13.3315C18.8252 13.0727 18.6154 12.8628 18.3564 12.8628C18.0975 12.8628 17.8877 13.0727 17.8877 13.3315V13.3599H17.8594C17.6004 13.3599 17.3906 13.5697 17.3906 13.8286C17.3906 14.0875 17.6004 14.2974 17.8594 14.2974H17.8877V14.3257C17.8877 14.5845 18.0975 14.7944 18.3564 14.7944C18.6154 14.7944 18.8252 14.5845 18.8252 14.3257V14.2974H18.8535C19.1124 14.2974 19.3223 14.0875 19.3223 13.8286C19.3223 13.5697 19.1124 13.3599 18.8535 13.3599Z" fill="#2B2A29"/>
<path d="M14.1406 5.94335H14.1123V5.91504C14.1123 5.65616 13.9025 5.44629 13.6435 5.44629C13.3846 5.44629 13.1748 5.65616 13.1748 5.91504V5.94335H13.1465C12.8875 5.94335 12.6777 6.15323 12.6777 6.4121C12.6777 6.67098 12.8875 6.88085 13.1465 6.88085H13.1748V6.90916C13.1748 7.16804 13.3846 7.37791 13.6435 7.37791C13.9025 7.37791 14.1123 7.16804 14.1123 6.90916V6.88085H14.1406C14.3995 6.88085 14.6094 6.67098 14.6094 6.4121C14.6094 6.15323 14.3995 5.94335 14.1406 5.94335Z" fill="#2B2A29"/>
<path d="M18.8535 5.94335H18.8252V5.91504C18.8252 5.65616 18.6154 5.44629 18.3564 5.44629C18.0975 5.44629 17.8877 5.65616 17.8877 5.91504V5.94335H17.8594C17.6004 5.94335 17.3906 6.15323 17.3906 6.4121C17.3906 6.67098 17.6004 6.88085 17.8594 6.88085H17.8877V6.90916C17.8877 7.16804 18.0975 7.37791 18.3564 7.37791C18.6154 7.37791 18.8252 7.16804 18.8252 6.90916V6.88085H18.8535C19.1124 6.88085 19.3223 6.67098 19.3223 6.4121C19.3223 6.15323 19.1124 5.94335 18.8535 5.94335Z" fill="#2B2A29"/>
</g>
<defs>
<clipPath id="clip0_228_286">
<rect width="32" height="32" fill="white"/>
</clipPath>
</defs>
</svg>
