<svg width="32" height="32" viewBox="0 0 32 32" fill="none" xmlns="http://www.w3.org/2000/svg">
<path d="M30.1406 15.9686H30.0464L29.561 12.0548C29.5291 11.7979 29.2945 11.6154 29.0381 11.6473C28.7813 11.6792 28.5988 11.9132 28.6306 12.1702L29.1016 15.9686H29.0056C28.4909 15.9686 27.9916 16.184 27.6341 16.5765C27.2938 16.203 26.7989 15.9686 26.2625 15.9686H25.1277C24.6052 15.9686 24.1084 16.1897 23.7561 16.5765C23.4034 16.1895 22.9065 15.9686 22.3844 15.9686H21.2496C20.7271 15.9686 20.2304 16.1897 19.878 16.5765C19.5254 16.1895 19.0284 15.9686 18.5064 15.9686H17.3716C17.3698 15.9686 17.3681 15.9687 17.3664 15.9687C17.0538 15.9696 16.7409 16.0522 16.4687 16.2042V6.15162C16.4687 5.75512 16.7913 5.43255 17.1878 5.43255H26.8888C27.3974 5.43255 27.8335 5.8118 27.9046 6.31518L28.3613 9.99812C28.3932 10.2551 28.6279 10.4377 28.8841 10.4056C29.141 10.3737 29.3235 10.1397 29.2917 9.88274L28.8346 6.1963C28.8343 6.19412 28.834 6.19199 28.8337 6.18987C28.7003 5.22368 27.8641 4.49512 26.8889 4.49512H17.1878C16.7223 4.49512 16.3013 4.68843 16 4.99868C15.6988 4.68843 15.2778 4.49512 14.8122 4.49512H5.11113C4.13588 4.49512 3.29975 5.22368 3.16631 6.18987C3.166 6.19199 3.16575 6.19412 3.16544 6.1963L1.95363 15.9686H1.85944C0.834188 15.9686 0 16.8027 0 17.828V22.0796C0 22.471 0.22925 22.809 0.56 22.969V23.8352C0.56 24.2402 0.809813 24.5875 1.16319 24.7324L1.25631 28.0752C1.25638 28.0779 1.2565 28.0806 1.25663 28.0834C1.28763 28.7669 1.80831 29.2584 2.49506 29.2584C3.10306 29.2584 3.58969 28.8516 3.69713 28.2436L4.466 24.8049H14.9063C15.1652 24.8049 15.375 24.5951 15.375 24.3362C15.375 24.0773 15.1652 23.8674 14.9063 23.8674C14.3479 23.8674 1.83894 23.8674 1.62106 23.8674H1.52963C1.51306 23.8674 1.49744 23.8518 1.49744 23.8352V23.0681H30.5024V23.8352C30.5024 23.8518 30.4868 23.8674 30.4702 23.8674C30.0981 23.8674 17.7258 23.8674 17.0937 23.8674C16.8348 23.8674 16.6249 24.0773 16.6249 24.3362C16.6249 24.5951 16.8348 24.8049 17.0937 24.8049H27.4165L28.1854 28.2436C28.2929 28.8517 28.7795 29.2584 29.3875 29.2584C30.0743 29.2584 30.595 28.7669 30.6259 28.0834C30.6261 28.0807 30.6262 28.0779 30.6263 28.0752L30.7183 24.7715C31.1329 24.6615 31.4399 24.284 31.4399 23.8352V22.969C31.7706 22.809 31.9999 22.471 31.9999 22.0796V17.828C32 16.8027 31.1658 15.9686 30.1406 15.9686ZM3.50544 24.8049L2.77981 28.0503C2.77794 28.0587 2.77625 28.0672 2.77488 28.0757C2.73588 28.3104 2.54769 28.3245 2.46844 28.32C2.38963 28.3153 2.20581 28.279 2.19344 28.0442L2.10319 24.8049H3.50544ZM29.6893 28.0442C29.6769 28.2789 29.4931 28.3153 29.4143 28.32C29.3351 28.3249 29.1468 28.3104 29.1078 28.0757C29.1064 28.0672 29.1048 28.0587 29.1029 28.0503L28.3773 24.8049H29.7796L29.6893 28.0442ZM4.09538 6.31512C4.16638 5.81174 4.6025 5.43249 5.11113 5.43249H14.8122C15.2087 5.43249 15.5313 5.75505 15.5313 6.15155V16.2042C15.2693 16.0575 14.9531 15.9686 14.6284 15.9686H13.4936C12.9715 15.9686 12.4746 16.1894 12.122 16.5764C11.7694 16.1895 11.2724 15.9686 10.7504 15.9686H9.61556C9.09344 15.9686 8.5965 16.1895 8.244 16.5765C7.89138 16.1895 7.3945 15.9686 6.87244 15.9686H5.73744C5.21531 15.9686 4.71838 16.1895 4.36588 16.5765C4.01325 16.1895 3.51638 15.9686 2.99431 15.9686H2.89838L4.09538 6.31512ZM31.0625 22.0796C31.0625 22.1067 31.0387 22.1305 31.0116 22.1305C29.4898 22.1305 2.60363 22.1305 0.988438 22.1305C0.961313 22.1305 0.937563 22.1067 0.937563 22.0796V17.828C0.937563 17.3197 1.35113 16.9061 1.8595 16.9061H2.99431C3.26063 16.9061 3.51425 17.0232 3.69025 17.2274C4.04544 17.6397 4.68544 17.6407 5.04163 17.2274C5.21756 17.0232 5.47119 16.9061 5.7375 16.9061H6.87238C7.13869 16.9061 7.39231 17.0232 7.56831 17.2274C7.9235 17.6397 8.5635 17.6407 8.91969 17.2274C9.09563 17.0232 9.34925 16.9061 9.61556 16.9061H10.7504C11.0168 16.9061 11.2704 17.0232 11.4464 17.2274C11.8018 17.6401 12.4422 17.6401 12.7977 17.2275C12.9713 17.0261 13.2238 16.9061 13.4936 16.9061H14.6285C14.8948 16.9061 15.1484 17.0232 15.3244 17.2274C15.6726 17.6316 16.3149 17.6464 16.6758 17.2275C16.856 17.0183 17.118 16.9061 17.3717 16.9061H18.5065C18.7728 16.9061 19.0264 17.0232 19.2025 17.2275C19.5583 17.6404 20.1985 17.6399 20.5538 17.2274C20.7298 17.0232 20.9834 16.9061 21.2498 16.9061H22.3846C22.6509 16.9061 22.9045 17.0232 23.0805 17.2274C23.4362 17.6404 24.0766 17.6399 24.4319 17.2274C24.6078 17.0232 24.8615 16.9061 25.1278 16.9061H26.2625C26.5151 16.9061 26.778 17.0182 26.9584 17.2274C27.3136 17.6397 27.9536 17.6407 28.3098 17.2274C28.4858 17.0232 28.7394 16.9061 29.0057 16.9061H30.1406C30.6489 16.9061 31.0625 17.3197 31.0625 17.828V22.0796Z" fill="#2B2A29"/>
<path d="M20.0002 7.55664C19.2414 7.55664 18.624 8.17395 18.624 8.93277C18.624 9.69158 19.2414 10.309 20.0002 10.309C20.759 10.309 21.3763 9.69164 21.3763 8.93277C21.3763 8.17402 20.759 7.55664 20.0002 7.55664ZM20.0002 9.37145C19.7583 9.37145 19.5615 9.1747 19.5615 8.93277C19.5615 8.69089 19.7583 8.49414 20.0002 8.49414C20.242 8.49414 20.4388 8.69089 20.4388 8.93277C20.4388 9.17464 20.242 9.37145 20.0002 9.37145Z" fill="#2B2A29"/>
<path d="M20.0002 11.7627C19.2414 11.7627 18.624 12.38 18.624 13.1388C18.624 13.8976 19.2414 14.5149 20.0002 14.5149C20.759 14.5149 21.3763 13.8976 21.3763 13.1388C21.3763 12.38 20.759 11.7627 20.0002 11.7627ZM20.0002 13.5774C19.7583 13.5774 19.5615 13.3807 19.5615 13.1388C19.5615 12.8969 19.7583 12.7002 20.0002 12.7002C20.242 12.7002 20.4388 12.8969 20.4388 13.1388C20.4388 13.3807 20.242 13.5774 20.0002 13.5774Z" fill="#2B2A29"/>
<path d="M25.8099 8.93277C25.8099 8.17395 25.1926 7.55664 24.4337 7.55664C23.6749 7.55664 23.0576 8.17395 23.0576 8.93277C23.0576 9.69158 23.6749 10.309 24.4337 10.309C25.1926 10.309 25.8099 9.69158 25.8099 8.93277ZM23.9952 8.93277C23.9952 8.69089 24.1919 8.49414 24.4338 8.49414C24.6757 8.49414 24.8725 8.69089 24.8725 8.93277C24.8725 9.17464 24.6757 9.37145 24.4338 9.37145C24.1919 9.37145 23.9952 9.17464 23.9952 8.93277Z" fill="#2B2A29"/>
<path d="M24.9679 14.5149C25.7267 14.5149 26.3441 13.8976 26.3441 13.1388C26.3441 12.38 25.7267 11.7627 24.9679 11.7627C24.2091 11.7627 23.5918 12.38 23.5918 13.1388C23.5918 13.8976 24.2092 14.5149 24.9679 14.5149ZM24.9679 12.7002C25.2098 12.7002 25.4066 12.8969 25.4066 13.1388C25.4066 13.3807 25.2099 13.5774 24.9679 13.5774C24.7261 13.5774 24.5293 13.3807 24.5293 13.1388C24.5293 12.8969 24.7261 12.7002 24.9679 12.7002Z" fill="#2B2A29"/>
<path d="M11.9992 10.309C12.758 10.309 13.3754 9.69164 13.3754 8.93277C13.3754 8.17395 12.758 7.55664 11.9992 7.55664C11.2404 7.55664 10.623 8.17395 10.623 8.93277C10.6231 9.69158 11.2405 10.309 11.9992 10.309ZM11.9992 8.49414C12.2411 8.49414 12.4379 8.69089 12.4379 8.93277C12.4379 9.17464 12.2412 9.37145 11.9992 9.37145C11.7573 9.37145 11.5605 9.1747 11.5605 8.93277C11.5606 8.69095 11.7574 8.49414 11.9992 8.49414Z" fill="#2B2A29"/>
<path d="M11.9992 14.5149C12.758 14.5149 13.3754 13.8976 13.3754 13.1388C13.3754 12.38 12.758 11.7627 11.9992 11.7627C11.2404 11.7627 10.623 12.38 10.623 13.1388C10.623 13.8976 11.2405 14.5149 11.9992 14.5149ZM11.9992 12.7002C12.2411 12.7002 12.4379 12.8969 12.4379 13.1388C12.4379 13.3807 12.2412 13.5774 11.9992 13.5774C11.7573 13.5774 11.5605 13.3807 11.5605 13.1388C11.5605 12.8969 11.7574 12.7002 11.9992 12.7002Z" fill="#2B2A29"/>
<path d="M7.56655 10.309C8.32537 10.309 8.94274 9.69164 8.94274 8.93277C8.94274 8.17395 8.32537 7.55664 7.56655 7.55664C6.80774 7.55664 6.19043 8.17395 6.19043 8.93277C6.19043 9.69158 6.80774 10.309 7.56655 10.309ZM7.56655 8.49414C7.80843 8.49414 8.00524 8.69089 8.00524 8.93277C8.00524 9.17464 7.80849 9.37145 7.56655 9.37145C7.32474 9.37145 7.12793 9.1747 7.12793 8.93277C7.12793 8.69095 7.32468 8.49414 7.56655 8.49414Z" fill="#2B2A29"/>
<path d="M7.0314 14.5149C7.79021 14.5149 8.40759 13.8976 8.40759 13.1388C8.40759 12.38 7.79021 11.7627 7.0314 11.7627C6.27259 11.7627 5.65527 12.38 5.65527 13.1388C5.65527 13.8976 6.27259 14.5149 7.0314 14.5149ZM7.0314 12.7002C7.27327 12.7002 7.47009 12.8969 7.47009 13.1388C7.47009 13.3807 7.27334 13.5774 7.0314 13.5774C6.78959 13.5774 6.59277 13.3807 6.59277 13.1388C6.59277 12.8969 6.78959 12.7002 7.0314 12.7002Z" fill="#2B2A29"/>
</svg>
